<?xml version="1.0" encoding="UTF-8"?>
<svg xmlns="http://www.w3.org/2000/svg" xmlns:xlink="http://www.w3.org/1999/xlink" width="50px" height="50px" viewBox="0 0 50 50" version="1.1">
<g id="surface1">
<path style=" stroke:none;fill-rule:nonzero;fill:rgb(38.039216%,70.588235%,89.411765%);fill-opacity:1;" d="M 25 0 C 11.265625 0 0.132812 11.132812 0.132812 24.867188 C 0.132812 31.058594 2.398438 36.71875 6.140625 41.074219 C 5.019531 44.304688 2.9375 47.089844 0.242188 49.09375 C 1.957031 49.675781 3.789062 50 5.703125 50 C 8.972656 50 12.023438 49.070312 14.609375 47.460938 C 17.769531 48.917969 21.289062 49.730469 25 49.730469 C 38.734375 49.730469 49.867188 38.597656 49.867188 24.867188 C 49.867188 11.132812 38.734375 0 25 0 Z M 25 0 "/>
<path style=" stroke:none;fill-rule:nonzero;fill:rgb(100%,100%,100%);fill-opacity:1;" d="M 38.863281 14.285156 C 37.757812 14.929688 36.539062 15.398438 35.238281 15.652344 C 34.199219 14.558594 32.714844 13.875 31.074219 13.875 C 27.921875 13.875 25.367188 16.390625 25.367188 19.492188 C 25.367188 19.933594 25.417969 20.359375 25.515625 20.773438 C 20.773438 20.539062 16.570312 18.300781 13.753906 14.90625 C 13.265625 15.734375 12.984375 16.699219 12.984375 17.726562 C 12.984375 19.675781 13.992188 21.394531 15.523438 22.402344 C 14.585938 22.371094 13.707031 22.121094 12.9375 21.699219 C 12.9375 21.722656 12.9375 21.746094 12.9375 21.769531 C 12.9375 24.492188 14.90625 26.761719 17.515625 27.277344 C 17.035156 27.40625 16.53125 27.476562 16.011719 27.476562 C 15.644531 27.476562 15.285156 27.441406 14.9375 27.375 C 15.664062 29.605469 17.769531 31.230469 20.265625 31.273438 C 18.3125 32.78125 15.855469 33.679688 13.179688 33.679688 C 12.71875 33.679688 12.265625 33.652344 11.816406 33.601562 C 14.34375 35.195312 17.34375 36.125 20.566406 36.125 C 31.0625 36.125 36.796875 27.566406 36.796875 20.144531 C 36.796875 19.902344 36.792969 19.65625 36.785156 19.417969 C 37.898438 18.625 38.867188 17.636719 39.628906 16.507812 C 38.605469 16.957031 37.507812 17.257812 36.351562 17.394531 C 37.53125 16.699219 38.433594 15.597656 38.863281 14.285156 Z M 38.863281 14.285156 "/>
</g>
</svg>
