<?xml version="1.0" standalone="no"?>
<!DOCTYPE svg PUBLIC "-//W3C//DTD SVG 20010904//EN"
 "http://www.w3.org/TR/2001/REC-SVG-20010904/DTD/svg10.dtd">
<svg version="1.0" xmlns="http://www.w3.org/2000/svg"
 width="551.000000pt" height="408.000000pt" viewBox="0 0 551.000000 408.000000"
 preserveAspectRatio="xMidYMid meet">

<g transform="translate(0.000000,408.000000) scale(0.100000,-0.100000)"
fill="#000000" stroke="none">
<path d="M0 3825 l0 -255 2755 0 2755 0 0 255 0 255 -2755 0 -2755 0 0 -255z
m260 45 c0 -5 -7 -10 -15 -10 -8 0 -15 -4 -15 -10 0 -5 7 -10 15 -10 8 0 15
-4 15 -10 0 -5 -7 -10 -15 -10 -8 0 -15 -6 -15 -14 0 -8 -4 -18 -10 -21 -6 -4
-10 13 -10 44 0 48 2 51 25 51 14 0 25 -4 25 -10z m30 -34 c0 -25 -4 -48 -10
-51 -6 -4 -10 13 -10 44 0 28 5 51 10 51 6 0 10 -20 10 -44z m30 34 c0 -5 -4
-10 -10 -10 -5 0 -10 5 -10 10 0 6 5 10 10 10 6 0 10 -4 10 -10z m155 -26 c18
-43 21 -80 4 -51 -12 21 -38 22 -45 2 -4 -8 -10 -15 -15 -15 -7 0 12 67 26 91
10 15 14 11 30 -27z m83 8 c3 -17 -2 -25 -17 -29 -12 -3 -21 -13 -21 -25 0
-10 -4 -16 -10 -13 -11 7 -14 78 -3 89 15 15 48 1 51 -22z m32 -23 c0 -31 -4
-48 -10 -44 -17 11 -12 95 7 95 2 0 3 -23 3 -51z m195 11 c7 0 16 8 18 18 3 9
5 -3 5 -28 0 -25 -2 -37 -5 -27 -6 21 -33 23 -33 1 0 -8 -4 -12 -10 -9 -12 7
-13 58 -2 69 4 4 8 1 10 -8 2 -9 10 -16 17 -16z m379 24 c20 -8 21 -48 1 -64
-22 -19 -45 -5 -45 28 0 40 11 49 44 36z m796 -4 c0 -5 -3 -9 -7 -9 -5 1 -14
1 -21 0 -18 -1 -11 -43 7 -49 10 -3 12 0 8 12 -4 9 -2 16 4 16 14 0 7 -32 -7
-37 -12 -4 -44 23 -44 37 0 14 30 40 46 40 8 0 14 -4 14 -10z m100 -7 c11 -10
20 -29 19 -43 0 -14 -3 -18 -6 -10 -14 43 -16 45 -23 20 -6 -23 -7 -21 -11 13
-3 20 -4 37 -2 37 1 0 12 -8 23 -17z m110 -8 c4 3 13 -2 21 -11 10 -12 9 -18
-3 -31 -23 -22 -38 -8 -37 35 1 20 3 29 6 19 2 -9 8 -15 13 -12z m-604 -26 c1
-16 -2 -26 -7 -23 -5 3 -9 19 -9 36 0 39 14 28 16 -13z m88 1 c1 -16 0 -30 -2
-30 -7 0 -21 53 -16 62 9 15 17 1 18 -32z m368 5 c2 -22 0 -34 -6 -32 -16 5
-17 67 -2 67 2 0 6 -16 8 -35z m-1886 -1 c4 -14 2 -30 -5 -37 -8 -8 -11 -3
-11 21 0 18 -4 32 -10 32 -5 0 -10 -11 -10 -24 0 -14 -5 -28 -10 -31 -6 -4
-10 7 -10 24 0 17 -4 31 -10 31 -5 0 -10 -11 -10 -24 0 -14 -4 -28 -10 -31 -6
-4 -10 8 -10 29 0 36 0 36 45 36 40 0 45 -3 51 -26z m24 11 c0 -8 5 -15 10
-15 6 0 10 7 10 15 0 8 5 15 11 15 12 0 5 -29 -18 -72 -13 -27 -33 -38 -33
-18 0 6 5 10 11 10 11 0 8 25 -7 64 -3 9 -1 16 5 16 6 0 11 -7 11 -15z m188 3
c9 -9 12 -9 12 0 0 7 5 12 10 12 7 0 7 -6 1 -18 -7 -13 -6 -23 1 -30 7 -7 8
-15 4 -19 -4 -4 -12 -1 -17 7 -8 11 -12 12 -16 3 -2 -7 -9 -13 -14 -13 -6 0
-5 9 2 21 8 15 8 24 0 32 -8 8 -11 4 -11 -15 0 -15 -4 -30 -10 -33 -6 -4 -10
8 -10 29 0 28 4 36 18 36 10 0 23 -5 30 -12z m517 2 c5 -8 11 -8 19 -1 7 6 25
9 41 8 25 -2 31 -7 33 -31 2 -18 0 -26 -7 -21 -6 3 -11 14 -12 23 -1 10 -4 7
-9 -8 l-7 -25 -11 25 c-10 24 -11 24 -11 3 -1 -23 -21 -34 -21 -12 0 8 -5 7
-16 -1 -12 -11 -18 -10 -31 3 -13 13 -14 19 -3 31 15 19 26 20 35 6z m142 -1
c14 -14 5 -49 -13 -49 -18 0 -28 24 -20 45 6 18 18 19 33 4z m231 -13 c5 -24
-10 -38 -31 -30 -20 7 -23 40 -4 47 19 8 32 2 35 -17z m52 14 c0 -5 -6 -9 -12
-7 -7 1 -13 -5 -13 -13 0 -8 6 -14 13 -12 6 1 12 -3 12 -9 0 -6 -8 -9 -17 -7
-22 4 -30 38 -11 49 18 12 28 11 28 -1z m33 -30 c3 8 8 22 10 30 3 8 6 1 6
-17 1 -24 -3 -31 -16 -29 -12 2 -19 13 -20 32 l-2 29 8 -30 c5 -20 10 -25 14
-15z m104 5 c1 -18 -1 -22 -4 -10 -8 33 -23 42 -24 15 l0 -25 -11 25 c-11 25
-11 25 -15 3 -5 -24 -23 -32 -23 -10 0 21 21 36 49 34 21 -2 26 -8 28 -32z
m48 25 c4 -7 13 -7 26 0 26 14 39 5 38 -28 -1 -21 -2 -22 -6 -7 -8 31 -23 42
-23 17 0 -12 -4 -22 -10 -22 -5 0 -10 5 -10 10 0 6 -9 10 -21 10 -11 0 -17 -5
-14 -10 4 -6 11 -8 16 -5 5 4 9 1 9 -4 0 -17 -30 -13 -36 4 -12 30 15 61 31
35z m143 -24 c3 -22 0 -27 -14 -24 -20 3 -32 28 -14 28 6 0 8 -4 5 -10 -3 -5
-2 -10 4 -10 5 0 9 9 8 19 -1 12 -6 17 -16 13 -9 -4 -12 -1 -7 7 12 19 31 7
34 -23z m59 -13 c-3 -10 -5 -2 -5 17 0 19 2 27 5 18 2 -10 2 -26 0 -35z m58
16 c0 -17 -6 -24 -20 -24 -23 0 -33 34 -13 46 20 13 33 5 33 -22z m63 4 c2
-13 -1 -23 -6 -23 -5 0 -9 6 -8 13 2 22 -19 19 -26 -5 -5 -20 -6 -19 -7 8 -1
26 3 31 22 30 15 -1 23 -8 25 -23z m308 -13 c4 -12 6 -12 14 0 5 8 6 18 4 22
-3 4 0 8 5 8 17 0 13 -37 -5 -44 -23 -9 -34 2 -33 32 0 15 3 20 6 12 2 -8 7
-22 9 -30z m-119 -2 c-3 -7 -5 -2 -5 12 0 14 2 19 5 13 2 -7 2 -19 0 -25z"/>
<path d="M446 3835 c-3 -9 0 -15 9 -15 9 0 12 6 9 15 -4 8 -7 15 -9 15 -2 0
-5 -7 -9 -15z"/>
<path d="M520 3844 c0 -17 22 -14 28 4 2 7 -3 12 -12 12 -9 0 -16 -7 -16 -16z"/>
<path d="M1140 3830 c0 -22 4 -28 15 -24 8 4 15 14 15 24 0 10 -7 20 -15 24
-11 4 -15 -2 -15 -24z"/>
<path d="M2165 3829 c-4 -6 -3 -15 3 -21 6 -6 11 -4 15 6 7 18 -9 31 -18 15z"/>
<path d="M840 3820 c0 -5 5 -10 10 -10 6 0 10 5 10 10 0 6 -4 10 -10 10 -5 0
-10 -4 -10 -10z"/>
<path d="M1205 3830 c-4 -6 -3 -16 3 -22 6 -6 12 -6 17 2 4 6 3 16 -3 22 -6 6
-12 6 -17 -2z"/>
<path d="M1705 3830 c-4 -6 -3 -16 3 -22 6 -6 12 -6 17 2 4 6 3 16 -3 22 -6 6
-12 6 -17 -2z"/>
<path d="M610 3240 c0 -80 4 -130 10 -130 6 0 10 50 10 130 0 80 -4 130 -10
130 -6 0 -10 -50 -10 -130z"/>
<path d="M2608 3240 c-2 -72 0 -130 5 -130 4 0 7 59 7 130 0 72 -2 130 -4 130
-3 0 -6 -59 -8 -130z"/>
<path d="M120 3353 c0 -5 4 -23 9 -39 6 -16 21 -69 36 -117 14 -48 29 -85 34
-83 4 3 21 48 36 101 16 52 30 93 32 92 2 -2 14 -42 28 -88 36 -119 35 -117
44 -99 5 8 20 56 35 106 14 50 28 99 32 108 3 9 2 16 -4 16 -5 0 -22 -48 -38
-106 -31 -118 -29 -119 -66 16 -11 41 -23 79 -27 83 -4 4 -23 -41 -41 -100
l-33 -108 -30 105 c-26 93 -47 144 -47 113z"/>
<path d="M2452 3228 c1 -94 3 -109 7 -63 l6 60 45 6 45 6 -47 1 -48 2 0 49 0
50 53 4 52 3 -57 2 -58 2 2 -122z"/>
<path d="M2670 3340 c0 -5 5 -10 10 -10 6 0 10 5 10 10 0 6 -4 10 -10 10 -5 0
-10 -4 -10 -10z"/>
<path d="M2900 3230 l0 -120 40 0 c91 0 140 47 140 135 0 38 -5 52 -29 76 -26
26 -36 29 -90 29 l-61 0 0 -120z m114 100 c14 -5 32 -23 41 -39 34 -67 4 -142
-65 -161 -73 -20 -75 -18 -78 103 l-3 107 40 0 c22 0 51 -4 65 -10z"/>
<path d="M3130 3230 l0 -120 50 0 c37 0 55 5 70 20 27 27 26 75 -2 94 -20 15
-21 16 -5 34 42 46 10 92 -64 92 l-49 0 0 -120z m94 104 c9 -4 16 -18 16 -35
0 -32 -31 -59 -67 -59 -21 0 -23 5 -23 50 0 49 1 50 29 50 16 0 36 -3 45 -6z
m16 -124 c38 -38 16 -78 -48 -87 l-42 -6 0 57 0 56 35 0 c22 0 43 -8 55 -20z"/>
<path d="M3475 3308 c-45 -111 -74 -198 -66 -198 4 0 15 18 24 40 15 39 16 40
66 40 50 0 51 -1 67 -40 9 -22 20 -40 24 -40 4 0 -13 54 -37 120 -25 66 -49
120 -53 120 -4 0 -16 -19 -25 -42z m53 -50 l21 -58 -50 0 c-37 0 -49 3 -46 13
3 6 14 36 23 65 10 29 21 49 24 45 4 -5 16 -34 28 -65z"/>
<path d="M3640 3230 c0 -73 4 -120 10 -120 6 0 10 23 10 50 l0 50 34 0 c49 0
80 29 80 75 0 48 -23 65 -86 65 l-48 0 0 -120z m104 94 c40 -39 5 -104 -56
-104 -28 0 -28 1 -28 60 l0 60 34 0 c19 0 42 -7 50 -16z"/>
<path d="M3830 3230 c0 -73 4 -120 10 -120 6 0 10 47 10 120 0 73 -4 120 -10
120 -6 0 -10 -47 -10 -120z"/>
<path d="M1611 3313 c0 -12 -9 -27 -18 -32 -17 -10 -17 -10 -1 -11 14 0 18
-12 20 -77 l3 -78 30 -2 c28 -2 28 -1 5 5 -23 7 -25 13 -28 79 -3 72 -3 72 25
76 l28 4 -27 2 c-21 1 -28 7 -31 29 -3 21 -4 22 -6 5z"/>
<path d="M454 3267 c-20 -17 -27 -33 -28 -63 -1 -58 25 -94 68 -94 40 0 66 8
66 21 0 6 -8 5 -19 -1 -47 -25 -101 3 -101 52 0 15 9 18 66 18 l66 0 -6 28
c-8 31 -40 62 -67 62 -10 0 -30 -10 -45 -23z m74 -3 c12 -8 22 -24 22 -35 0
-16 -7 -19 -55 -19 -63 0 -72 15 -29 49 32 25 33 25 62 5z"/>
<path d="M717 3279 c-11 -6 -25 -27 -33 -46 -18 -41 -5 -97 26 -113 24 -13 77
-13 85 -1 3 6 -9 8 -29 4 -44 -7 -76 23 -76 71 0 49 29 80 74 79 20 -1 33 3
30 8 -7 12 -55 11 -77 -2z"/>
<path d="M874 3278 c-45 -22 -58 -98 -23 -142 16 -20 29 -26 58 -26 52 0 81
32 81 89 0 71 -56 109 -116 79z m83 -24 c22 -22 25 -32 20 -67 -6 -46 -27 -67
-67 -67 -49 0 -81 60 -59 112 21 51 67 61 106 22z"/>
<path d="M1073 3275 c-16 -12 -22 -12 -26 -2 -3 6 -5 -28 -5 -78 1 -90 1 -90
8 -25 10 101 30 125 76 95 21 -14 24 -24 26 -88 l1 -72 6 68 c5 56 10 72 30
88 26 22 30 22 51 9 10 -6 17 -34 21 -87 l6 -78 1 76 c2 62 -1 79 -16 92 -23
21 -41 21 -70 1 -21 -15 -25 -15 -41 0 -22 20 -40 20 -68 1z"/>
<path d="M1343 3266 c-23 -20 -28 -32 -27 -70 1 -57 25 -86 70 -86 38 0 64 9
64 21 0 6 -8 5 -19 -1 -47 -25 -101 3 -101 52 0 15 9 18 66 18 l66 0 -6 28
c-8 31 -40 62 -67 62 -10 0 -31 -11 -46 -24z m75 -2 c12 -8 22 -24 22 -35 0
-16 -7 -19 -55 -19 -63 0 -72 15 -29 49 32 25 33 25 62 5z"/>
<path d="M1734 3278 c-45 -22 -58 -98 -23 -142 16 -20 29 -26 58 -26 52 0 81
32 81 89 0 71 -56 109 -116 79z m81 -23 c50 -49 22 -135 -43 -135 -93 0 -87
155 6 159 7 1 24 -10 37 -24z"/>
<path d="M2030 3275 c-11 -13 -15 -13 -21 -3 -5 7 -8 -27 -7 -77 l1 -90 6 73
c5 57 10 77 25 88 24 17 28 17 51 1 15 -12 18 -26 16 -85 -1 -44 2 -72 9 -72
6 0 10 25 10 59 0 33 3 67 6 75 10 26 41 38 64 26 17 -9 20 -21 20 -85 0 -43
4 -75 10 -75 6 0 10 30 10 70 0 57 -4 74 -20 90 -25 25 -52 25 -74 1 -17 -19
-18 -19 -37 0 -23 23 -52 25 -69 4z"/>
<path d="M2287 3213 c14 -38 28 -77 30 -88 7 -30 -14 -74 -39 -85 l-23 -9 22
0 c13 -1 27 8 33 20 27 50 97 229 90 229 -5 0 -22 -34 -38 -77 l-30 -76 -28
76 c-16 43 -32 77 -36 77 -4 0 5 -30 19 -67z"/>
<path d="M2684 3195 c0 -49 1 -71 3 -48 2 23 2 64 0 90 -2 26 -3 8 -3 -42z"/>
<path d="M2757 3239 c29 -44 29 -39 -15 -106 -8 -13 -10 -23 -5 -23 6 0 18 16
29 35 10 19 22 35 25 35 4 0 17 -16 28 -36 12 -20 24 -34 27 -31 3 3 -6 22
-20 43 -14 20 -22 42 -19 48 3 6 15 24 26 39 10 16 17 31 13 34 -3 3 -15 -11
-27 -31 -23 -40 -32 -39 -54 5 -9 16 -20 29 -25 29 -6 0 2 -18 17 -41z"/>
<path d="M128 2933 c6 -2 18 -2 25 0 6 3 1 5 -13 5 -14 0 -19 -2 -12 -5z"/>
<path d="M448 2933 c6 -2 18 -2 25 0 6 3 1 5 -13 5 -14 0 -19 -2 -12 -5z"/>
<path d="M1753 2895 c0 -27 2 -38 4 -22 2 15 2 37 0 50 -2 12 -4 0 -4 -28z"/>
<path d="M2970 2895 c0 -27 2 -46 4 -44 8 8 10 78 3 85 -4 4 -7 -14 -7 -41z"/>
<path d="M3033 2895 c0 -27 2 -38 4 -22 2 15 2 37 0 50 -2 12 -4 0 -4 -28z"/>
<path d="M3445 2933 c11 -3 24 -10 28 -17 6 -7 7 -6 4 4 -2 8 -14 16 -28 17
-19 1 -20 1 -4 -4z"/>
<path d="M3508 2933 c7 -3 16 -2 19 1 4 3 -2 6 -13 5 -11 0 -14 -3 -6 -6z"/>
<path d="M3566 2931 c-4 -5 3 -7 14 -4 23 6 26 13 6 13 -8 0 -17 -4 -20 -9z"/>
<path d="M3633 2933 c9 -2 23 -2 30 0 6 3 -1 5 -18 5 -16 0 -22 -2 -12 -5z"/>
<path d="M3748 2933 c7 -3 16 -2 19 1 4 3 -2 6 -13 5 -11 0 -14 -3 -6 -6z"/>
<path d="M4180 2895 c0 -27 2 -46 5 -44 7 8 9 78 2 85 -4 4 -7 -14 -7 -41z"/>
<path d="M4580 2933 c14 -3 32 -10 40 -16 13 -11 13 -10 1 6 -7 9 -25 16 -40
16 l-26 -2 25 -4z"/>
<path d="M4658 2933 c6 -2 18 -2 25 0 6 3 1 5 -13 5 -14 0 -19 -2 -12 -5z"/>
<path d="M1225 2920 c-3 -5 1 -10 10 -10 9 0 13 5 10 10 -3 6 -8 10 -10 10 -2
0 -7 -4 -10 -10z"/>
<path d="M1268 2913 c7 -3 16 -2 19 1 4 3 -2 6 -13 5 -11 0 -14 -3 -6 -6z"/>
<path d="M1578 2913 c7 -3 16 -2 19 1 4 3 -2 6 -13 5 -11 0 -14 -3 -6 -6z"/>
<path d="M1718 2913 c7 -3 16 -2 19 1 4 3 -2 6 -13 5 -11 0 -14 -3 -6 -6z"/>
<path d="M2120 2916 c0 -2 8 -10 18 -17 15 -13 16 -12 3 4 -13 16 -21 21 -21
13z"/>
<path d="M2448 2913 c7 -3 16 -2 19 1 4 3 -2 6 -13 5 -11 0 -14 -3 -6 -6z"/>
<path d="M5229 2903 c-13 -16 -12 -17 4 -4 16 13 21 21 13 21 -2 0 -10 -8 -17
-17z"/>
<path d="M222 2880 c0 -19 2 -27 5 -17 2 9 2 25 0 35 -3 9 -5 1 -5 -18z"/>
<path d="M252 2880 c0 -19 2 -27 5 -17 2 9 2 25 0 35 -3 9 -5 1 -5 -18z"/>
<path d="M270 2901 c0 -6 4 -13 10 -16 6 -3 7 1 4 9 -7 18 -14 21 -14 7z"/>
<path d="M1162 2880 c0 -19 2 -27 5 -17 2 9 2 25 0 35 -3 9 -5 1 -5 -18z"/>
<path d="M1552 2880 c0 -19 2 -27 5 -17 2 9 2 25 0 35 -3 9 -5 1 -5 -18z"/>
<path d="M2230 2901 c0 -6 4 -13 10 -16 6 -3 7 1 4 9 -7 18 -14 21 -14 7z"/>
<path d="M2802 2880 c0 -19 2 -27 5 -17 2 9 2 25 0 35 -3 9 -5 1 -5 -18z"/>
<path d="M2912 2885 c0 -16 2 -22 5 -12 2 9 2 23 0 30 -3 6 -5 -1 -5 -18z"/>
<path d="M3292 2880 c0 -19 2 -27 5 -17 2 9 2 25 0 35 -3 9 -5 1 -5 -18z"/>
<path d="M3853 2865 c0 -27 2 -38 4 -22 2 15 2 37 0 50 -2 12 -4 0 -4 -28z"/>
<path d="M3922 2880 c0 -19 2 -27 5 -17 2 9 2 25 0 35 -3 9 -5 1 -5 -18z"/>
<path d="M4812 2880 c0 -19 2 -27 5 -17 2 9 2 25 0 35 -3 9 -5 1 -5 -18z"/>
<path d="M4922 2880 c0 -19 2 -27 5 -17 2 9 2 25 0 35 -3 9 -5 1 -5 -18z"/>
<path d="M383 2893 c-13 -2 -23 -8 -23 -12 0 -5 11 -6 25 -3 14 2 25 8 25 13
0 5 -1 8 -2 8 -2 -1 -13 -4 -25 -6z"/>
<path d="M672 2875 c0 -16 2 -22 5 -12 2 9 2 23 0 30 -3 6 -5 -1 -5 -18z"/>
<path d="M930 2890 l-25 -8 28 -1 c15 -1 27 4 27 9 0 6 -1 10 -2 9 -2 -1 -14
-5 -28 -9z"/>
<path d="M1230 2881 c0 -11 4 -22 9 -25 4 -3 6 6 3 19 -5 30 -12 33 -12 6z"/>
<path d="M1320 2890 l-25 -8 28 -1 c15 -1 27 4 27 9 0 6 -1 10 -2 9 -2 -1 -14
-5 -28 -9z"/>
<path d="M2280 2889 c0 -5 11 -9 25 -9 14 0 25 2 25 4 0 2 -11 6 -25 8 -14 3
-25 1 -25 -3z"/>
<path d="M2642 2875 c0 -16 2 -22 5 -12 2 9 2 23 0 30 -3 6 -5 -1 -5 -18z"/>
<path d="M3220 2890 l-25 -8 28 -1 c15 -1 27 4 27 9 0 6 -1 10 -2 9 -2 -1 -14
-5 -28 -9z"/>
<path d="M3508 2893 c7 -3 16 -2 19 1 4 3 -2 6 -13 5 -11 0 -14 -3 -6 -6z"/>
<path d="M3748 2893 c7 -3 16 -2 19 1 4 3 -2 6 -13 5 -11 0 -14 -3 -6 -6z"/>
<path d="M4658 2893 c7 -3 16 -2 19 1 4 3 -2 6 -13 5 -11 0 -14 -3 -6 -6z"/>
<path d="M5341 2884 c0 -11 3 -14 6 -6 3 7 2 16 -1 19 -3 4 -6 -2 -5 -13z"/>
<path d="M5411 2884 c0 -11 3 -14 6 -6 3 7 2 16 -1 19 -3 4 -6 -2 -5 -13z"/>
<path d="M5480 2890 c0 -6 7 -10 15 -10 8 0 15 2 15 4 0 2 -7 6 -15 10 -8 3
-15 1 -15 -4z"/>
<path d="M612 2870 c0 -14 2 -19 5 -12 2 6 2 18 0 25 -3 6 -5 1 -5 -13z"/>
<path d="M634 2879 c-3 -6 -2 -15 3 -20 5 -5 9 -1 9 11 0 23 -2 24 -12 9z"/>
<path d="M863 2883 c9 -2 23 -2 30 0 6 3 -1 5 -18 5 -16 0 -22 -2 -12 -5z"/>
<path d="M1833 2883 c9 -2 23 -2 30 0 6 3 -1 5 -18 5 -16 0 -22 -2 -12 -5z"/>
<path d="M2553 2883 c9 -2 23 -2 30 0 6 3 -1 5 -18 5 -16 0 -22 -2 -12 -5z"/>
<path d="M2752 2870 c0 -14 2 -19 5 -12 2 6 2 18 0 25 -3 6 -5 1 -5 -13z"/>
<path d="M3810 2881 c0 -6 4 -13 10 -16 6 -3 7 1 4 9 -7 18 -14 21 -14 7z"/>
<path d="M3973 2883 c9 -2 23 -2 30 0 6 3 -1 5 -18 5 -16 0 -22 -2 -12 -5z"/>
<path d="M4690 2877 c0 -8 -10 -18 -22 -20 l-23 -4 23 -2 c22 -1 41 23 28 36
-3 4 -6 -1 -6 -10z"/>
<path d="M2600 2871 c0 -6 4 -13 10 -16 6 -3 7 1 4 9 -7 18 -14 21 -14 7z"/>
<path d="M4216 2867 c3 -10 9 -15 12 -12 3 3 0 11 -7 18 -10 9 -11 8 -5 -6z"/>
<path d="M5017 2863 c3 -7 6 -13 8 -13 2 0 5 6 8 13 3 8 -1 14 -8 14 -7 0 -11
-6 -8 -14z"/>
<path d="M285 2860 c-16 -7 -17 -9 -3 -9 9 -1 20 4 23 9 7 11 7 11 -20 0z"/>
<path d="M710 2860 c-9 -6 -10 -10 -3 -10 6 0 15 5 18 10 8 12 4 12 -15 0z"/>
<path d="M810 2860 c-9 -6 -10 -10 -3 -10 6 0 15 5 18 10 8 12 4 12 -15 0z"/>
<path d="M917 2859 c7 -7 15 -10 18 -7 3 3 -2 9 -12 12 -14 6 -15 5 -6 -5z"/>
<path d="M1307 2859 c7 -7 15 -10 18 -7 3 3 -2 9 -12 12 -14 6 -15 5 -6 -5z"/>
<path d="M1950 2860 c-9 -6 -10 -10 -3 -10 6 0 15 5 18 10 8 12 4 12 -15 0z"/>
<path d="M2168 2858 c5 -5 16 -8 23 -6 8 3 3 7 -10 11 -17 4 -21 3 -13 -5z"/>
<path d="M2245 2860 c-16 -7 -17 -9 -3 -9 9 -1 20 4 23 9 7 11 7 11 -20 0z"/>
<path d="M2288 2858 c5 -5 16 -8 23 -6 8 3 3 7 -10 11 -17 4 -21 3 -13 -5z"/>
<path d="M2388 2858 c5 -5 16 -8 23 -6 8 3 3 7 -10 11 -17 4 -21 3 -13 -5z"/>
<path d="M2547 2859 c7 -7 15 -10 18 -7 3 3 -2 9 -12 12 -14 6 -15 5 -6 -5z"/>
<path d="M4315 2860 c-16 -7 -17 -9 -3 -9 9 -1 20 4 23 9 7 11 7 11 -20 0z"/>
<path d="M4427 2859 c7 -7 15 -10 18 -7 3 3 -2 9 -12 12 -14 6 -15 5 -6 -5z"/>
<path d="M4498 2858 c5 -5 16 -8 23 -6 8 3 3 7 -10 11 -17 4 -21 3 -13 -5z"/>
<path d="M4585 2860 l-30 -8 27 -1 c15 0 30 4 33 9 3 6 5 9 3 9 -2 -1 -16 -5
-33 -9z"/>
<path d="M5115 2860 c-16 -7 -17 -9 -3 -9 9 -1 20 4 23 9 7 11 7 11 -20 0z"/>
<path d="M5450 2860 c-9 -6 -10 -10 -3 -10 6 0 15 5 18 10 8 12 4 12 -15 0z"/>
<path d="M5487 2859 c7 -7 15 -10 18 -7 3 3 -2 9 -12 12 -14 6 -15 5 -6 -5z"/>
<path d="M868 2853 c7 -3 16 -2 19 1 4 3 -2 6 -13 5 -11 0 -14 -3 -6 -6z"/>
<path d="M1838 2853 c7 -3 16 -2 19 1 4 3 -2 6 -13 5 -11 0 -14 -3 -6 -6z"/>
<path d="M3078 2853 c7 -3 16 -2 19 1 4 3 -2 6 -13 5 -11 0 -14 -3 -6 -6z"/>
<path d="M3218 2853 c7 -3 16 -2 19 1 4 3 -2 6 -13 5 -11 0 -14 -3 -6 -6z"/>
<path d="M3508 2853 c6 -2 18 -2 25 0 6 3 1 5 -13 5 -14 0 -19 -2 -12 -5z"/>
<path d="M3568 2853 c7 -3 16 -2 19 1 4 3 -2 6 -13 5 -11 0 -14 -3 -6 -6z"/>
<path d="M3748 2853 c7 -3 16 -2 19 1 4 3 -2 6 -13 5 -11 0 -14 -3 -6 -6z"/>
<path d="M3978 2853 c7 -3 16 -2 19 1 4 3 -2 6 -13 5 -11 0 -14 -3 -6 -6z"/>
<path d="M4028 2853 c7 -3 16 -2 19 1 4 3 -2 6 -13 5 -11 0 -14 -3 -6 -6z"/>
<path d="M4078 2853 c7 -3 16 -2 19 1 4 3 -2 6 -13 5 -11 0 -14 -3 -6 -6z"/>
<path d="M4445 2830 c-16 -7 -17 -9 -3 -9 9 -1 20 4 23 9 7 11 7 11 -20 0z"/>
<path d="M2878 2823 c7 -3 16 -2 19 1 4 3 -2 6 -13 5 -11 0 -14 -3 -6 -6z"/>
<path d="M5238 2823 c7 -3 16 -2 19 1 4 3 -2 6 -13 5 -11 0 -14 -3 -6 -6z"/>
<path d="M522 2453 c-5 -10 -6 -29 -1 -43 6 -21 7 -22 9 -5 1 11 3 30 4 43 3
27 0 28 -12 5z"/>
<path d="M117 2452 c6 -4 13 -21 16 -37 l4 -30 2 32 c0 17 7 34 14 36 6 3 -1
6 -18 6 -16 0 -25 -3 -18 -7z"/>
<path d="M171 2423 c1 -23 3 -29 6 -15 2 12 9 22 14 22 5 0 10 -10 10 -22 1
-19 2 -20 6 -5 3 11 -4 27 -16 38 l-21 20 1 -38z"/>
<path d="M883 2425 c0 -22 2 -30 4 -17 2 12 2 30 0 40 -3 9 -5 -1 -4 -23z"/>
<path d="M1350 2451 c0 -5 -8 -12 -17 -14 -17 -4 -17 -5 0 -6 9 0 17 -7 17
-15 0 -8 -8 -17 -17 -19 -14 -4 -12 -5 5 -6 19 -1 22 4 22 34 0 19 -2 35 -5
35 -3 0 -5 -4 -5 -9z"/>
<path d="M2503 2425 c0 -22 2 -30 4 -17 2 12 2 30 0 40 -3 9 -5 -1 -4 -23z"/>
<path d="M398 2445 c-7 -7 3 -55 11 -55 8 0 7 47 -1 55 -2 3 -7 3 -10 0z"/>
<path d="M2240 2427 c0 -14 4 -28 8 -31 9 -5 8 41 -1 51 -4 3 -7 -5 -7 -20z"/>
<path d="M224 2425 c-8 -19 3 -35 24 -34 14 0 13 2 -3 9 l-20 9 20 1 20 1 -20
8 -20 8 20 5 c17 5 17 6 2 7 -10 0 -20 -6 -23 -14z"/>
<path d="M332 2415 c0 -16 2 -22 5 -12 2 9 2 23 0 30 -3 6 -5 -1 -5 -18z"/>
<path d="M355 2431 c-3 -5 0 -13 6 -17 8 -4 7 -9 -2 -15 -11 -7 -10 -9 4 -9
19 0 23 15 6 26 -8 4 -7 9 2 15 10 6 10 9 2 9 -6 0 -14 -4 -18 -9z"/>
<path d="M460 2436 c0 -2 9 -6 20 -9 11 -3 18 -1 14 4 -5 9 -34 13 -34 5z"/>
<path d="M625 2431 l20 -8 -20 -5 c-18 -5 -17 -6 3 -7 29 -1 25 23 -4 26 -18
3 -18 2 1 -6z"/>
<path d="M665 2430 c-3 -6 1 -7 9 -4 18 7 21 14 7 14 -6 0 -13 -4 -16 -10z"/>
<path d="M710 2431 c0 -6 6 -8 14 -5 9 4 16 -3 19 -18 5 -22 5 -22 4 2 -2 24
-37 44 -37 21z"/>
<path d="M762 2415 c0 -16 2 -22 5 -12 2 9 2 23 0 30 -3 6 -5 -1 -5 -18z"/>
<path d="M826 2431 c-4 -5 3 -7 14 -4 23 6 26 13 6 13 -8 0 -17 -4 -20 -9z"/>
<path d="M904 2425 c-4 -9 -2 -21 4 -27 15 -15 44 -1 40 19 -4 23 -36 29 -44
8z m36 -10 c0 -8 -7 -15 -15 -15 -8 0 -15 7 -15 15 0 8 7 15 15 15 8 0 15 -7
15 -15z"/>
<path d="M964 2425 c-3 -8 -3 -19 1 -25 8 -13 35 -13 35 0 0 5 -7 7 -15 4 -10
-4 -15 0 -15 11 0 11 5 15 15 11 8 -3 15 -1 15 4 0 16 -30 12 -36 -5z"/>
<path d="M1022 2415 c0 -16 2 -22 5 -12 2 9 2 23 0 30 -3 6 -5 -1 -5 -18z"/>
<path d="M1044 2425 c-8 -19 3 -35 24 -34 14 0 13 2 -3 9 l-20 9 20 1 20 1
-20 8 -20 8 20 5 c17 5 17 6 2 7 -10 0 -20 -6 -23 -14z"/>
<path d="M1095 2430 c-3 -6 1 -13 10 -16 13 -6 14 -8 3 -15 -9 -6 -9 -9 -1 -9
20 0 26 20 8 26 -13 6 -14 8 -3 15 9 6 9 9 1 9 -6 0 -15 -5 -18 -10z"/>
<path d="M1202 2415 c0 -16 2 -22 5 -12 2 9 2 23 0 30 -3 6 -5 -1 -5 -18z"/>
<path d="M1225 2431 c-6 -11 13 -26 22 -17 4 3 0 6 -8 6 -11 0 -11 2 1 10 9 6
10 10 3 10 -6 0 -14 -4 -18 -9z"/>
<path d="M1264 2425 c-8 -19 3 -35 24 -34 14 0 13 2 -3 9 l-20 9 20 1 20 1
-20 8 -20 8 20 5 c17 5 17 6 2 7 -10 0 -20 -6 -23 -14z"/>
<path d="M1402 2415 c0 -16 2 -22 5 -12 2 9 2 23 0 30 -3 6 -5 -1 -5 -18z"/>
<path d="M1431 2413 c1 -23 2 -24 6 -5 2 12 8 22 13 22 5 0 11 -10 13 -22 5
-20 5 -20 4 2 -1 15 -9 26 -19 28 -14 3 -18 -3 -17 -25z"/>
<path d="M1550 2431 c0 -6 6 -8 14 -5 9 4 16 -3 19 -18 5 -22 5 -22 4 2 -2 24
-37 44 -37 21z"/>
<path d="M1602 2415 c0 -16 2 -22 5 -12 2 9 2 23 0 30 -3 6 -5 -1 -5 -18z"/>
<path d="M1638 2433 c7 -3 16 -2 19 1 4 3 -2 6 -13 5 -11 0 -14 -3 -6 -6z"/>
<path d="M1715 2430 c19 -8 19 -9 -3 -9 -28 -1 -25 -25 4 -28 18 -3 18 -3 0 5
-19 8 -19 9 3 15 25 6 20 27 -7 26 -14 0 -13 -2 3 -9z"/>
<path d="M1770 2431 c0 -7 -4 -10 -8 -7 -5 3 -9 -2 -9 -10 0 -13 2 -13 16 0 8
9 12 19 8 22 -4 4 -7 2 -7 -5z"/>
<path d="M1794 2425 c-8 -19 3 -35 24 -34 14 0 13 2 -3 9 l-20 9 20 1 20 1
-20 8 -20 8 20 5 c17 5 17 6 2 7 -10 0 -20 -6 -23 -14z"/>
<path d="M1852 2415 c0 -16 2 -22 5 -12 2 9 2 23 0 30 -3 6 -5 -1 -5 -18z"/>
<path d="M1884 2425 c-7 -17 3 -35 19 -34 9 0 9 2 0 6 -19 7 -16 31 5 36 16 4
16 5 -1 6 -10 0 -20 -6 -23 -14z"/>
<path d="M1932 2415 c0 -16 2 -22 5 -12 2 9 2 23 0 30 -3 6 -5 -1 -5 -18z"/>
<path d="M1955 2431 c-3 -5 0 -13 6 -17 7 -4 9 -3 5 4 -3 5 0 13 6 15 9 4 10
6 1 6 -6 1 -14 -3 -18 -8z"/>
<path d="M1994 2425 c-8 -19 3 -35 24 -34 14 0 13 2 -3 9 l-20 9 20 1 20 1
-20 8 -20 8 20 5 c17 5 17 6 2 7 -10 0 -20 -6 -23 -14z"/>
<path d="M2088 2431 c11 -7 10 -9 -3 -15 -19 -7 -11 -26 11 -26 8 0 14 10 14
25 0 17 -5 25 -17 25 -14 0 -15 -2 -5 -9z"/>
<path d="M2130 2429 c0 -5 5 -7 10 -4 6 3 10 8 10 11 0 2 -4 4 -10 4 -5 0 -10
-5 -10 -11z"/>
<path d="M2164 2426 c-7 -18 3 -36 19 -36 7 0 6 4 -3 10 -13 8 -12 10 3 10 10
0 17 5 15 12 -7 19 -27 21 -34 4z"/>
<path d="M2334 2426 c-7 -18 3 -36 19 -36 7 0 6 4 -3 10 -13 8 -12 10 3 10 10
0 17 5 15 12 -7 19 -27 21 -34 4z"/>
<path d="M2444 2425 c-4 -9 -2 -21 4 -27 15 -15 44 -1 40 19 -4 23 -36 29 -44
8z m36 -10 c0 -8 -7 -15 -15 -15 -8 0 -15 7 -15 15 0 8 7 15 15 15 8 0 15 -7
15 -15z"/>
<path d="M2556 2431 c-4 -5 3 -7 14 -4 23 6 26 13 6 13 -8 0 -17 -4 -20 -9z"/>
<path d="M2630 2434 c0 -5 7 -18 15 -28 8 -11 15 -16 15 -10 0 5 -7 18 -15 28
-8 11 -15 16 -15 10z"/>
<path d="M2682 2415 c0 -16 2 -22 5 -12 2 9 2 23 0 30 -3 6 -5 -1 -5 -18z"/>
<path d="M2722 2434 c9 -3 19 -15 22 -27 4 -18 4 -18 3 3 -1 17 -8 25 -22 27
-14 1 -15 0 -3 -3z"/>
<path d="M2766 2431 c-4 -5 3 -7 14 -4 23 6 26 13 6 13 -8 0 -17 -4 -20 -9z"/>
<path d="M801 2404 c0 -11 3 -14 6 -6 3 7 2 16 -1 19 -3 4 -6 -2 -5 -13z"/>
<path d="M1639 2412 c9 -7 10 -11 2 -15 -7 -4 -8 -5 0 -3 15 2 13 20 -3 24
-10 3 -10 2 1 -6z"/>
<path d="M2311 2404 c0 -11 3 -14 6 -6 3 7 2 16 -1 19 -3 4 -6 -2 -5 -13z"/>
<path d="M2411 2404 c0 -11 3 -14 6 -6 3 7 2 16 -1 19 -3 4 -6 -2 -5 -13z"/>
<path d="M2610 2411 c0 -5 5 -13 10 -16 6 -3 10 -2 10 4 0 5 -4 13 -10 16 -5
3 -10 2 -10 -4z"/>
<path d="M475 2400 c-16 -7 -17 -9 -3 -9 9 -1 20 4 23 9 7 11 7 11 -20 0z"/>
<path d="M667 2399 c7 -7 15 -10 18 -7 3 3 -2 9 -12 12 -14 6 -15 5 -6 -5z"/>
<path d="M828 2398 c5 -5 16 -8 23 -6 8 3 3 7 -10 11 -17 4 -21 3 -13 -5z"/>
<path d="M2558 2398 c5 -5 16 -8 23 -6 8 3 3 7 -10 11 -17 4 -21 3 -13 -5z"/>
<path d="M2768 2398 c5 -5 16 -8 23 -6 8 3 3 7 -10 11 -17 4 -21 3 -13 -5z"/>
<path d="M618 2393 c7 -3 16 -2 19 1 4 3 -2 6 -13 5 -11 0 -14 -3 -6 -6z"/>
<path d="M1228 2393 c7 -3 16 -2 19 1 4 3 -2 6 -13 5 -11 0 -14 -3 -6 -6z"/>
<path d="M1958 2393 c7 -3 16 -2 19 1 4 3 -2 6 -13 5 -11 0 -14 -3 -6 -6z"/>
<path d="M440 2101 c0 -13 -8 -21 -22 -23 -17 -2 -23 -10 -23 -28 0 -20 5 -25
28 -26 26 -1 27 1 27 47 0 27 -2 49 -5 49 -3 0 -5 -9 -5 -19z m0 -45 c0 -8 -5
-18 -11 -22 -14 -8 -33 11 -25 25 10 16 36 13 36 -3z"/>
<path d="M232 2065 c1 -39 2 -43 5 -15 l5 34 19 -24 c10 -14 19 -20 19 -15 0
6 -11 24 -25 40 l-24 30 1 -50z"/>
<path d="M289 2070 c-6 -45 -4 -58 7 -48 3 3 4 26 2 49 l-3 44 -6 -45z"/>
<path d="M480 2075 c-18 -22 -8 -50 20 -52 l25 -3 -25 12 c-25 11 -25 11 -2
15 12 3 22 10 22 18 0 19 -27 26 -40 10z m25 -5 c3 -5 -1 -10 -10 -10 -9 0
-13 5 -10 10 3 6 8 10 10 10 2 0 7 -4 10 -10z"/>
<path d="M572 2055 c-1 -23 -7 -46 -14 -53 -9 -9 -9 -12 0 -12 18 0 24 22 19
66 l-4 39 -1 -40z"/>
<path d="M320 2055 c0 -31 26 -43 47 -22 21 21 9 47 -22 47 -20 0 -25 -5 -25
-25z m45 -5 c0 -22 -29 -18 -33 3 -3 14 1 18 15 15 10 -2 18 -10 18 -18z"/>
<path d="M600 2066 c0 -8 8 -17 18 -21 16 -7 15 -8 -3 -15 -16 -7 -17 -9 -3
-9 25 -1 34 20 14 35 -16 12 -16 13 1 17 14 4 14 5 -4 6 -14 1 -23 -5 -23 -13z"/>
<path d="M229 1868 c-3 -22 -1 -34 4 -29 5 5 7 21 5 37 -3 27 -4 26 -9 -8z"/>
<path d="M1405 1889 c-4 -6 -5 -12 -2 -15 2 -3 7 2 10 11 7 17 1 20 -8 4z"/>
<path d="M1438 1893 c7 -3 16 -2 19 1 4 3 -2 6 -13 5 -11 0 -14 -3 -6 -6z"/>
<path d="M1516 1891 c-3 -4 6 -6 19 -3 14 2 25 6 25 8 0 8 -39 4 -44 -5z"/>
<path d="M1573 1865 c0 -22 2 -30 4 -17 2 12 2 30 0 40 -3 9 -5 -1 -4 -23z"/>
<path d="M1160 1867 c0 -14 4 -28 8 -31 9 -5 8 41 -1 51 -4 3 -7 -5 -7 -20z"/>
<path d="M268 1873 c7 -3 16 -2 19 1 4 3 -2 6 -13 5 -11 0 -14 -3 -6 -6z"/>
<path d="M333 1867 c-3 -5 -2 -11 1 -14 3 -4 6 -1 6 5 0 9 5 9 20 0 14 -9 16
-14 7 -20 -9 -6 -9 -8 0 -8 20 0 26 20 8 26 -13 5 -14 8 -3 15 8 5 5 8 -10 6
-13 -1 -26 -5 -29 -10z"/>
<path d="M405 1870 c-3 -6 1 -7 9 -4 18 7 21 14 7 14 -6 0 -13 -4 -16 -10z"/>
<path d="M482 1855 c0 -16 2 -22 5 -12 2 9 2 23 0 30 -3 6 -5 -1 -5 -18z"/>
<path d="M530 1873 c15 -7 12 -31 -5 -36 -11 -4 -10 -4 2 -3 21 2 25 38 5 42
-7 1 -8 0 -2 -3z"/>
<path d="M664 1855 c1 -11 9 -21 19 -23 13 -3 17 3 16 25 -1 23 -2 24 -6 6 -5
-27 -20 -30 -26 -5 -3 13 -4 12 -3 -3z"/>
<path d="M720 1871 c0 -6 6 -8 14 -5 9 4 16 -3 19 -18 5 -22 5 -22 4 2 -2 24
-37 44 -37 21z"/>
<path d="M832 1855 c0 -16 2 -22 5 -12 2 9 2 23 0 30 -3 6 -5 -1 -5 -18z"/>
<path d="M858 1853 c5 -21 7 -23 10 -9 2 10 0 22 -6 28 -6 6 -7 0 -4 -19z"/>
<path d="M888 1855 c2 -14 6 -25 8 -25 2 0 4 11 4 25 0 14 -4 25 -9 25 -4 0
-6 -11 -3 -25z"/>
<path d="M914 1865 c-8 -19 3 -35 24 -34 14 0 14 2 -2 8 -19 7 -19 8 3 14 13
3 20 10 16 16 -9 16 -35 13 -41 -4z m33 -1 c-3 -3 -12 -4 -19 -1 -8 3 -5 6 6
6 11 1 17 -2 13 -5z"/>
<path d="M1005 1871 c-3 -7 0 -8 9 -5 11 4 16 0 16 -11 0 -11 -5 -15 -15 -11
-8 3 -15 1 -15 -5 0 -6 8 -9 18 -7 9 2 17 12 17 22 0 22 -20 33 -30 17z"/>
<path d="M1092 1855 c0 -16 2 -22 5 -12 2 9 2 23 0 30 -3 6 -5 -1 -5 -18z"/>
<path d="M1112 1855 c0 -16 2 -22 5 -12 2 9 2 23 0 30 -3 6 -5 -1 -5 -18z"/>
<path d="M1224 1865 c-4 -9 -2 -21 4 -27 15 -15 44 -1 40 19 -4 23 -36 29 -44
8z m36 -10 c0 -8 -7 -15 -15 -15 -8 0 -15 7 -15 15 0 8 7 15 15 15 8 0 15 -7
15 -15z"/>
<path d="M1282 1855 c0 -16 2 -22 5 -12 2 9 2 23 0 30 -3 6 -5 -1 -5 -18z"/>
<path d="M1308 1855 c2 -14 6 -25 8 -25 2 0 4 11 4 25 0 14 -4 25 -9 25 -4 0
-6 -11 -3 -25z"/>
<path d="M1426 1863 c-8 -21 8 -38 28 -30 22 8 20 24 -3 36 -15 8 -20 7 -25
-6z m34 -13 c0 -5 -7 -10 -15 -10 -8 0 -15 5 -15 10 0 6 7 10 15 10 8 0 15 -4
15 -10z"/>
<path d="M1598 1855 c2 -14 6 -25 8 -25 2 0 4 11 4 25 0 14 -4 25 -9 25 -4 0
-6 -11 -3 -25z"/>
<path d="M1630 1869 c0 -5 5 -7 10 -4 6 3 10 8 10 11 0 2 -4 4 -10 4 -5 0 -10
-5 -10 -11z"/>
<path d="M1664 1865 c-4 -9 -2 -21 4 -27 15 -15 44 -1 40 19 -4 23 -36 29 -44
8z m36 -10 c0 -8 -7 -15 -15 -15 -8 0 -15 7 -15 15 0 8 7 15 15 15 8 0 15 -7
15 -15z"/>
<path d="M1722 1855 c0 -16 2 -22 5 -12 2 9 2 23 0 30 -3 6 -5 -1 -5 -18z"/>
<path d="M1748 1853 c5 -21 7 -23 10 -9 2 10 0 22 -6 28 -6 6 -7 0 -4 -19z"/>
<path d="M1778 1855 c2 -14 6 -25 8 -25 2 0 4 11 4 25 0 14 -4 25 -9 25 -4 0
-6 -11 -3 -25z"/>
<path d="M1804 1865 c-8 -19 3 -35 24 -34 14 0 13 2 -3 9 l-20 9 20 1 20 1
-20 8 -20 8 20 5 c17 5 17 6 2 7 -10 0 -20 -6 -23 -14z"/>
<path d="M1884 1865 c-8 -19 3 -35 24 -34 14 0 13 2 -3 9 l-20 9 20 1 20 1
-20 8 -20 8 20 5 c17 5 17 6 2 7 -10 0 -20 -6 -23 -14z"/>
<path d="M1942 1855 c0 -16 2 -22 5 -12 2 9 2 23 0 30 -3 6 -5 -1 -5 -18z"/>
<path d="M1968 1853 c5 -21 7 -23 10 -9 2 10 0 22 -6 28 -6 6 -7 0 -4 -19z"/>
<path d="M1994 1865 c-7 -17 3 -35 19 -34 9 0 9 2 0 6 -18 7 -16 33 2 33 18 0
20 -40 3 -60 -11 -12 -10 -12 5 -1 9 7 17 26 17 42 0 22 -5 29 -20 29 -11 0
-23 -7 -26 -15z"/>
<path d="M2052 1855 c0 -16 2 -22 5 -12 2 9 2 23 0 30 -3 6 -5 -1 -5 -18z"/>
<path d="M2082 1855 c0 -16 2 -22 5 -12 2 9 2 23 0 30 -3 6 -5 -1 -5 -18z"/>
<path d="M2108 1853 c5 -21 7 -23 10 -9 2 10 0 22 -6 28 -6 6 -7 0 -4 -19z"/>
<path d="M2134 1865 c-8 -19 3 -35 24 -34 14 0 13 2 -3 9 l-20 9 20 1 20 1
-20 8 -20 8 20 5 c17 5 17 6 2 7 -10 0 -20 -6 -23 -14z"/>
<path d="M1377 1852 c1 -8 3 -16 3 -18 0 -3 5 -2 10 1 6 3 10 11 10 16 0 6 -4
8 -9 5 -5 -4 -11 -3 -14 1 -2 5 -2 2 0 -5z"/>
<path d="M255 1850 c-7 -11 22 -26 32 -16 4 3 -2 6 -13 7 -18 0 -18 1 1 9 16
7 17 9 3 9 -9 1 -20 -4 -23 -9z"/>
<path d="M310 1851 c0 -6 4 -13 10 -16 6 -3 7 1 4 9 -7 18 -14 21 -14 7z"/>
<path d="M407 1839 c7 -7 15 -10 18 -7 3 3 -2 9 -12 12 -14 6 -15 5 -6 -5z"/>
<path d="M1518 1838 c6 -6 18 -8 28 -6 14 3 12 5 -9 10 -19 3 -25 2 -19 -4z"/>
<path d="M231 1433 c1 -37 3 -42 8 -23 l7 25 15 -22 c7 -13 17 -23 22 -23 4 0
5 6 0 12 -4 7 -7 26 -8 43 0 23 -5 31 -22 33 -21 3 -23 0 -22 -45z m37 19 c2
-7 -3 -12 -12 -12 -9 0 -16 7 -16 16 0 17 22 14 28 -4z"/>
<path d="M300 1435 c0 -43 1 -45 28 -44 16 1 20 3 10 6 -10 2 -18 11 -18 18 0
7 8 16 18 18 16 4 16 5 0 6 -10 0 -18 7 -18 15 0 8 8 17 18 19 10 3 6 5 -10 6
-27 1 -28 -1 -28 -44z"/>
<path d="M371 1466 c-9 -11 -6 -18 16 -34 l28 -21 -25 -10 c-25 -10 -25 -10
-2 -10 32 -1 41 29 14 47 -27 17 -28 29 -4 35 14 4 14 5 1 6 -9 0 -22 -5 -28
-13z"/>
<path d="M438 1473 c7 -2 12 -22 12 -44 0 -21 5 -39 10 -39 6 0 10 18 10 39 0
22 5 42 13 44 6 3 -4 5 -23 5 -19 0 -29 -2 -22 -5z"/>
<path d="M227 1293 c-4 -3 -7 -20 -7 -37 0 -23 3 -27 9 -17 8 13 12 13 28 0
16 -13 17 -12 5 3 -9 11 -10 18 -2 23 8 5 8 11 -1 21 -13 15 -22 18 -32 7z
m25 -18 c0 -5 -5 -11 -11 -13 -6 -2 -11 4 -11 13 0 9 5 15 11 13 6 -2 11 -8
11 -13z"/>
<path d="M284 1286 c-9 -24 0 -61 16 -62 9 0 10 1 3 3 -7 3 -13 11 -13 19 0 8
6 14 13 14 8 0 7 4 -3 10 -13 9 -13 11 0 20 11 7 11 10 2 10 -7 0 -15 -6 -18
-14z"/>
<path d="M387 1292 c6 -4 13 -21 15 -37 4 -30 4 -30 9 6 4 30 2 35 -16 37 -11
0 -15 -2 -8 -6z"/>
<path d="M1267 1293 c-4 -3 -7 -19 -7 -35 0 -24 2 -27 14 -16 9 8 10 15 3 19
-5 4 -7 14 -4 23 7 17 5 20 -6 9z"/>
<path d="M1320 1290 c0 -5 7 -7 15 -4 8 4 15 8 15 10 0 2 -7 4 -15 4 -8 0 -15
-4 -15 -10z"/>
<path d="M1973 1265 c0 -22 2 -30 4 -17 2 12 2 30 0 40 -3 9 -5 -1 -4 -23z"/>
<path d="M2031 1286 c-9 -11 -9 -16 0 -22 7 -4 9 -3 5 4 -3 6 2 15 11 21 10 6
13 11 7 11 -6 0 -17 -6 -23 -14z"/>
<path d="M2270 1295 c0 -7 30 -13 34 -7 3 4 -4 9 -15 9 -10 1 -19 0 -19 -2z"/>
<path d="M2792 1287 c-1 -10 -6 -16 -11 -13 -5 3 -14 -1 -22 -10 -10 -12 -10
-18 2 -29 22 -22 41 -3 36 36 -2 19 -5 26 -5 16z m-7 -47 c-5 -8 -11 -8 -17
-2 -6 6 -7 16 -3 22 5 8 11 8 17 2 6 -6 7 -16 3 -22z"/>
<path d="M3784 1286 c-3 -8 -4 -25 -2 -38 3 -17 5 -13 9 15 5 38 2 47 -7 23z"/>
<path d="M4863 1265 c0 -22 2 -30 4 -17 2 12 2 30 0 40 -3 9 -5 -1 -4 -23z"/>
<path d="M330 1284 c0 -3 9 -17 20 -31 11 -14 20 -21 20 -14 0 6 -9 20 -20 31
-11 11 -20 17 -20 14z"/>
<path d="M1750 1262 c0 -17 3 -33 8 -35 9 -6 8 50 -1 60 -4 3 -7 -8 -7 -25z"/>
<path d="M2160 1262 c0 -17 3 -33 8 -35 9 -6 8 50 -1 60 -4 3 -7 -8 -7 -25z"/>
<path d="M3190 1262 c0 -17 3 -33 8 -35 9 -6 8 50 -1 60 -4 3 -7 -8 -7 -25z"/>
<path d="M495 1269 c-4 -6 -5 -12 -2 -15 2 -3 7 2 10 11 7 17 1 20 -8 4z"/>
<path d="M718 1253 c5 -21 7 -23 10 -9 2 10 0 22 -6 28 -6 6 -7 0 -4 -19z"/>
<path d="M750 1264 c-11 -12 -10 -18 5 -32 18 -16 18 -16 6 1 -11 14 -11 20
-1 32 7 8 10 15 7 15 -2 0 -10 -7 -17 -16z"/>
<path d="M830 1264 c-11 -12 -10 -18 5 -32 18 -16 18 -16 6 1 -11 14 -11 20
-1 32 7 8 10 15 7 15 -2 0 -10 -7 -17 -16z"/>
<path d="M1018 1253 c5 -21 7 -23 10 -9 2 10 0 22 -6 28 -6 6 -7 0 -4 -19z"/>
<path d="M1048 1253 c5 -21 7 -23 10 -9 2 10 0 22 -6 28 -6 6 -7 0 -4 -19z"/>
<path d="M1140 1264 c-11 -12 -10 -18 5 -32 18 -16 18 -16 6 1 -11 14 -11 20
-1 32 7 8 10 15 7 15 -2 0 -10 -7 -17 -16z"/>
<path d="M1398 1253 c5 -21 7 -23 10 -9 2 10 0 22 -6 28 -6 6 -7 0 -4 -19z"/>
<path d="M1560 1265 c-11 -13 -10 -18 3 -31 9 -8 13 -9 8 -3 -5 6 -7 18 -4 26
5 12 7 12 14 2 4 -8 11 -11 14 -8 3 4 -1 11 -8 18 -11 9 -17 8 -27 -4z"/>
<path d="M1704 1269 c-4 -7 -3 -9 4 -5 5 3 13 0 15 -6 4 -9 6 -10 6 -1 1 17
-16 25 -25 12z"/>
<path d="M1810 1264 c-11 -12 -10 -18 5 -32 18 -16 18 -16 6 1 -11 14 -11 20
-1 32 7 8 10 15 7 15 -2 0 -10 -7 -17 -16z"/>
<path d="M2114 1269 c-4 -7 -3 -9 4 -5 5 3 13 0 15 -6 4 -9 6 -10 6 -1 1 17
-16 25 -25 12z"/>
<path d="M2216 1267 c3 -10 9 -15 12 -12 3 3 0 11 -7 18 -10 9 -11 8 -5 -6z"/>
<path d="M2464 1269 c-3 -6 1 -18 10 -27 10 -11 16 -12 16 -4 0 7 -5 12 -11
12 -6 0 -9 7 -5 15 6 17 0 20 -10 4z"/>
<path d="M2500 1255 c0 -14 2 -25 4 -25 2 0 6 11 8 25 3 14 1 25 -3 25 -5 0
-9 -11 -9 -25z"/>
<path d="M2556 1267 c3 -10 9 -15 12 -12 3 3 0 11 -7 18 -10 9 -11 8 -5 -6z"/>
<path d="M2666 1267 c3 -10 9 -15 12 -12 3 3 0 11 -7 18 -10 9 -11 8 -5 -6z"/>
<path d="M2728 1253 c5 -21 7 -23 10 -9 2 10 0 22 -6 28 -6 6 -7 0 -4 -19z"/>
<path d="M2903 1273 c-7 -2 -13 -14 -12 -26 0 -22 0 -22 10 1 5 14 13 20 20
16 8 -4 9 -3 5 4 -4 7 -8 12 -9 11 -1 0 -8 -3 -14 -6z"/>
<path d="M2996 1267 c3 -10 9 -15 12 -12 3 3 0 11 -7 18 -10 9 -11 8 -5 -6z"/>
<path d="M3138 1253 c5 -21 7 -23 10 -9 2 10 0 22 -6 28 -6 6 -7 0 -4 -19z"/>
<path d="M3246 1267 c3 -10 9 -15 12 -12 3 3 0 11 -7 18 -10 9 -11 8 -5 -6z"/>
<path d="M3280 1264 c-11 -12 -10 -18 5 -32 18 -16 18 -16 6 1 -11 14 -11 20
-1 32 7 8 10 15 7 15 -2 0 -10 -7 -17 -16z"/>
<path d="M3320 1269 c0 -5 5 -7 10 -4 6 3 10 8 10 11 0 2 -4 4 -10 4 -5 0 -10
-5 -10 -11z"/>
<path d="M3466 1267 c3 -10 9 -15 12 -12 3 3 0 11 -7 18 -10 9 -11 8 -5 -6z"/>
<path d="M3555 1269 c-4 -6 -5 -12 -2 -15 2 -3 7 2 10 11 7 17 1 20 -8 4z"/>
<path d="M3590 1269 c0 -5 5 -7 10 -4 6 3 10 8 10 11 0 2 -4 4 -10 4 -5 0 -10
-5 -10 -11z"/>
<path d="M3705 1269 c-4 -6 -5 -12 -2 -15 2 -3 7 2 10 11 7 17 1 20 -8 4z"/>
<path d="M4055 1270 c3 -5 8 -10 11 -10 2 0 4 5 4 10 0 6 -5 10 -11 10 -5 0
-7 -4 -4 -10z"/>
<path d="M4265 1270 c3 -5 8 -10 11 -10 2 0 4 5 4 10 0 6 -5 10 -11 10 -5 0
-7 -4 -4 -10z"/>
<path d="M4305 1269 c-4 -6 -5 -12 -2 -15 2 -3 7 2 10 11 7 17 1 20 -8 4z"/>
<path d="M4796 1267 c3 -10 9 -15 12 -12 3 3 0 11 -7 18 -10 9 -11 8 -5 -6z"/>
<path d="M4830 1264 c-11 -12 -10 -18 5 -32 18 -16 18 -16 6 1 -11 14 -11 20
-1 32 7 8 10 15 7 15 -2 0 -10 -7 -17 -16z"/>
<path d="M4926 1267 c3 -10 9 -15 12 -12 3 3 0 11 -7 18 -10 9 -11 8 -5 -6z"/>
<path d="M5084 1269 c-3 -6 1 -18 10 -27 10 -11 16 -12 16 -4 0 7 -5 12 -11
12 -6 0 -9 7 -5 15 6 17 0 20 -10 4z"/>
<path d="M5120 1269 c0 -5 5 -7 10 -4 6 3 10 8 10 11 0 2 -4 4 -10 4 -5 0 -10
-5 -10 -11z"/>
<path d="M5160 1265 c-11 -13 -10 -18 3 -31 9 -8 13 -9 8 -3 -5 6 -7 18 -4 26
5 12 7 12 14 2 4 -8 11 -11 14 -8 3 4 -1 11 -8 18 -11 9 -17 8 -27 -4z"/>
<path d="M612 1250 c0 -14 2 -19 5 -12 2 6 2 18 0 25 -3 6 -5 1 -5 -13z"/>
<path d="M792 1250 c0 -14 2 -19 5 -12 2 6 2 18 0 25 -3 6 -5 1 -5 -13z"/>
<path d="M862 1250 c0 -14 2 -19 5 -12 2 6 2 18 0 25 -3 6 -5 1 -5 -13z"/>
<path d="M992 1250 c0 -14 2 -19 5 -12 2 6 2 18 0 25 -3 6 -5 1 -5 -13z"/>
<path d="M1172 1250 c0 -14 2 -19 5 -12 2 6 2 18 0 25 -3 6 -5 1 -5 -13z"/>
<path d="M1192 1250 c0 -14 2 -19 5 -12 2 6 2 18 0 25 -3 6 -5 1 -5 -13z"/>
<path d="M1328 1263 c7 -3 16 -2 19 1 4 3 -2 6 -13 5 -11 0 -14 -3 -6 -6z"/>
<path d="M1462 1250 c0 -14 2 -19 5 -12 2 6 2 18 0 25 -3 6 -5 1 -5 -13z"/>
<path d="M1642 1250 c0 -14 2 -19 5 -12 2 6 2 18 0 25 -3 6 -5 1 -5 -13z"/>
<path d="M1782 1250 c0 -14 2 -19 5 -12 2 6 2 18 0 25 -3 6 -5 1 -5 -13z"/>
<path d="M1842 1250 c0 -14 2 -19 5 -12 2 6 2 18 0 25 -3 6 -5 1 -5 -13z"/>
<path d="M1902 1250 c0 -14 2 -19 5 -12 2 6 2 18 0 25 -3 6 -5 1 -5 -13z"/>
<path d="M1952 1250 c0 -14 2 -19 5 -12 2 6 2 18 0 25 -3 6 -5 1 -5 -13z"/>
<path d="M2382 1250 c0 -14 2 -19 5 -12 2 6 2 18 0 25 -3 6 -5 1 -5 -13z"/>
<path d="M2402 1250 c0 -14 2 -19 5 -12 2 6 2 18 0 25 -3 6 -5 1 -5 -13z"/>
<path d="M2532 1250 c0 -14 2 -19 5 -12 2 6 2 18 0 25 -3 6 -5 1 -5 -13z"/>
<path d="M2702 1250 c0 -14 2 -19 5 -12 2 6 2 18 0 25 -3 6 -5 1 -5 -13z"/>
<path d="M2872 1250 c0 -14 2 -19 5 -12 2 6 2 18 0 25 -3 6 -5 1 -5 -13z"/>
<path d="M3062 1250 c0 -14 2 -19 5 -12 2 6 2 18 0 25 -3 6 -5 1 -5 -13z"/>
<path d="M3222 1250 c0 -14 2 -19 5 -12 2 6 2 18 0 25 -3 6 -5 1 -5 -13z"/>
<path d="M3412 1250 c0 -14 2 -19 5 -12 2 6 2 18 0 25 -3 6 -5 1 -5 -13z"/>
<path d="M3992 1250 c0 -14 2 -19 5 -12 2 6 2 18 0 25 -3 6 -5 1 -5 -13z"/>
<path d="M4092 1250 c0 -14 2 -19 5 -12 2 6 2 18 0 25 -3 6 -5 1 -5 -13z"/>
<path d="M4152 1250 c0 -14 2 -19 5 -12 2 6 2 18 0 25 -3 6 -5 1 -5 -13z"/>
<path d="M4242 1250 c0 -14 2 -19 5 -12 2 6 2 18 0 25 -3 6 -5 1 -5 -13z"/>
<path d="M4352 1250 c0 -14 2 -19 5 -12 2 6 2 18 0 25 -3 6 -5 1 -5 -13z"/>
<path d="M4472 1250 c0 -14 2 -19 5 -12 2 6 2 18 0 25 -3 6 -5 1 -5 -13z"/>
<path d="M4541 1233 c0 -31 2 -34 9 -18 5 11 9 16 9 11 1 -12 31 14 31 27 0 6
-6 3 -13 -8 -10 -12 -16 -14 -21 -7 -4 7 -4 17 -1 22 3 6 1 10 -4 10 -6 0 -11
-17 -10 -37z"/>
<path d="M4602 1250 c0 -14 2 -19 5 -12 2 6 2 18 0 25 -3 6 -5 1 -5 -13z"/>
<path d="M4652 1250 c0 -14 2 -19 5 -12 2 6 2 18 0 25 -3 6 -5 1 -5 -13z"/>
<path d="M4722 1250 c0 -14 2 -19 5 -12 2 6 2 18 0 25 -3 6 -5 1 -5 -13z"/>
<path d="M4752 1250 c0 -14 2 -19 5 -12 2 6 2 18 0 25 -3 6 -5 1 -5 -13z"/>
<path d="M5212 1250 c0 -14 2 -19 5 -12 2 6 2 18 0 25 -3 6 -5 1 -5 -13z"/>
<path d="M5242 1250 c0 -14 2 -19 5 -12 2 6 2 18 0 25 -3 6 -5 1 -5 -13z"/>
<path d="M5272 1250 c0 -14 2 -19 5 -12 2 6 2 18 0 25 -3 6 -5 1 -5 -13z"/>
<path d="M5290 1262 c0 -7 5 -12 11 -12 6 0 8 -7 4 -17 -5 -15 -4 -16 6 -5 11
10 10 15 -4 29 -11 11 -17 13 -17 5z"/>
<path d="M5432 1250 c0 -14 2 -19 5 -12 2 6 2 18 0 25 -3 6 -5 1 -5 -13z"/>
<path d="M5473 1263 c-17 -6 -17 -20 0 -26 8 -3 13 3 13 14 0 11 0 19 -1 18 0
0 -6 -3 -12 -6z"/>
<path d="M585 1251 c3 -5 1 -12 -5 -16 -5 -3 -10 -1 -10 6 0 7 -3 10 -6 6 -11
-10 6 -26 21 -20 17 6 20 33 4 33 -5 0 -8 -4 -4 -9z"/>
<path d="M921 1244 c0 -11 3 -14 6 -6 3 7 2 16 -1 19 -3 4 -6 -2 -5 -13z"/>
<path d="M2191 1244 c0 -11 3 -14 6 -6 3 7 2 16 -1 19 -3 4 -6 -2 -5 -13z"/>
<path d="M4771 1244 c0 -11 3 -14 6 -6 3 7 2 16 -1 19 -3 4 -6 -2 -5 -13z"/>
<path d="M4990 1256 c0 -2 7 -9 15 -16 9 -7 15 -8 15 -2 0 5 -7 12 -15 16 -8
3 -15 4 -15 2z"/>
<path d="M506 1233 c-6 -14 -5 -15 5 -6 7 7 10 15 7 18 -3 3 -9 -2 -12 -12z"/>
<path d="M690 1241 c0 -6 4 -13 10 -16 6 -3 7 1 4 9 -7 18 -14 21 -14 7z"/>
<path d="M953 1233 c-3 -10 -8 -22 -11 -27 -3 -5 0 -6 5 -3 11 7 25 47 17 47
-3 0 -7 -8 -11 -17z"/>
<path d="M1526 1233 c-6 -14 -5 -15 5 -6 7 7 10 15 7 18 -3 3 -9 -2 -12 -12z"/>
<path d="M1920 1241 c0 -6 4 -13 10 -16 6 -3 7 1 4 9 -7 18 -14 21 -14 7z"/>
<path d="M2350 1241 c0 -6 4 -13 10 -16 6 -3 7 1 4 9 -7 18 -14 21 -14 7z"/>
<path d="M2840 1241 c0 -6 4 -13 10 -16 6 -3 7 1 4 9 -7 18 -14 21 -14 7z"/>
<path d="M3634 1242 c4 -7 2 -21 -5 -30 -12 -15 -11 -15 6 0 16 15 17 20 6 30
-11 11 -13 10 -7 0z"/>
<path d="M4026 1233 c-6 -14 -5 -15 5 -6 7 7 10 15 7 18 -3 3 -9 -2 -12 -12z"/>
<path d="M5043 1233 c-3 -10 -8 -22 -11 -27 -3 -5 0 -6 5 -3 11 7 25 47 17 47
-3 0 -7 -8 -11 -17z"/>
<path d="M1320 1230 c0 -6 7 -10 15 -10 8 0 15 2 15 4 0 2 -7 6 -15 10 -8 3
-15 1 -15 -4z"/>
<path d="M5390 1230 c0 -6 7 -10 15 -10 8 0 15 2 15 4 0 2 -7 6 -15 10 -8 3
-15 1 -15 -4z"/>
<path d="M1408 1113 c2 -18 5 -33 7 -33 2 0 5 15 7 33 2 20 -1 34 -7 34 -6 0
-9 -14 -7 -34z"/>
<path d="M1453 1115 c0 -22 2 -30 4 -17 2 12 2 30 0 40 -3 9 -5 -1 -4 -23z"/>
<path d="M1983 1115 c0 -22 2 -30 4 -17 2 12 2 30 0 40 -3 9 -5 -1 -4 -23z"/>
<path d="M2717 1143 c-4 -3 -7 -20 -7 -36 0 -38 6 -32 13 11 5 33 5 36 -6 25z"/>
<path d="M2853 1115 c0 -22 2 -30 4 -17 2 12 2 30 0 40 -3 9 -5 -1 -4 -23z"/>
<path d="M2934 1136 c-3 -8 -4 -25 -2 -38 3 -17 5 -13 9 15 5 38 2 47 -7 23z"/>
<path d="M3999 1138 c0 -7 -2 -23 -3 -35 -2 -13 1 -23 6 -23 4 0 8 16 8 35 0
32 -9 51 -11 23z"/>
<path d="M4210 1118 c0 -40 21 -56 41 -32 9 11 9 18 2 25 -8 8 -11 7 -10 -2 1
-8 -2 -15 -8 -16 -5 -1 -11 9 -12 23 -3 41 -13 42 -13 2z"/>
<path d="M4447 1143 c-4 -3 -7 -20 -7 -36 0 -38 6 -32 13 11 5 33 5 36 -6 25z"/>
<path d="M4680 1133 c0 -9 -3 -13 -7 -10 -9 10 -33 -13 -32 -32 0 -10 3 -8 10
7 5 13 14 20 20 17 6 -4 8 -13 5 -21 -3 -8 -1 -14 4 -14 6 0 10 16 10 35 0 19
-2 35 -5 35 -3 0 -5 -7 -5 -17z"/>
<path d="M4977 1143 c-4 -3 -7 -20 -7 -37 0 -23 3 -27 9 -17 8 13 12 13 28 0
16 -12 17 -12 6 2 -7 9 -10 19 -6 23 4 4 0 4 -10 0 -12 -4 -17 -1 -17 11 0 11
5 15 16 11 8 -3 12 -2 9 4 -7 12 -19 13 -28 3z"/>
<path d="M5034 1136 c-9 -22 0 -59 14 -62 7 -1 8 0 2 3 -14 7 -13 33 3 33 8 0
7 4 -3 10 -13 9 -13 11 0 20 11 7 11 10 2 10 -7 0 -15 -6 -18 -14z"/>
<path d="M5137 1142 c6 -4 13 -21 15 -37 4 -30 4 -30 9 6 4 30 2 35 -16 37
-11 0 -15 -2 -8 -6z"/>
<path d="M5273 1115 c0 -22 2 -30 4 -17 2 12 2 30 0 40 -3 9 -5 -1 -4 -23z"/>
<path d="M1070 1112 c0 -17 3 -33 8 -35 9 -6 8 50 -1 60 -4 3 -7 -8 -7 -25z"/>
<path d="M1270 1112 c0 -17 3 -33 8 -35 9 -6 8 50 -1 60 -4 3 -7 -8 -7 -25z"/>
<path d="M2610 1112 c0 -17 3 -33 8 -35 9 -6 8 50 -1 60 -4 3 -7 -8 -7 -25z"/>
<path d="M5080 1134 c0 -3 9 -17 20 -31 11 -14 20 -21 20 -14 0 6 -9 20 -20
31 -11 11 -20 17 -20 14z"/>
<path d="M249 1118 c11 -15 11 -21 0 -35 -12 -17 -12 -17 6 0 19 17 19 17 0
35 -18 16 -18 16 -6 0z"/>
<path d="M368 1103 c5 -21 7 -23 10 -9 2 10 0 22 -6 28 -6 6 -7 0 -4 -19z"/>
<path d="M400 1114 c-11 -12 -10 -18 5 -32 18 -16 18 -16 6 1 -11 14 -11 20
-1 32 7 8 10 15 7 15 -2 0 -10 -7 -17 -16z"/>
<path d="M605 1119 c-4 -6 -5 -12 -2 -15 2 -3 7 2 10 11 7 17 1 20 -8 4z"/>
<path d="M870 1114 c-11 -12 -10 -18 5 -32 18 -16 18 -16 6 1 -11 14 -11 20
-1 32 7 8 10 15 7 15 -2 0 -10 -7 -17 -16z"/>
<path d="M939 1118 c11 -15 11 -21 0 -35 -12 -17 -12 -17 6 0 19 17 19 17 0
35 -18 16 -18 16 -6 0z"/>
<path d="M1144 1119 c-4 -7 -3 -9 4 -5 5 3 13 0 15 -6 4 -9 6 -10 6 -1 1 17
-16 25 -25 12z"/>
<path d="M1478 1103 c5 -21 7 -23 10 -9 2 10 0 22 -6 28 -6 6 -7 0 -4 -19z"/>
<path d="M1510 1115 c-11 -13 -10 -18 3 -31 9 -8 13 -9 8 -3 -5 6 -7 18 -4 26
5 12 7 12 14 2 4 -8 11 -11 14 -8 3 4 -1 11 -8 18 -11 9 -17 8 -27 -4z"/>
<path d="M1860 1114 c-11 -12 -10 -18 5 -32 18 -16 18 -16 6 1 -11 14 -11 20
-1 32 7 8 10 15 7 15 -2 0 -10 -7 -17 -16z"/>
<path d="M2015 1119 c-4 -6 -5 -12 -2 -15 2 -3 7 2 10 11 7 17 1 20 -8 4z"/>
<path d="M2065 1119 c-4 -6 -5 -12 -2 -15 2 -3 7 2 10 11 7 17 1 20 -8 4z"/>
<path d="M2188 1103 c5 -21 7 -23 10 -9 2 10 0 22 -6 28 -6 6 -7 0 -4 -19z"/>
<path d="M2275 1119 c-4 -6 -5 -12 -2 -15 2 -3 7 2 10 11 7 17 1 20 -8 4z"/>
<path d="M2456 1117 c3 -10 9 -15 12 -12 3 3 0 11 -7 18 -10 9 -11 8 -5 -6z"/>
<path d="M2576 1117 c3 -10 9 -15 12 -12 3 3 0 11 -7 18 -10 9 -11 8 -5 -6z"/>
<path d="M2786 1117 c3 -10 9 -15 12 -12 3 3 0 11 -7 18 -10 9 -11 8 -5 -6z"/>
<path d="M2820 1114 c-11 -12 -10 -18 5 -32 18 -16 18 -16 6 1 -11 14 -11 20
-1 32 7 8 10 15 7 15 -2 0 -10 -7 -17 -16z"/>
<path d="M3006 1117 c3 -10 9 -15 12 -12 3 3 0 11 -7 18 -10 9 -11 8 -5 -6z"/>
<path d="M3110 1115 c-11 -13 -10 -18 3 -31 9 -8 13 -9 8 -3 -5 6 -7 18 -4 26
5 12 7 12 14 2 4 -8 11 -11 14 -8 3 4 -1 11 -8 18 -11 9 -17 8 -27 -4z"/>
<path d="M3336 1117 c3 -10 9 -15 12 -12 3 3 0 11 -7 18 -10 9 -11 8 -5 -6z"/>
<path d="M3510 1114 c-11 -12 -10 -18 3 -30 9 -8 13 -9 7 -3 -6 8 -5 19 1 31
12 22 6 24 -11 2z"/>
<path d="M3598 1105 c2 -14 6 -25 8 -25 2 0 4 11 4 25 0 14 -4 25 -9 25 -4 0
-6 -11 -3 -25z"/>
<path d="M3648 1103 c5 -21 7 -23 10 -9 2 10 0 22 -6 28 -6 6 -7 0 -4 -19z"/>
<path d="M3746 1117 c3 -10 9 -15 12 -12 3 3 0 11 -7 18 -10 9 -11 8 -5 -6z"/>
<path d="M3813 1123 c-7 -2 -13 -14 -12 -26 0 -22 0 -22 10 1 5 14 13 20 20
16 8 -4 9 -3 5 4 -4 7 -8 12 -9 11 -1 0 -8 -3 -14 -6z"/>
<path d="M4025 1119 c-4 -6 -5 -12 -2 -15 2 -3 7 2 10 11 7 17 1 20 -8 4z"/>
<path d="M4130 1114 c-11 -12 -10 -18 5 -32 18 -16 18 -16 6 1 -11 14 -11 20
-1 32 7 8 10 15 7 15 -2 0 -10 -7 -17 -16z"/>
<path d="M4390 1115 c-11 -13 -10 -18 3 -31 9 -8 13 -9 8 -3 -5 6 -7 18 -4 26
5 12 7 12 14 2 4 -8 11 -11 14 -8 3 4 -1 11 -8 18 -11 9 -17 8 -27 -4z"/>
<path d="M4730 1106 c0 -14 3 -27 8 -29 4 -3 7 8 7 24 0 16 -3 29 -7 29 -5 0
-8 -11 -8 -24z"/>
<path d="M4770 1114 c-11 -12 -10 -18 5 -32 18 -16 18 -16 6 1 -11 14 -11 20
-1 32 7 8 10 15 7 15 -2 0 -10 -7 -17 -16z"/>
<path d="M4905 1119 c-4 -6 -5 -12 -2 -15 2 -3 7 2 10 11 7 17 1 20 -8 4z"/>
<path d="M5180 1119 c0 -5 5 -7 10 -4 6 3 10 8 10 11 0 2 -4 4 -10 4 -5 0 -10
-5 -10 -11z"/>
<path d="M223 1085 c0 -22 2 -30 4 -17 2 12 2 30 0 40 -3 9 -5 -1 -4 -23z"/>
<path d="M282 1100 c0 -14 2 -19 5 -12 2 6 2 18 0 25 -3 6 -5 1 -5 -13z"/>
<path d="M342 1100 c0 -14 2 -19 5 -12 2 6 2 18 0 25 -3 6 -5 1 -5 -13z"/>
<path d="M442 1100 c0 -14 2 -19 5 -12 2 6 2 18 0 25 -3 6 -5 1 -5 -13z"/>
<path d="M472 1100 c0 -14 2 -19 5 -12 2 6 2 18 0 25 -3 6 -5 1 -5 -13z"/>
<path d="M552 1100 c0 -14 2 -19 5 -12 2 6 2 18 0 25 -3 6 -5 1 -5 -13z"/>
<path d="M702 1100 c0 -14 2 -19 5 -12 2 6 2 18 0 25 -3 6 -5 1 -5 -13z"/>
<path d="M720 1100 c0 -11 2 -20 4 -20 2 0 6 9 9 20 3 11 1 20 -4 20 -5 0 -9
-9 -9 -20z"/>
<path d="M912 1100 c0 -14 2 -19 5 -12 2 6 2 18 0 25 -3 6 -5 1 -5 -13z"/>
<path d="M972 1100 c0 -14 2 -19 5 -12 2 6 2 18 0 25 -3 6 -5 1 -5 -13z"/>
<path d="M1102 1100 c0 -14 2 -19 5 -12 2 6 2 18 0 25 -3 6 -5 1 -5 -13z"/>
<path d="M1192 1100 c0 -14 2 -19 5 -12 2 6 2 18 0 25 -3 6 -5 1 -5 -13z"/>
<path d="M1210 1100 c0 -11 2 -20 4 -20 2 0 6 9 9 20 3 11 1 20 -4 20 -5 0 -9
-9 -9 -20z"/>
<path d="M1247 1099 c4 -13 8 -18 11 -10 2 7 -1 18 -6 23 -8 8 -9 4 -5 -13z"/>
<path d="M1602 1100 c0 -14 2 -19 5 -12 2 6 2 18 0 25 -3 6 -5 1 -5 -13z"/>
<path d="M1683 1085 c0 -22 2 -30 4 -17 2 12 2 30 0 40 -3 9 -5 -1 -4 -23z"/>
<path d="M1742 1100 c0 -14 2 -19 5 -12 2 6 2 18 0 25 -3 6 -5 1 -5 -13z"/>
<path d="M1772 1100 c0 -14 2 -19 5 -12 2 6 2 18 0 25 -3 6 -5 1 -5 -13z"/>
<path d="M1832 1100 c0 -14 2 -19 5 -12 2 6 2 18 0 25 -3 6 -5 1 -5 -13z"/>
<path d="M1902 1100 c0 -14 2 -19 5 -12 2 6 2 18 0 25 -3 6 -5 1 -5 -13z"/>
<path d="M1962 1100 c0 -14 2 -19 5 -12 2 6 2 18 0 25 -3 6 -5 1 -5 -13z"/>
<path d="M2132 1100 c0 -14 2 -19 5 -12 2 6 2 18 0 25 -3 6 -5 1 -5 -13z"/>
<path d="M2162 1100 c0 -14 2 -19 5 -12 2 6 2 18 0 25 -3 6 -5 1 -5 -13z"/>
<path d="M2247 1099 c-4 -13 -10 -18 -18 -13 -8 4 -10 3 -5 -4 10 -16 36 -3
36 19 0 25 -6 24 -13 -2z"/>
<path d="M2412 1100 c0 -14 2 -19 5 -12 2 6 2 18 0 25 -3 6 -5 1 -5 -13z"/>
<path d="M2510 1111 c0 -5 7 -12 16 -15 14 -5 15 -4 4 9 -14 17 -20 19 -20 6z"/>
<path d="M2642 1100 c0 -14 2 -19 5 -12 2 6 2 18 0 25 -3 6 -5 1 -5 -13z"/>
<path d="M2675 1100 c10 -11 20 -20 23 -20 3 0 -3 9 -13 20 -10 11 -20 20 -23
20 -3 0 3 -9 13 -20z"/>
<path d="M2742 1100 c0 -14 2 -19 5 -12 2 6 2 18 0 25 -3 6 -5 1 -5 -13z"/>
<path d="M2902 1100 c0 -14 2 -19 5 -12 2 6 2 18 0 25 -3 6 -5 1 -5 -13z"/>
<path d="M3060 1112 c0 -7 5 -12 11 -12 6 0 8 -7 4 -17 -5 -15 -4 -16 6 -5 11
10 10 15 -4 29 -11 11 -17 13 -17 5z"/>
<path d="M3162 1100 c0 -14 2 -19 5 -12 2 6 2 18 0 25 -3 6 -5 1 -5 -13z"/>
<path d="M3242 1100 c0 -14 2 -19 5 -12 2 6 2 18 0 25 -3 6 -5 1 -5 -13z"/>
<path d="M3264 1109 c-3 -6 2 -18 12 -27 17 -16 17 -16 5 0 -7 9 -10 22 -6 28
3 5 4 10 1 10 -3 0 -8 -5 -12 -11z"/>
<path d="M3312 1100 c0 -14 2 -19 5 -12 2 6 2 18 0 25 -3 6 -5 1 -5 -13z"/>
<path d="M3392 1100 c0 -14 2 -19 5 -12 2 6 2 18 0 25 -3 6 -5 1 -5 -13z"/>
<path d="M3452 1100 c0 -14 2 -19 5 -12 2 6 2 18 0 25 -3 6 -5 1 -5 -13z"/>
<path d="M3562 1100 c0 -14 2 -19 5 -12 2 6 2 18 0 25 -3 6 -5 1 -5 -13z"/>
<path d="M3912 1100 c0 -14 2 -19 5 -12 2 6 2 18 0 25 -3 6 -5 1 -5 -13z"/>
<path d="M4162 1100 c0 -14 2 -19 5 -12 2 6 2 18 0 25 -3 6 -5 1 -5 -13z"/>
<path d="M4272 1100 c0 -14 2 -19 5 -12 2 6 2 18 0 25 -3 6 -5 1 -5 -13z"/>
<path d="M4352 1100 c0 -14 2 -19 5 -12 2 6 2 18 0 25 -3 6 -5 1 -5 -13z"/>
<path d="M4522 1100 c0 -14 2 -19 5 -12 2 6 2 18 0 25 -3 6 -5 1 -5 -13z"/>
<path d="M4592 1100 c0 -14 2 -19 5 -12 2 6 2 18 0 25 -3 6 -5 1 -5 -13z"/>
<path d="M4801 1104 c0 -11 3 -14 6 -6 3 7 2 16 -1 19 -3 4 -6 -2 -5 -13z"/>
<path d="M5212 1100 c0 -14 2 -19 5 -12 2 6 2 18 0 25 -3 6 -5 1 -5 -13z"/>
<path d="M1030 1106 c0 -2 7 -9 15 -16 9 -7 15 -8 15 -2 0 5 -7 12 -15 16 -8
3 -15 4 -15 2z"/>
<path d="M1560 1106 c0 -2 7 -9 15 -16 9 -7 15 -8 15 -2 0 5 -7 12 -15 16 -8
3 -15 4 -15 2z"/>
<path d="M2430 1101 c0 -5 8 -15 18 -22 15 -12 16 -12 5 2 -7 9 -10 19 -6 22
3 4 1 7 -5 7 -7 0 -12 -4 -12 -9z"/>
<path d="M2760 1101 c0 -5 8 -15 18 -22 15 -12 16 -12 5 2 -7 9 -10 19 -6 22
3 4 1 7 -5 7 -7 0 -12 -4 -12 -9z"/>
<path d="M3721 1094 c0 -11 3 -14 6 -6 3 7 2 16 -1 19 -3 4 -6 -2 -5 -13z"/>
<path d="M3961 1094 c0 -11 3 -14 6 -6 3 7 2 16 -1 19 -3 4 -6 -2 -5 -13z"/>
<path d="M4875 1101 c3 -5 1 -12 -5 -16 -5 -3 -10 -1 -10 6 0 7 -3 10 -6 6
-11 -10 6 -26 21 -20 17 6 20 33 4 33 -5 0 -8 -4 -4 -9z"/>
<path d="M616 1083 c-6 -14 -5 -15 5 -6 7 7 10 15 7 18 -3 3 -9 -2 -12 -12z"/>
<path d="M670 1091 c0 -6 4 -13 10 -16 6 -3 7 1 4 9 -7 18 -14 21 -14 7z"/>
<path d="M1316 1083 c-6 -14 -5 -15 5 -6 7 7 10 15 7 18 -3 3 -9 -2 -12 -12z"/>
<path d="M2286 1083 c-6 -14 -5 -15 5 -6 7 7 10 15 7 18 -3 3 -9 -2 -12 -12z"/>
<path d="M3620 1091 c0 -6 4 -13 10 -16 6 -3 7 1 4 9 -7 18 -14 21 -14 7z"/>
<path d="M4036 1083 c-6 -14 -5 -15 5 -6 7 7 10 15 7 18 -3 3 -9 -2 -12 -12z"/>
<path d="M231 678 l2 -43 6 35 7 35 8 -32 c4 -18 11 -33 16 -33 4 0 14 15 21
33 l14 32 6 -35 6 -35 2 43 c1 50 -14 55 -34 10 l-14 -33 -11 33 c-17 45 -30
40 -29 -10z"/>
<path d="M640 681 c0 -36 3 -41 24 -41 30 0 49 22 44 52 -2 18 -10 24 -35 26
-32 3 -33 2 -33 -37z m55 -1 c0 -18 -6 -26 -22 -28 -20 -3 -23 1 -23 28 0 27
3 31 23 28 16 -2 22 -10 22 -28z"/>
<path d="M730 680 c0 -36 3 -40 24 -40 28 0 41 14 29 33 -4 6 -6 20 -5 30 2
12 -4 17 -22 17 -24 0 -26 -4 -26 -40z m38 19 c-2 -6 -8 -10 -13 -10 -5 0 -11
4 -13 10 -2 6 4 11 13 11 9 0 15 -5 13 -11z m2 -39 c0 -5 -7 -10 -15 -10 -8 0
-15 5 -15 10 0 6 7 10 15 10 8 0 15 -4 15 -10z"/>
<path d="M347 694 c-12 -13 -8 -52 7 -57 8 -3 22 1 33 8 14 11 16 18 7 32 -12
19 -36 28 -47 17z m37 -19 c3 -9 -1 -18 -10 -22 -19 -7 -28 2 -21 22 8 19 23
19 31 0z"/>
<path d="M410 670 c0 -16 5 -30 10 -30 6 0 10 14 10 30 0 17 -4 30 -10 30 -5
0 -10 -13 -10 -30z"/>
<path d="M446 689 c7 -8 14 -23 17 -34 4 -13 5 -9 4 9 -1 16 -9 32 -17 34 -12
4 -13 2 -4 -9z"/>
<path d="M490 684 c-17 -19 -5 -44 20 -44 27 0 26 -17 -2 -23 -20 -5 -20 -5 2
-4 22 2 25 7 28 42 2 34 0 41 -17 42 -11 1 -25 -5 -31 -13z m38 -17 c2 -10 -3
-17 -12 -17 -10 0 -16 9 -16 21 0 24 23 21 28 -4z"/>
<path d="M564 686 c-10 -26 4 -48 28 -44 17 2 23 10 23 28 0 18 -6 26 -23 28
-13 2 -25 -3 -28 -12z m44 -19 c2 -12 -3 -17 -17 -17 -12 0 -21 6 -21 13 0 31
32 34 38 4z"/>
<path d="M1652 533 c-5 -10 -6 -29 -1 -43 6 -21 7 -22 9 -5 1 11 3 30 4 43 3
27 0 28 -12 5z"/>
<path d="M221 503 c1 -38 1 -38 9 -8 4 17 8 24 9 16 0 -8 3 -12 6 -9 8 7 -5
38 -16 38 -5 0 -8 -17 -8 -37z"/>
<path d="M276 524 c-4 -9 -4 -19 -1 -22 3 -3 6 1 6 9 1 8 5 1 9 -16 8 -29 8
-29 7 8 -1 39 -11 48 -21 21z"/>
<path d="M567 534 c13 -3 23 -15 26 -30 4 -21 4 -21 3 3 -1 22 -6 28 -26 30
-21 1 -21 0 -3 -3z"/>
<path d="M620 536 c0 -2 9 -6 20 -9 11 -3 18 -1 14 4 -5 9 -34 13 -34 5z"/>
<path d="M871 503 c2 -33 3 -34 6 -9 l5 29 23 -29 24 -29 -1 40 c0 36 -1 37
-7 11 l-6 -29 -14 26 c-20 38 -31 33 -30 -10z"/>
<path d="M1006 531 c-3 -4 4 -17 17 -27 l22 -19 -18 22 c-18 21 -18 21 0 26
15 4 16 5 1 6 -9 0 -19 -3 -22 -8z"/>
<path d="M1065 530 c-4 -6 -4 -14 -1 -17 3 -4 6 -1 6 5 0 7 9 12 20 12 15 0
20 -7 20 -26 0 -23 -4 -26 -25 -22 -13 3 -22 2 -20 -2 3 -4 15 -10 28 -12 22
-4 24 -1 23 31 -1 29 -5 37 -23 39 -11 2 -24 -2 -28 -8z"/>
<path d="M1210 505 c0 -28 4 -35 19 -35 11 0 22 4 25 9 4 5 -3 7 -14 4 -16 -4
-20 0 -20 21 0 30 24 35 39 9 6 -10 11 -13 11 -7 0 16 -22 34 -42 34 -14 0
-18 -8 -18 -35z"/>
<path d="M1330 507 c0 -14 4 -28 8 -31 9 -5 8 41 -1 51 -4 3 -7 -5 -7 -20z"/>
<path d="M1770 520 c0 -5 5 -10 11 -10 5 0 7 5 4 10 -3 6 -8 10 -11 10 -2 0
-4 -4 -4 -10z"/>
<path d="M314 505 c-4 -9 -2 -21 4 -27 15 -15 44 -1 40 19 -4 23 -36 29 -44 8z
m36 -10 c0 -8 -7 -15 -15 -15 -8 0 -15 7 -15 15 0 8 7 15 15 15 8 0 15 -7 15
-15z"/>
<path d="M372 495 c0 -16 2 -22 5 -12 2 9 2 23 0 30 -3 6 -5 -1 -5 -18z"/>
<path d="M398 495 c2 -14 6 -25 8 -25 2 0 4 11 4 25 0 14 -4 25 -9 25 -4 0 -6
-11 -3 -25z"/>
<path d="M443 513 c9 -2 17 -11 17 -18 0 -7 -8 -16 -17 -18 -16 -4 -16 -5 1
-6 15 -1 16 -4 6 -16 -11 -13 -10 -14 4 -9 10 4 16 18 16 40 0 29 -3 34 -22
33 -17 -1 -19 -2 -5 -6z"/>
<path d="M484 505 c-4 -9 -2 -21 4 -27 15 -15 44 -1 40 19 -4 23 -36 29 -44 8z
m36 -10 c0 -8 -7 -15 -15 -15 -8 0 -15 7 -15 15 0 8 7 15 15 15 8 0 15 -7 15
-15z"/>
<path d="M702 495 c0 -16 2 -22 5 -12 2 9 2 23 0 30 -3 6 -5 -1 -5 -18z"/>
<path d="M725 511 c-3 -5 0 -13 6 -17 8 -4 7 -9 -2 -15 -11 -7 -10 -9 4 -9 19
0 23 15 6 26 -8 4 -7 9 2 15 10 6 10 9 2 9 -6 0 -14 -4 -18 -9z"/>
<path d="M808 512 c11 -7 11 -10 -2 -15 -18 -7 -22 -27 -5 -27 5 0 7 5 4 10
-3 6 -2 10 4 10 5 0 12 -6 15 -12 3 -7 4 -2 3 11 -1 14 -9 26 -17 28 -12 4
-12 3 -2 -5z"/>
<path d="M950 516 c0 -2 9 -6 20 -9 11 -3 18 -1 14 4 -5 9 -34 13 -34 5z"/>
<path d="M1288 513 c7 -3 16 -2 19 1 4 3 -2 6 -13 5 -11 0 -14 -3 -6 -6z"/>
<path d="M1378 512 c11 -7 11 -10 -2 -15 -18 -7 -22 -27 -5 -27 5 0 7 5 4 10
-3 6 -2 10 4 10 5 0 12 -6 15 -12 3 -7 4 -2 3 11 -1 14 -9 26 -17 28 -12 4
-12 3 -2 -5z"/>
<path d="M1440 513 c15 -7 12 -33 -4 -33 -8 0 -17 8 -19 18 -3 12 -5 11 -6 -6
-1 -19 3 -23 22 -20 24 3 32 39 9 44 -7 1 -8 0 -2 -3z"/>
<path d="M1488 512 c11 -7 11 -10 -2 -15 -18 -7 -22 -27 -5 -27 5 0 7 5 4 10
-3 6 -2 10 4 10 5 0 12 -6 15 -12 3 -7 4 -2 3 11 -1 14 -9 26 -17 28 -12 4
-12 3 -2 -5z"/>
<path d="M1525 511 c-6 -11 13 -26 22 -17 4 3 0 6 -8 6 -11 0 -11 2 1 10 9 6
10 10 3 10 -6 0 -14 -4 -18 -9z"/>
<path d="M1585 511 c19 -8 19 -9 -3 -14 -18 -4 -18 -4 -2 -3 26 1 28 20 3 23
-15 2 -15 1 2 -6z"/>
<path d="M1688 513 c7 -3 16 -2 19 1 4 3 -2 6 -13 5 -11 0 -14 -3 -6 -6z"/>
<path d="M1738 513 c7 -3 16 -2 19 1 4 3 -2 6 -13 5 -11 0 -14 -3 -6 -6z"/>
<path d="M1848 512 c11 -7 11 -10 -2 -15 -18 -7 -22 -27 -5 -27 5 0 7 5 4 10
-3 6 -2 10 4 10 5 0 12 -6 15 -12 3 -7 4 -2 3 11 -1 14 -9 26 -17 28 -12 4
-12 3 -2 -5z"/>
<path d="M1882 495 c0 -16 2 -22 5 -12 2 9 2 23 0 30 -3 6 -5 -1 -5 -18z"/>
<path d="M1946 512 c-2 -4 4 -8 15 -8 10 0 19 4 19 8 0 4 -6 8 -14 8 -8 0 -17
-4 -20 -8z"/>
<path d="M2025 510 c-3 -6 1 -13 10 -16 13 -6 14 -8 3 -15 -9 -6 -9 -9 -1 -9
20 0 26 20 8 26 -13 6 -14 8 -3 15 9 6 9 9 1 9 -6 0 -15 -5 -18 -10z"/>
<path d="M2089 512 c12 -8 11 -11 -3 -15 -15 -4 -15 -5 1 -3 19 1 21 19 1 24
-10 3 -10 1 1 -6z"/>
<path d="M2125 510 c-3 -6 1 -7 9 -4 18 7 21 14 7 14 -6 0 -13 -4 -16 -10z"/>
<path d="M2202 495 c0 -16 2 -22 5 -12 2 9 2 23 0 30 -3 6 -5 -1 -5 -18z"/>
<path d="M2279 512 c11 -8 10 -11 -5 -15 -16 -4 -15 -5 4 -6 25 -1 26 20 1 27
-12 3 -12 2 0 -6z"/>
<path d="M633 504 c21 -7 22 -21 2 -27 -11 -4 -10 -4 2 -3 25 2 23 30 -2 33
-16 1 -16 1 -2 -3z"/>
<path d="M1288 493 c7 -3 16 -2 19 1 4 3 -2 6 -13 5 -11 0 -14 -3 -6 -6z"/>
<path d="M1675 490 c-7 -11 22 -26 32 -16 4 3 -2 6 -13 7 -18 0 -18 1 1 9 16
7 17 9 3 9 -9 1 -20 -4 -23 -9z"/>
<path d="M1739 492 c9 -7 10 -11 2 -15 -7 -4 -8 -5 0 -4 15 3 13 21 -3 25 -10
3 -10 2 1 -6z"/>
<path d="M1770 491 c0 -6 4 -13 10 -16 6 -3 7 1 4 9 -7 18 -14 21 -14 7z"/>
<path d="M965 480 c-16 -7 -17 -9 -3 -9 9 -1 20 4 23 9 7 11 7 11 -20 0z"/>
<path d="M1946 478 c3 -4 12 -8 20 -8 8 0 14 4 14 8 0 4 -9 8 -19 8 -11 0 -17
-4 -15 -8z"/>
<path d="M2127 479 c7 -7 15 -10 18 -7 3 3 -2 9 -12 12 -14 6 -15 5 -6 -5z"/>
<path d="M558 473 c7 -3 16 -2 19 1 4 3 -2 6 -13 5 -11 0 -14 -3 -6 -6z"/>
<path d="M1018 473 c7 -3 16 -2 19 1 4 3 -2 6 -13 5 -11 0 -14 -3 -6 -6z"/>
<path d="M1148 473 c7 -3 16 -2 19 1 4 3 -2 6 -13 5 -11 0 -14 -3 -6 -6z"/>
<path d="M1288 473 c7 -3 16 -2 19 1 4 3 -2 6 -13 5 -11 0 -14 -3 -6 -6z"/>
<path d="M1528 473 c7 -3 16 -2 19 1 4 3 -2 6 -13 5 -11 0 -14 -3 -6 -6z"/>
<path d="M1578 473 c7 -3 16 -2 19 1 4 3 -2 6 -13 5 -11 0 -14 -3 -6 -6z"/>
<path d="M2078 473 c7 -3 16 -2 19 1 4 3 -2 6 -13 5 -11 0 -14 -3 -6 -6z"/>
<path d="M2268 473 c7 -3 16 -2 19 1 4 3 -2 6 -13 5 -11 0 -14 -3 -6 -6z"/>
<path d="M232 73 c1 -41 2 -43 5 -13 l5 35 15 -35 15 -35 18 40 18 40 4 -40 5
-40 1 48 c2 56 -10 61 -31 10 l-14 -37 -12 37 c-17 51 -31 46 -29 -10z"/>
<path d="M645 83 c-18 -18 -16 -32 8 -47 21 -13 51 13 42 36 -10 24 -32 29
-50 11z m35 -23 c0 -11 -7 -20 -15 -20 -8 0 -15 9 -15 20 0 11 7 20 15 20 8 0
15 -9 15 -20z"/>
<path d="M723 93 c-19 -7 -16 -30 5 -38 16 -7 15 -8 -3 -15 -16 -7 -17 -9 -3
-9 26 -1 33 20 13 36 -17 12 -13 18 8 14 5 -1 6 3 2 9 -3 5 -7 10 -8 9 -1 0
-8 -3 -14 -6z"/>
<path d="M340 65 c0 -31 26 -43 47 -22 21 21 9 47 -22 47 -20 0 -25 -5 -25
-25z m44 7 c8 -13 -11 -35 -23 -28 -16 10 -14 36 3 36 8 0 17 -4 20 -8z"/>
<path d="M410 60 c0 -16 5 -30 10 -30 6 0 10 11 10 25 0 34 28 32 33 -2 4 -26
4 -26 6 5 1 29 -2 32 -29 32 -27 0 -30 -3 -30 -30z"/>
<path d="M486 75 c-9 -24 5 -47 25 -42 27 7 24 -12 -3 -23 -23 -10 -23 -10 2
-7 22 2 25 7 28 45 3 39 1 42 -21 42 -14 0 -27 -7 -31 -15z m42 -12 c-5 -25
-28 -28 -28 -4 0 12 6 21 16 21 9 0 14 -7 12 -17z"/>
<path d="M564 76 c-10 -26 4 -48 28 -44 33 4 33 52 0 56 -13 2 -25 -3 -28 -12z
m44 -13 c-2 -10 -10 -18 -18 -18 -8 0 -16 8 -18 18 -2 12 3 17 18 17 15 0 20
-5 18 -17z"/>
<path d="M765 80 c-12 -19 5 -50 28 -49 21 0 21 1 -3 12 l-25 11 28 4 c16 2
27 9 24 15 -5 16 -43 21 -52 7z m42 -6 c-3 -3 -12 -4 -19 -1 -8 3 -5 6 6 6 11
1 17 -2 13 -5z"/>
</g>
</svg>
