<?xml version="1.0" standalone="no"?>
<!DOCTYPE svg PUBLIC "-//W3C//DTD SVG 20010904//EN"
 "http://www.w3.org/TR/2001/REC-SVG-20010904/DTD/svg10.dtd">
<svg version="1.0" xmlns="http://www.w3.org/2000/svg"
 width="800.000000pt" height="845.000000pt" viewBox="0 0 800.000000 845.000000"
 preserveAspectRatio="xMidYMid meet">

<g transform="translate(0.000000,845.000000) scale(0.100000,-0.100000)"
fill="#000000" stroke="none">
<path d="M3175 7583 c-179 -40 -328 -152 -405 -305 -50 -99 -63 -168 -57 -287
5 -112 23 -173 72 -255 19 -32 35 -59 35 -61 0 -1 -41 -26 -91 -56 -181 -107
-351 -300 -429 -485 -53 -127 -71 -207 -77 -345 -5 -111 -3 -136 16 -197 68
-225 269 -362 534 -362 119 0 177 43 177 131 0 36 -6 55 -26 78 -32 38 -77 51
-183 51 -102 0 -152 20 -210 86 -50 57 -65 113 -58 217 18 263 177 502 416
626 42 21 98 46 125 55 45 16 52 15 105 -1 77 -24 236 -23 317 1 l62 18 85
-35 c121 -49 188 -97 305 -215 l102 -105 51 5 c40 4 58 12 82 37 28 27 32 38
32 85 0 47 -5 58 -40 102 -89 111 -223 222 -337 280 l-47 24 39 72 c51 96 70
172 70 286 0 261 -175 481 -435 547 -55 14 -184 19 -230 8z m239 -278 c102
-48 166 -145 174 -261 9 -136 -54 -246 -173 -305 -206 -101 -438 35 -453 265
-9 154 89 287 243 327 52 14 151 2 209 -26z"/>
<path d="M6406 7575 c-369 -93 -548 -524 -351 -847 l34 -58 -52 -26 c-121 -61
-277 -192 -336 -281 -54 -82 -30 -173 53 -201 61 -20 98 -2 185 90 91 96 192
165 302 208 l83 32 58 -17 c94 -26 183 -29 268 -9 100 23 124 22 198 -8 97
-40 169 -87 250 -163 152 -142 232 -305 248 -505 8 -94 -10 -158 -61 -217 -52
-61 -92 -76 -223 -83 -128 -8 -154 -19 -186 -84 -16 -32 -17 -44 -7 -76 14
-47 59 -87 108 -96 55 -10 202 3 274 25 210 65 349 263 349 496 0 349 -224
712 -543 881 l-67 35 19 27 c213 303 72 734 -282 859 -90 32 -233 40 -321 18z
m265 -267 c70 -33 125 -88 158 -157 21 -46 26 -70 25 -131 -1 -100 -29 -164
-100 -229 -90 -82 -207 -106 -324 -66 -76 25 -160 109 -185 185 -35 102 -20
216 38 291 100 130 249 171 388 107z"/>
<path d="M4771 7034 c-143 -38 -286 -151 -353 -280 -54 -104 -71 -180 -65
-299 5 -110 24 -173 80 -266 l33 -56 -63 -32 c-208 -109 -399 -326 -479 -545
l-22 -61 -108 -5 c-119 -6 -153 -20 -180 -71 -32 -63 -3 -148 61 -175 20 -8
67 -14 110 -14 l75 0 0 -53 c0 -158 112 -337 261 -417 87 -46 149 -60 272 -60
153 0 197 27 197 122 0 41 -5 54 -34 85 l-34 37 -119 6 c-106 6 -125 9 -166
33 -115 68 -149 181 -111 365 32 155 98 277 214 393 84 84 197 156 298 190 62
20 65 21 130 4 86 -21 225 -21 299 0 72 21 95 16 221 -46 79 -39 121 -68 182
-126 123 -116 208 -255 215 -356 2 -27 11 -60 20 -73 21 -32 22 -177 2 -226
-22 -53 -77 -109 -132 -134 -41 -20 -67 -24 -145 -24 -107 0 -147 -16 -175
-69 -27 -54 -20 -98 24 -142 l39 -39 113 0 c63 0 134 5 159 11 198 45 354 222
382 432 l11 85 76 4 c87 5 121 22 145 73 20 42 20 68 -1 112 -24 52 -77 73
-183 73 l-85 0 -23 63 c-49 138 -165 305 -282 409 -53 47 -219 159 -253 171
-9 3 -7 9 4 23 58 67 102 208 103 329 1 257 -174 484 -424 550 -69 19 -219 18
-289 -1z m250 -251 c75 -24 169 -117 194 -192 24 -72 17 -189 -14 -249 -29
-57 -87 -113 -147 -143 -41 -20 -64 -24 -139 -24 -78 0 -97 4 -141 27 -60 32
-118 93 -147 157 -34 72 -31 188 6 263 70 143 233 210 388 161z"/>
<path d="M475 5241 c-11 -5 -31 -21 -45 -36 l-25 -27 -3 -1426 c-2 -1417 -2
-1427 18 -1460 39 -63 22 -62 745 -62 723 0 706 -1 745 62 18 30 20 50 20 196
l0 162 58 0 c67 0 151 -22 201 -53 19 -11 296 -241 615 -510 320 -269 615
-511 656 -539 145 -95 325 -170 509 -211 94 -21 119 -21 1346 -25 931 -2 1268
0 1320 8 363 62 626 391 602 755 -21 310 -224 563 -522 650 l-90 26 -808 0
-809 -1 4 48 c14 142 -29 311 -109 427 -23 33 -218 245 -433 470 -216 226
-499 522 -629 658 -136 143 -270 275 -316 309 -89 68 -201 125 -315 159 -74
23 -83 23 -677 27 l-603 3 0 160 0 159 -34 38 -34 37 -684 2 c-376 1 -692 -2
-703 -6z m1205 -461 l0 -220 -227 0 c-208 0 -231 -2 -260 -20 -39 -24 -56 -53
-56 -100 0 -50 26 -94 67 -114 28 -13 71 -16 255 -16 l221 0 0 -185 0 -185
-221 0 c-241 0 -271 -6 -305 -58 -23 -34 -22 -100 1 -135 35 -53 54 -57 300
-57 l225 0 0 -602 0 -603 -503 2 c-276 1 -508 2 -514 2 -10 1 -13 259 -13
1256 l0 1255 515 0 515 0 0 -220z m1501 -216 c176 -63 108 2 1173 -1113 402
-421 401 -419 401 -591 0 -93 -3 -111 -27 -163 -38 -80 -117 -160 -197 -200
-62 -30 -72 -32 -176 -32 -173 0 -174 1 -503 334 -150 152 -384 390 -520 529
-136 140 -259 260 -274 268 -94 49 -202 -30 -183 -133 6 -32 40 -72 233 -268
709 -720 853 -862 906 -894 282 -170 654 -106 850 146 l41 52 865 -2 865 -2
78 -37 c305 -146 368 -534 124 -769 -51 -48 -104 -80 -177 -105 -53 -18 -106
-19 -1300 -19 -1021 0 -1258 2 -1315 14 -168 33 -361 115 -484 206 -34 25
-248 203 -475 394 -716 605 -734 619 -810 656 -90 43 -181 65 -273 65 l-73 0
0 850 0 851 583 -3 582 -3 86 -31z"/>
<path d="M6201 5022 c-35 -19 -71 -72 -71 -105 0 -11 41 -144 90 -297 130
-400 107 -383 513 -390 l278 -5 -193 -140 c-232 -168 -253 -186 -280 -239 -36
-71 -29 -116 60 -390 45 -138 80 -251 79 -253 -2 -1 -102 69 -222 157 -233
169 -275 190 -353 175 -51 -9 -77 -25 -304 -191 -109 -79 -199 -144 -202 -144
-2 0 34 116 80 257 50 153 84 273 84 298 0 25 -11 63 -27 96 -26 50 -44 66
-251 216 l-223 162 283 3 c270 3 285 4 325 25 66 36 96 82 138 210 44 139 43
172 -10 221 -28 26 -43 32 -80 32 -68 0 -107 -41 -142 -150 l-28 -85 -290 -2
c-159 -1 -309 -5 -332 -8 -60 -9 -116 -53 -148 -120 -24 -48 -27 -64 -22 -117
8 -95 32 -121 292 -311 127 -92 237 -172 245 -176 12 -8 0 -54 -75 -283 -48
-150 -90 -297 -93 -326 -8 -89 40 -176 122 -220 43 -23 151 -22 195 2 27 15
355 248 467 332 l30 24 248 -180 c291 -211 330 -227 436 -179 56 25 86 53 112
102 42 82 38 107 -61 409 -49 152 -91 284 -93 293 -2 12 72 72 247 199 220
160 252 187 274 229 60 117 8 262 -111 311 -31 13 -91 16 -347 16 l-311 1 -80
246 c-44 136 -88 256 -98 266 -19 22 -72 47 -99 47 -10 0 -34 -8 -52 -18z"/>
<path d="M0 225 l0 -225 4000 0 4000 0 0 225 0 225 -4000 0 -4000 0 0 -225z
m346 118 c41 -26 67 -89 62 -145 -5 -44 -29 -88 -49 -88 -4 0 -1 21 8 46 30
89 -20 164 -110 164 -75 0 -119 -80 -86 -153 22 -49 86 -61 124 -22 43 42 24
105 -31 105 -34 0 -55 -44 -31 -67 15 -15 17 -14 27 12 10 26 12 27 26 13 34
-34 -30 -78 -72 -50 -36 24 -39 85 -5 116 33 30 74 30 109 1 84 -70 28 -195
-87 -195 -33 0 -49 7 -78 33 -31 29 -37 41 -41 89 -4 56 10 101 42 127 49 41
141 48 192 14z m279 -95 c0 -61 -4 -80 -19 -97 -26 -29 -60 -26 -85 5 -26 34
-26 54 0 88 22 28 59 35 59 11 0 -8 -4 -15 -9 -15 -12 0 -41 -29 -41 -40 0
-16 31 -39 45 -34 11 5 15 23 15 69 0 71 7 98 24 92 7 -2 11 -32 11 -79z m943
59 c2 -10 -3 -17 -12 -17 -18 0 -29 16 -21 31 9 14 29 6 33 -14z m-138 -22 c0
-11 11 -15 36 -15 28 0 35 -3 32 -17 -2 -12 -14 -19 -36 -21 -28 -3 -32 -7
-32 -33 0 -22 5 -29 19 -29 10 0 21 9 24 20 7 27 27 26 27 -2 0 -47 -53 -74
-84 -42 -22 22 -23 154 -1 154 8 0 15 -7 15 -15z m-705 -24 c3 -5 -3 -16 -14
-23 -13 -9 -21 -28 -23 -58 -2 -24 -9 -45 -15 -48 -20 -6 -17 97 4 120 18 20
38 23 48 9z m129 -13 c8 -13 5 -23 -14 -43 -26 -28 -54 -19 -30 10 18 21 6 30
-14 10 -29 -29 -13 -55 39 -64 51 -8 50 -25 -1 -29 -35 -3 -45 1 -63 24 -27
34 -27 54 0 88 24 31 65 33 83 4z m146 2 c15 -15 20 -33 20 -71 0 -61 -23 -64
-28 -3 -4 50 -18 67 -43 53 -27 -14 -24 -45 6 -65 25 -17 25 -34 -1 -34 -24 0
-54 38 -54 70 0 34 31 70 60 70 11 0 29 -9 40 -20z m213 2 c23 -20 25 -122 2
-122 -11 0 -15 12 -15 50 0 43 -3 50 -20 50 -17 0 -20 -7 -20 -51 0 -66 -24
-62 -28 4 -2 26 -7 47 -13 47 -5 0 -12 0 -16 0 -5 0 -10 -21 -13 -46 -3 -26
-11 -49 -17 -52 -20 -6 -17 97 2 119 21 22 112 23 138 1z m157 2 c0 -9 -9 -18
-20 -21 -14 -4 -20 -14 -20 -36 0 -35 -25 -67 -52 -67 -24 0 -23 31 2 37 15 4
20 14 20 38 0 19 7 41 16 49 20 21 54 21 54 0z m195 -54 c0 -42 -4 -65 -12
-68 -10 -3 -13 15 -13 68 0 53 3 71 13 68 8 -3 12 -26 12 -68z m192 55 c23
-17 26 -120 3 -120 -11 0 -15 12 -16 43 -2 46 -19 77 -28 51 -3 -8 -7 -32 -8
-53 -4 -57 -28 -60 -28 -4 0 24 -5 49 -12 56 -20 20 -38 -6 -38 -55 0 -31 -4
-43 -12 -41 -19 7 -22 86 -4 113 13 20 23 23 71 23 30 0 62 -6 72 -13z m144 5
c25 -14 24 -32 -5 -59 -26 -24 -48 -12 -25 15 6 8 9 17 7 20 -7 6 -38 -24 -38
-36 0 -16 31 -40 51 -40 11 0 19 -7 19 -16 0 -11 -8 -14 -32 -12 -61 6 -86 78
-42 122 18 19 38 20 65 6z m190 -11 c27 -27 10 -51 -21 -31 -30 19 -40 15 -40
-17 0 -33 16 -49 33 -32 12 12 47 15 47 4 0 -17 -36 -43 -61 -43 -45 0 -66 32
-60 90 3 21 39 50 62 50 10 0 28 -9 40 -21z m134 -4 c28 -27 30 -42 13 -80
-22 -48 -102 -46 -115 3 -10 39 -5 65 19 85 28 24 55 21 83 -8z m135 15 c13
-7 21 -7 25 0 11 17 43 11 59 -12 9 -13 16 -43 16 -70 0 -45 -2 -48 -26 -48
-24 0 -25 2 -23 47 3 39 0 48 -14 51 -14 3 -17 -5 -17 -47 0 -44 -3 -51 -20
-51 -17 0 -20 7 -20 50 0 43 -3 50 -20 50 -17 0 -20 -7 -20 -50 0 -43 -3 -50
-20 -50 -18 0 -20 7 -20 64 l0 65 33 4 c17 2 36 5 40 5 5 1 17 -3 27 -8z
m5030 -40 c0 -27 -4 -50 -10 -50 -5 0 -10 19 -10 43 -1 39 -2 41 -15 23 -8
-11 -15 -30 -15 -43 0 -13 -4 -23 -10 -23 -5 0 -10 7 -10 15 0 9 -7 29 -15 45
-9 18 -11 30 -5 30 6 0 13 -7 17 -16 5 -15 8 -15 17 -2 10 14 31 25 49 27 4 1
7 -21 7 -49z m30 40 c0 -5 -4 -10 -10 -10 -5 0 -10 5 -10 10 0 6 5 10 10 10 6
0 10 -4 10 -10z m130 -39 c0 -48 -1 -50 -27 -48 -23 2 -29 8 -31 30 -3 22 1
30 17 34 12 3 21 12 21 19 0 8 5 14 10 14 6 0 10 -22 10 -49z m155 39 c3 -5 1
-10 -4 -10 -6 0 -11 5 -11 10 0 6 2 10 4 10 3 0 8 -4 11 -10z m-1315 -45 c0
-25 -4 -45 -10 -45 -5 0 -10 20 -10 45 0 25 5 45 10 45 6 0 10 -20 10 -45z
m76 18 c9 -34 -6 -57 -40 -61 -25 -3 -26 -1 -26 42 0 44 1 46 30 46 24 0 31
-5 36 -27z m86 -18 c-5 -52 -22 -61 -22 -12 0 18 -5 38 -12 45 -9 9 -7 12 13
12 23 0 24 -3 21 -45z m85 3 c3 -29 -1 -38 -17 -43 -29 -9 -40 2 -38 38 2 43
6 49 31 45 17 -2 22 -11 24 -40z m59 27 c-3 -8 -1 -15 4 -15 17 0 11 -47 -6
-54 -23 -9 -44 12 -44 44 0 32 7 40 33 40 13 0 17 -5 13 -15z m74 -4 c0 -11 2
-25 5 -33 7 -18 -15 -48 -22 -30 -2 6 -11 12 -19 12 -18 0 -18 15 2 45 19 30
34 32 34 6z m66 4 c-3 -8 -1 -15 4 -15 17 0 11 -47 -6 -54 -23 -9 -44 12 -44
44 0 32 7 40 33 40 13 0 17 -5 13 -15z m70 0 c-3 -8 -1 -15 4 -15 17 0 11 -47
-6 -54 -23 -9 -44 12 -44 44 0 32 7 40 33 40 13 0 17 -5 13 -15z m81 -26 c3
-38 -12 -54 -42 -43 -23 9 -18 26 5 19 21 -7 28 10 8 18 -10 4 -9 8 2 16 12 9
11 11 -8 11 -14 0 -21 4 -17 11 4 5 17 9 28 7 17 -2 22 -11 24 -39z m63 22 c0
-11 2 -25 5 -33 7 -18 -15 -48 -22 -30 -2 6 -11 12 -19 12 -18 0 -18 15 2 45
19 30 34 32 34 6z m75 -20 c0 -21 -6 -38 -17 -45 -25 -15 -35 1 -12 19 16 13
16 14 2 9 -11 -4 -20 0 -24 10 -10 26 4 48 28 44 19 -2 23 -9 23 -37z m125 18
c9 -16 8 -26 -5 -45 -26 -39 -75 -26 -75 21 0 45 60 63 80 24z m170 -34 c0
-19 -4 -35 -10 -35 -5 0 -10 16 -10 35 0 19 5 35 10 35 6 0 10 -16 10 -35z
m31 18 c1 -17 2 -17 6 0 2 9 10 17 18 17 10 0 11 -7 2 -35 -6 -19 -14 -35 -18
-35 -11 0 -29 34 -29 54 0 22 20 20 21 -1z m159 6 c0 -8 4 -8 13 -2 6 6 43 11
80 11 l68 1 -3 -42 c-3 -36 -7 -43 -27 -45 -18 -3 -22 0 -18 12 3 8 2 18 -3
21 -4 3 -10 -1 -13 -7 -6 -18 -17 -6 -19 23 -1 17 -8 25 -21 25 -16 0 -17 -2
-3 -12 21 -15 20 -30 0 -38 -18 -7 -47 11 -39 24 2 4 -8 5 -23 2 -23 -4 -24
-6 -7 -12 11 -4 15 -9 8 -13 -28 -18 -60 32 -36 56 11 11 43 8 43 -4z m230
-24 c0 -41 -20 -48 -21 -7 -1 25 -1 26 -7 4 -10 -35 -27 -31 -30 6 -3 30 -1
32 27 32 29 0 31 -3 31 -35z m-5872 -58 c2 -10 -3 -17 -12 -17 -18 0 -29 16
-21 31 9 14 29 6 33 -14z"/>
<path d="M2162 198 c4 -39 25 -48 37 -16 11 30 4 48 -21 48 -16 0 -19 -6 -16
-32z"/>
<path d="M7510 205 c0 -8 5 -15 10 -15 6 0 10 7 10 15 0 8 -4 15 -10 15 -5 0
-10 -7 -10 -15z"/>
<path d="M6420 219 c0 -20 4 -29 13 -27 18 7 20 45 3 51 -12 5 -16 -1 -16 -24z"/>
<path d="M6600 200 c0 -5 5 -10 10 -10 6 0 10 5 10 10 0 6 -4 10 -10 10 -5 0
-10 -4 -10 -10z"/>
<path d="M6670 205 c0 -8 5 -15 10 -15 6 0 10 7 10 15 0 8 -4 15 -10 15 -5 0
-10 -7 -10 -15z"/>
<path d="M6810 205 c0 -8 5 -15 10 -15 6 0 10 7 10 15 0 8 -4 15 -10 15 -5 0
-10 -7 -10 -15z"/>
<path d="M6880 205 c0 -8 5 -15 10 -15 6 0 10 7 10 15 0 8 -4 15 -10 15 -5 0
-10 -7 -10 -15z"/>
<path d="M7090 230 c0 -5 5 -10 10 -10 6 0 10 5 10 10 0 6 -4 10 -10 10 -5 0
-10 -4 -10 -10z"/>
<path d="M7187 244 c-23 -23 7 -69 37 -58 25 10 17 58 -9 62 -12 2 -24 0 -28
-4z m43 -14 c0 -5 -7 -7 -16 -3 -12 4 -15 2 -12 -8 3 -8 12 -13 19 -11 11 3
11 1 2 -8 -15 -16 -33 -4 -33 21 0 12 7 19 20 19 11 0 20 -4 20 -10z"/>
<path d="M7730 211 c0 -6 5 -13 10 -16 6 -3 10 1 10 9 0 9 -4 16 -10 16 -5 0
-10 -4 -10 -9z"/>
</g>
</svg>
