<?xml version="1.0" standalone="no"?>
<!DOCTYPE svg PUBLIC "-//W3C//DTD SVG 20010904//EN"
 "http://www.w3.org/TR/2001/REC-SVG-20010904/DTD/svg10.dtd">
<svg version="1.0" xmlns="http://www.w3.org/2000/svg"
 width="775.000000pt" height="757.000000pt" viewBox="0 0 775.000000 757.000000"
 preserveAspectRatio="xMidYMid meet">

<g transform="translate(0.000000,757.000000) scale(0.100000,-0.100000)"
fill="#000000" stroke="none">
<path d="M3175 6703 c-179 -40 -328 -152 -405 -305 -50 -101 -64 -169 -58
-293 6 -109 26 -176 78 -258 16 -26 30 -49 30 -51 0 -1 -41 -27 -91 -57 -171
-101 -334 -280 -414 -453 -80 -172 -115 -395 -86 -538 40 -191 214 -356 411
-387 91 -15 194 -14 234 3 109 45 101 204 -12 236 -20 5 -75 10 -121 10 -102
0 -152 20 -209 85 -46 52 -62 100 -62 183 0 309 228 609 544 716 45 15 53 15
105 0 88 -25 185 -28 271 -8 100 23 125 21 208 -15 107 -45 187 -103 294 -214
l97 -100 52 5 c40 4 58 12 82 37 28 27 32 38 32 85 0 47 -5 58 -40 102 -89
111 -223 222 -337 280 l-47 24 39 72 c51 96 70 172 70 286 0 261 -175 481
-435 547 -55 14 -184 19 -230 8z m241 -278 c101 -49 164 -146 172 -261 9 -136
-54 -246 -173 -305 -206 -101 -438 34 -453 265 -9 154 89 287 243 327 53 14
155 1 211 -26z"/>
<path d="M6412 6696 c-375 -95 -555 -523 -357 -848 l34 -58 -52 -26 c-121 -61
-277 -192 -336 -281 -54 -82 -30 -173 53 -201 61 -20 98 -2 185 90 91 96 192
165 302 208 l83 32 58 -17 c94 -26 183 -29 268 -9 100 23 124 22 198 -8 108
-44 174 -90 272 -188 81 -81 103 -109 143 -190 53 -108 74 -180 83 -290 8 -94
-10 -158 -61 -217 -52 -62 -101 -80 -228 -85 -119 -5 -145 -16 -181 -77 -33
-57 1 -138 70 -167 43 -18 161 -18 249 1 242 51 405 256 405 510 0 349 -224
712 -543 881 l-67 35 19 27 c213 303 73 733 -282 859 -88 31 -233 40 -315 19z
m259 -268 c70 -33 125 -88 158 -157 21 -46 26 -70 25 -131 -1 -97 -28 -163
-95 -225 -65 -61 -127 -87 -209 -88 -158 -2 -277 90 -316 245 -35 136 36 285
168 354 79 41 183 42 269 2z"/>
<path d="M4771 6154 c-143 -38 -286 -151 -353 -280 -54 -104 -71 -180 -65
-299 5 -110 24 -173 80 -266 l33 -56 -63 -32 c-121 -63 -243 -168 -340 -294
-52 -67 -126 -203 -144 -266 -7 -23 -18 -45 -23 -47 -6 -2 -56 -5 -111 -7
-110 -4 -144 -17 -171 -68 -32 -63 -3 -148 61 -175 20 -8 67 -14 110 -14 l75
0 0 -53 c0 -158 112 -337 261 -417 88 -46 149 -60 274 -60 162 0 202 30 196
148 -1 12 -16 39 -35 59 l-34 37 -119 6 c-106 6 -125 9 -166 33 -113 67 -148
176 -113 359 29 152 100 283 216 399 84 84 197 156 298 190 62 20 65 21 130 4
86 -21 225 -21 299 0 72 21 95 16 221 -46 79 -39 121 -68 182 -126 123 -116
208 -255 215 -356 2 -27 11 -60 20 -73 21 -32 22 -177 2 -226 -22 -53 -77
-109 -132 -134 -41 -20 -67 -24 -145 -24 -107 0 -147 -16 -175 -69 -26 -51
-20 -96 19 -139 l34 -37 111 -3 c130 -4 191 7 280 51 145 71 248 218 272 388
l13 87 75 4 c87 5 121 22 145 73 20 42 20 68 0 111 -27 56 -69 72 -194 73
l-75 1 -23 63 c-49 138 -165 305 -282 409 -53 47 -219 159 -253 171 -9 3 -7 9
4 23 26 29 65 114 85 179 25 84 23 230 -5 315 -59 187 -214 335 -401 385 -69
19 -219 18 -289 -1z m285 -267 c64 -33 137 -113 158 -174 38 -110 9 -247 -67
-326 -68 -69 -125 -92 -232 -92 -78 0 -97 4 -141 27 -60 32 -118 93 -147 157
-34 72 -31 188 6 263 34 69 100 130 171 158 72 29 182 23 252 -13z"/>
<path d="M475 4361 c-11 -5 -31 -21 -45 -36 l-25 -27 -3 -1426 c-2 -1417 -2
-1427 18 -1460 39 -63 22 -62 745 -62 723 0 706 -1 745 62 18 30 20 50 20 196
l0 162 60 0 c63 0 161 -28 208 -58 15 -9 171 -138 347 -287 699 -588 812 -683
865 -722 189 -139 433 -234 680 -263 67 -8 462 -10 1330 -8 l1235 3 88 31
c109 39 181 82 263 157 299 273 311 745 26 1032 -104 105 -209 165 -346 199
-62 16 -145 18 -871 17 l-803 0 0 102 c-1 155 -32 259 -110 373 -22 33 -219
246 -437 474 -219 228 -501 525 -629 658 -131 139 -265 269 -309 303 -89 67
-208 128 -317 161 -74 22 -85 22 -677 26 l-603 3 0 160 0 159 -34 38 -34 37
-684 2 c-376 1 -692 -2 -703 -6z m1205 -461 l0 -220 -227 0 c-208 0 -231 -2
-260 -20 -17 -10 -37 -28 -43 -40 -16 -31 -15 -92 3 -127 30 -57 60 -63 306
-63 l221 0 0 -185 0 -185 -226 0 c-210 0 -229 -1 -259 -20 -80 -50 -77 -173 6
-216 22 -11 76 -14 254 -14 l225 0 0 -602 0 -603 -515 0 -515 0 0 1258 0 1257
515 0 515 0 0 -220z m1495 -213 c155 -55 196 -88 532 -440 980 -1023 984
-1027 1017 -1096 29 -61 31 -74 31 -171 0 -93 -3 -111 -27 -163 -38 -80 -117
-160 -197 -200 -62 -30 -72 -32 -176 -32 -179 0 -158 -16 -635 469 -223 226
-457 464 -520 529 -63 66 -127 125 -142 133 -94 49 -202 -30 -183 -133 6 -32
40 -72 233 -268 730 -741 852 -861 906 -894 282 -170 654 -106 850 146 l41 52
865 -2 865 -2 75 -36 c127 -61 205 -147 251 -275 30 -82 30 -225 1 -306 -50
-139 -160 -245 -302 -294 -53 -18 -106 -19 -1300 -19 -1021 0 -1258 2 -1315
14 -168 33 -361 115 -484 206 -34 25 -248 203 -475 394 -716 605 -734 619
-810 656 -90 43 -181 65 -273 65 l-73 0 0 850 0 851 583 -3 582 -3 80 -28z"/>
<path d="M6201 4142 c-35 -19 -71 -72 -71 -105 0 -11 41 -144 90 -297 130
-400 108 -383 513 -390 l278 -5 -191 -138 c-230 -167 -255 -188 -282 -241 -36
-71 -29 -116 60 -390 45 -138 80 -251 79 -253 -2 -1 -102 69 -222 157 -233
169 -275 190 -353 175 -51 -9 -77 -25 -304 -191 -109 -79 -200 -144 -203 -144
-3 0 2 17 10 38 47 122 155 484 155 518 0 24 -11 62 -27 95 -26 50 -44 66
-251 216 l-223 162 283 3 c270 3 285 4 325 25 66 36 97 82 138 211 44 138 43
171 -10 220 -28 26 -43 32 -80 32 -68 0 -107 -41 -142 -150 l-28 -85 -327 -5
-326 -5 -43 -30 c-27 -19 -54 -51 -72 -85 -26 -49 -28 -62 -24 -119 8 -98 29
-122 292 -314 127 -92 237 -172 245 -176 12 -8 0 -54 -75 -283 -48 -150 -90
-297 -93 -326 -8 -89 40 -176 122 -220 43 -23 151 -22 195 2 27 15 355 248
467 332 l30 24 248 -180 c291 -211 330 -227 436 -179 90 41 134 108 134 204 0
48 -18 113 -87 321 -47 144 -87 269 -89 279 -2 12 65 66 247 199 223 162 252
187 274 231 60 115 8 260 -111 309 -31 13 -91 16 -347 16 l-311 1 -80 248
c-81 249 -92 272 -147 300 -31 16 -63 14 -102 -7z"/>
</g>
</svg>
