<?xml version="1.0" standalone="no"?>
<!DOCTYPE svg PUBLIC "-//W3C//DTD SVG 1.0//EN" "http://www.w3.org/TR/2001/REC-SVG-20010904/DTD/svg10.dtd">
<svg xmlns="http://www.w3.org/2000/svg" xmlns:xlink="http://www.w3.org/1999/xlink" id="body_1" width="36" height="36">

<g transform="matrix(0.0703125 0 0 0.0703125 0 0)">
	<g>
		<g>
            <path d="M182.8 384L182.8 212.9L127.9 212.9L127.9 384L182.8 384zM157.4 187C 175.7 187 187.09999 173.9 187.09999 157.5C 186.79999 140.8 175.7 128 157.7 128C 139.7 128 128 140.8 128 157.5C 128 173.9 139.4 187 157 187L157 187L157.4 187z" stroke="none" fill="#000000" fill-rule="nonzero" />
            <path d="M320.6 209C 291.5 209 279 225.4 271 236.8L271 236.8L271 213L216 213L216 384L271 384L271 286.6C 271 281.6 271.4 276.6 272.9 273.1C 276.9 263.1 285.9 252.8 301.1 252.8C 321 252.8 329 268.1 329 290.5L329 290.5L329 384L384 384L384 284.1C 384 232.8 356.8 209 320.6 209z" stroke="none" fill="#000000" fill-rule="nonzero" />
		</g>
        <path d="M417.2 64L96.8 64C 79.3 64 64 76.6 64 93.9L64 93.9L64 415C 64 432.4 79.3 447.9 96.8 447.9L96.8 447.9L417.09998 447.9C 434.69998 447.9 447.89996 432.3 447.89996 415L447.89996 415L447.89996 93.9C 448 76.6 434.7 64 417.2 64zM414 416C 412.9 416 100.899994 416 99.100006 416C 97.30002 416 96.00001 414.6 96.00001 412.9C 96.00001 411.19998 96 99.1 96 98C 96 96.9 97 96 98 96C 99 96 413 96 414 96C 415 96 416 97 416 98C 416 121.3 416 412.9 416 414C 416 414.9 415.1 416 414 416z" stroke="none" fill="#000000" fill-rule="nonzero" />
	</g>
</g>
</svg>