<?xml version="1.0" standalone="no"?>
<!DOCTYPE svg PUBLIC "-//W3C//DTD SVG 1.0//EN" "http://www.w3.org/TR/2001/REC-SVG-20010904/DTD/svg10.dtd">
<svg xmlns="http://www.w3.org/2000/svg" xmlns:xlink="http://www.w3.org/1999/xlink" id="body_1" width="1024" height="768">

<g transform="matrix(15.36 0 0 15.36 127.999985 -0)">
    <path d="M45 1L5 1C 2.8 1 1 2.8 1 5L1 5L1 45C 1 47.2 2.8 49 5 49L5 49L45 49C 47.2 49 49 47.2 49 45L49 45L49 5C 49 2.8 47.2 1 45 1z" stroke="none" fill="#0E76A8" fill-rule="nonzero" />
	<g>
        <path d="M21.3 20.7L26.5 20.7L26.5 23.300001C 27.2 21.900002 29.1 20.7 31.7 20.7C 37.2 20.7 37.8 23.800001 37.8 28.5L37.8 28.5L37.8 38L32.6 38L32.6 29.3C 32.6 27.3 32.8 25 29.999998 25C 26.499998 25 26.499998 27.1 26.499998 29.3L26.499998 29.3L26.499998 38L21.3 38L21.3 20.7z" stroke="none" fill="#FFFFFF" fill-rule="nonzero" />
        <path d="M12.7 20.7L17.9 20.7L17.9 38L12.7 38z" stroke="none" fill="#FFFFFF" fill-rule="nonzero" />
        <path d="M18.3 15C 18.3 15.828428 18.007107 16.535536 17.42132 17.12132C 16.835533 17.707108 16.128428 18 15.3 18C 14.471574 18 13.764467 17.707108 13.17868 17.12132C 12.592895 16.535536 12.300001 15.828428 12.3 15C 12.300001 14.171574 12.592895 13.464467 13.17868 12.878679C 13.764467 12.292893 14.471574 12 15.3 12C 16.128428 12 16.835533 12.292893 17.42132 12.878679C 18.007107 13.464467 18.3 14.171574 18.3 15C 18.3 15.03491 18.29939 15.06981 18.298172 15.104698" stroke="none" fill="#FFFFFF" fill-rule="nonzero" />
	</g>
</g>
</svg>