<?xml version="1.0" encoding="UTF-8"?>
<svg xmlns="http://www.w3.org/2000/svg" xmlns:xlink="http://www.w3.org/1999/xlink" width="36px" height="36px" viewBox="0 0 36 36" version="1.1">
<g id="surface1">
<path style=" stroke:none;fill-rule:nonzero;fill:rgb(0%,0%,0%);fill-opacity:1;" d="M 5.398438 18.140625 C 5.398438 27.949219 4.1875 35.898438 2.699219 35.898438 C 1.207031 35.898438 0 27.949219 0 18.140625 C 0 8.332031 1.207031 0.382812 2.699219 0.382812 C 4.1875 0.382812 5.398438 8.332031 5.398438 18.140625 M 8.359375 18.140625 C 8.359375 27.375 7.753906 34.855469 7.007812 34.855469 C 6.261719 34.855469 5.660156 27.371094 5.660156 18.140625 C 5.660156 8.910156 6.261719 1.425781 7.007812 1.425781 C 7.753906 1.425781 8.359375 8.910156 8.359375 18.140625 M 9.570312 18.140625 C 9.570312 26.414062 9.355469 33.117188 9.09375 33.117188 C 8.832031 33.117188 8.621094 26.410156 8.621094 18.140625 C 8.621094 9.871094 8.832031 3.164062 9.09375 3.164062 C 9.355469 3.164062 9.570312 9.871094 9.570312 18.140625 M 17.015625 1.921875 L 17.023438 1.914062 L 17.023438 1.53125 L 15.488281 1.53125 L 14.066406 23.421875 L 12.640625 1.53125 L 10.984375 1.53125 L 10.984375 1.914062 L 10.992188 1.921875 C 11.273438 2.335938 11.414062 2.953125 11.414062 5.175781 L 11.414062 31.191406 C 11.414062 33.414062 11.273438 34.03125 10.992188 34.445312 L 10.984375 34.457031 L 10.984375 34.835938 L 12.105469 34.835938 L 12.105469 34.457031 L 12.101562 34.445312 C 11.820312 34.035156 11.675781 33.417969 11.675781 31.195312 L 11.675781 6.683594 L 13.507812 34.835938 L 13.613281 34.835938 L 15.496094 5.898438 L 15.496094 31.835938 C 15.472656 33.59375 15.332031 34.132812 15.078125 34.507812 L 15.070312 34.519531 L 15.070312 34.898438 L 17.023438 34.898438 L 17.023438 34.519531 L 17.015625 34.507812 C 16.761719 34.132812 16.617188 33.59375 16.59375 31.835938 L 16.59375 5.175781 C 16.59375 2.953125 16.738281 2.335938 17.015625 1.921875 M 17.910156 19.160156 C 17.941406 14.484375 18.199219 11.109375 18.628906 11.050781 C 18.761719 11.066406 18.875 11.351562 18.960938 11.898438 C 19.144531 13.066406 19.230469 15.511719 19.21875 19.160156 Z M 17.890625 20.476562 L 20.179688 20.476562 L 20.179688 20.414062 C 20.175781 16.839844 20.015625 14.058594 19.710938 12.148438 C 19.445312 10.5 19.054688 9.589844 18.644531 9.589844 L 18.636719 9.589844 C 18.421875 9.589844 18.160156 9.929688 17.976562 10.539062 C 17.761719 11.183594 17.578125 12.140625 17.421875 13.398438 C 17.171875 15.425781 17.019531 18.160156 16.984375 21.238281 C 16.980469 21.332031 16.980469 21.421875 16.980469 21.515625 C 16.976562 21.609375 16.976562 21.691406 16.976562 21.777344 C 16.972656 22.210938 16.972656 22.644531 16.972656 23.078125 C 17 30.046875 17.574219 35.617188 18.597656 35.617188 C 19.496094 35.617188 20.019531 31.324219 20.148438 25.566406 L 20.082031 25.414062 C 19.855469 28.511719 19.441406 30.386719 18.972656 30.15625 C 18.335938 29.84375 17.84375 25.609375 17.890625 20.476562 M 22.769531 29.921875 C 22.695312 31.085938 22.539062 31.726562 22.328125 31.726562 C 22.121094 31.726562 21.925781 30.785156 21.789062 29.070312 C 21.644531 27.234375 21.566406 24.632812 21.566406 21.554688 C 21.566406 15.148438 21.871094 11 22.34375 11 C 22.542969 11 22.695312 11.640625 22.769531 12.761719 Z M 24.292969 34.488281 C 24.011719 34.054688 23.867188 33.410156 23.867188 31.074219 L 23.867188 0 L 22.167969 3.277344 L 22.167969 3.679688 L 22.175781 3.671875 C 22.410156 3.550781 22.570312 3.761719 22.664062 4.320312 C 22.734375 4.757812 22.769531 5.425781 22.769531 6.371094 L 22.769531 10.632812 C 22.605469 9.929688 22.402344 9.589844 22.160156 9.589844 C 21.671875 9.589844 21.222656 10.941406 20.898438 13.398438 C 20.558594 15.953125 20.382812 19.449219 20.382812 23.507812 C 20.382812 30.75 20.925781 35.617188 21.738281 35.617188 C 22.214844 35.617188 22.597656 33.914062 22.769531 31.046875 L 22.769531 34.898438 L 24.296875 34.898438 L 24.296875 34.5 Z M 25.75 4.226562 C 25.75 1.964844 25.488281 0.257812 25.144531 0.257812 C 24.800781 0.257812 24.53125 2.003906 24.53125 4.226562 C 24.53125 6.449219 24.800781 8.191406 25.144531 8.191406 C 25.488281 8.191406 25.75 6.488281 25.75 4.226562 M 26.152344 34.488281 C 25.871094 34.054688 25.730469 33.410156 25.730469 31.074219 L 25.730469 9.664062 L 24.203125 12.53125 L 24.203125 12.917969 L 24.210938 12.925781 C 24.542969 13.117188 24.632812 13.859375 24.632812 16.382812 L 24.632812 34.898438 L 26.160156 34.898438 L 26.160156 34.5 Z M 30.066406 34.488281 C 29.785156 34.054688 29.644531 33.410156 29.644531 31.074219 L 29.644531 9.664062 L 28.1875 12.433594 L 28.1875 12.824219 L 28.199219 12.832031 C 28.46875 13.015625 28.546875 13.804688 28.546875 16.339844 L 28.546875 29.871094 C 28.457031 31.039062 28.289062 31.730469 28.082031 31.777344 C 27.75 31.777344 27.566406 30.3125 27.566406 27.648438 L 27.566406 9.664062 L 26.039062 12.53125 L 26.039062 12.917969 L 26.050781 12.925781 C 26.378906 13.117188 26.46875 13.859375 26.46875 16.382812 L 26.46875 27.839844 C 26.46875 28.636719 26.480469 29.4375 26.503906 30.222656 L 26.53125 31.003906 C 26.660156 34.03125 26.996094 35.617188 27.527344 35.617188 C 27.976562 35.617188 28.371094 33.796875 28.546875 30.953125 L 28.546875 34.902344 L 30.074219 34.902344 L 30.074219 34.503906 Z M 36 34.898438 L 36 34.496094 L 35.992188 34.488281 C 35.6875 34.027344 35.570312 33.164062 35.570312 31.40625 L 35.570312 16.84375 C 35.570312 12.300781 35.179688 9.589844 34.523438 9.589844 C 34.046875 9.589844 33.648438 11.390625 33.492188 14.191406 C 33.367188 11.222656 33.015625 9.589844 32.492188 9.589844 C 32.035156 9.589844 31.671875 11.175781 31.519531 13.847656 L 31.519531 9.664062 L 29.992188 12.414062 L 29.992188 12.804688 L 30 12.8125 C 30.328125 13 30.421875 13.765625 30.421875 16.222656 L 30.421875 34.898438 L 31.847656 34.898438 L 31.847656 34.5 L 31.839844 34.488281 C 31.597656 34.113281 31.519531 33.433594 31.519531 31.691406 L 31.519531 15 C 31.582031 14.019531 31.710938 12.859375 31.96875 12.859375 C 32.285156 12.859375 32.445312 14.296875 32.445312 17.128906 L 32.445312 34.898438 L 33.871094 34.898438 L 33.871094 34.5 L 33.863281 34.488281 C 33.621094 34.113281 33.542969 33.433594 33.542969 31.691406 L 33.542969 16.839844 C 33.542969 16.285156 33.535156 15.730469 33.523438 15.183594 C 33.589844 14.117188 33.726562 12.859375 33.992188 12.859375 C 34.316406 12.859375 34.472656 14.253906 34.472656 17.128906 L 34.472656 34.898438 Z M 36 34.898438 "/>
</g>
</svg>
