<?xml version="1.0" standalone="no"?>
<!DOCTYPE svg PUBLIC "-//W3C//DTD SVG 20010904//EN"
 "http://www.w3.org/TR/2001/REC-SVG-20010904/DTD/svg10.dtd">
<svg version="1.0" xmlns="http://www.w3.org/2000/svg"
 width="728.000000pt" height="433.000000pt" viewBox="0 0 728.000000 433.000000"
 preserveAspectRatio="xMidYMid meet">

<g transform="translate(0.000000,433.000000) scale(0.100000,-0.100000)"
fill="#000000" stroke="none">
<path d="M3350 4203 c0 -84 17 -100 22 -20 l3 52 18 -52 c10 -29 25 -53 32
-53 7 0 22 24 32 53 l18 52 3 -52 c2 -39 7 -53 18 -53 12 0 14 13 12 72 -2 59
-6 72 -20 74 -21 3 -28 -6 -48 -64 l-16 -44 -17 54 c-13 42 -21 54 -37 54 -18
0 -20 -7 -20 -73z"/>
<path d="M3926 4272 c-3 -5 -16 -39 -29 -75 -23 -64 -24 -67 -6 -67 11 0 19 7
19 15 0 10 10 15 29 15 16 0 31 -6 35 -15 3 -8 13 -15 22 -15 9 0 13 6 11 13
-3 6 -14 36 -23 65 -17 50 -46 82 -58 64z m28 -64 c5 -21 3 -28 -9 -28 -15 0
-22 40 -8 53 8 9 9 8 17 -25z"/>
<path d="M3756 4239 c-11 -13 -14 -24 -8 -28 6 -3 12 -22 14 -41 2 -27 8 -36
26 -38 12 -2 22 1 22 7 0 6 -4 11 -10 11 -15 0 -12 57 3 64 10 5 10 7 0 12 -7
3 -13 12 -13 20 0 20 -13 17 -34 -7z"/>
<path d="M3546 4214 c-19 -18 -21 -55 -4 -72 15 -15 64 -16 73 -2 3 6 -5 10
-19 10 -14 0 -28 5 -31 10 -4 6 7 10 24 10 23 0 31 5 31 18 0 39 -45 55 -74
26z m49 -14 c3 -5 -3 -10 -15 -10 -12 0 -18 5 -15 10 3 6 10 10 15 10 5 0 12
-4 15 -10z"/>
<path d="M3658 4219 c-21 -12 -24 -59 -6 -77 17 -17 68 -15 68 2 0 9 -7 12
-19 9 -10 -3 -22 0 -25 6 -5 7 4 11 23 11 23 0 31 5 31 18 0 37 -36 52 -72 31z
m47 -19 c3 -5 -3 -10 -15 -10 -12 0 -18 5 -15 10 3 6 10 10 15 10 5 0 12 -4
15 -10z"/>
<path d="M4030 4153 c0 -55 3 -74 13 -71 6 3 13 16 15 30 2 19 8 25 21 21 20
-5 51 21 51 43 0 36 -20 53 -60 52 l-40 0 0 -75z m67 41 c3 -8 -1 -22 -9 -30
-13 -13 -16 -13 -28 0 -10 13 -10 19 0 31 16 19 29 19 37 -1z"/>
<path d="M4152 4157 c2 -45 7 -72 16 -75 8 -2 12 7 12 26 0 25 3 29 20 25 28
-7 50 14 50 47 0 35 -15 47 -63 47 l-38 1 3 -71z m63 23 c0 -13 -6 -25 -12
-27 -16 -6 -27 21 -19 43 9 23 31 11 31 -16z"/>
<path d="M2910 3725 c0 -66 16 -91 22 -33 4 46 28 49 28 4 0 -26 4 -36 16 -36
12 0 14 9 12 43 -3 39 -5 42 -30 40 -23 -1 -28 2 -28 23 0 13 -4 24 -10 24 -6
0 -10 -28 -10 -65z"/>
<path d="M4607 3784 c-8 -8 1 -24 14 -24 5 0 9 7 9 15 0 15 -12 20 -23 9z"/>
<path d="M2806 3758 c-32 -46 -5 -101 47 -96 38 4 47 24 11 23 -57 0 -57 66 0
73 38 5 32 22 -8 22 -25 0 -39 -7 -50 -22z"/>
<path d="M4407 3757 c-2 -7 -2 -30 2 -52 5 -31 11 -41 29 -43 12 -2 22 1 22 7
0 6 -4 11 -10 11 -14 0 -12 48 2 52 9 3 8 9 -4 21 -20 20 -34 22 -41 4z"/>
<path d="M4657 3757 c-2 -7 -2 -30 2 -52 5 -31 11 -41 29 -43 12 -2 22 1 22 7
0 6 -4 11 -10 11 -15 0 -12 47 4 53 9 4 19 -8 29 -34 14 -35 14 -41 0 -55 -19
-18 -8 -32 14 -18 13 8 53 95 53 117 0 18 -20 4 -26 -18 -3 -14 -10 -25 -14
-25 -4 0 -11 11 -14 25 -5 18 -13 25 -31 25 -14 0 -25 5 -25 10 0 15 -27 12
-33 -3z"/>
<path d="M3022 3738 c-7 -7 -12 -21 -12 -33 0 -12 5 -26 12 -33 29 -29 78 -7
78 35 0 35 -53 56 -78 31z m48 -33 c0 -25 -23 -35 -35 -15 -10 16 2 40 20 40
9 0 15 -9 15 -25z"/>
<path d="M3126 3734 c-9 -8 -16 -22 -16 -29 0 -20 28 -45 50 -45 22 0 50 25
50 45 0 20 -28 45 -50 45 -10 0 -26 -7 -34 -16z m51 -20 c8 -21 -13 -42 -28
-27 -13 13 -5 43 11 43 6 0 13 -7 17 -16z"/>
<path d="M3233 3743 c-20 -7 -15 -29 10 -46 l22 -16 -22 0 c-13 -1 -23 -5 -23
-11 0 -16 46 -12 61 6 11 14 9 19 -11 35 -20 15 -22 19 -7 19 9 0 17 5 17 10
0 10 -26 12 -47 3z"/>
<path d="M3312 3738 c-29 -29 -7 -78 35 -78 13 0 23 5 23 10 0 6 -9 10 -20 10
-11 0 -20 5 -20 10 0 6 11 10 25 10 14 0 25 6 25 13 0 18 -21 37 -40 37 -9 0
-21 -5 -28 -12z m43 -18 c-3 -5 -10 -10 -16 -10 -5 0 -9 5 -9 10 0 6 7 10 16
10 8 0 12 -4 9 -10z"/>
<path d="M3440 3741 c0 -5 7 -26 16 -47 15 -35 15 -39 0 -50 -20 -14 -21 -24
-2 -24 19 0 31 17 55 78 17 41 18 52 7 52 -8 0 -18 -15 -22 -32 l-7 -33 -14
33 c-12 29 -33 44 -33 23z"/>
<path d="M3546 3734 c-9 -8 -16 -22 -16 -29 0 -20 28 -45 50 -45 22 0 50 25
50 45 0 20 -28 45 -50 45 -10 0 -26 -7 -34 -16z m51 -20 c8 -21 -13 -42 -28
-27 -13 13 -5 43 11 43 6 0 13 -7 17 -16z"/>
<path d="M3649 3708 c6 -41 7 -43 44 -45 l37 -2 0 44 c0 33 -4 45 -15 45 -10
0 -15 -11 -15 -35 0 -24 -5 -35 -15 -35 -10 0 -15 11 -15 35 0 22 -5 35 -13
35 -10 0 -12 -11 -8 -42z"/>
<path d="M3750 3704 c0 -32 4 -44 15 -44 10 0 15 10 15 30 0 20 5 30 15 30 30
0 15 27 -15 28 -29 1 -30 -1 -30 -44z"/>
<path d="M3870 3705 c0 -33 4 -45 15 -45 11 0 15 11 15 36 0 45 24 42 28 -4 5
-48 24 -38 20 11 -3 41 -4 42 -40 44 l-38 2 0 -44z"/>
<path d="M3982 3738 c-29 -29 -7 -78 34 -78 13 0 26 5 29 10 4 6 -5 10 -19 10
-14 0 -26 5 -26 10 0 6 11 10 25 10 14 0 25 6 25 13 0 18 -21 37 -40 37 -9 0
-21 -5 -28 -12z m48 -18 c0 -5 -7 -10 -15 -10 -8 0 -15 5 -15 10 0 6 7 10 15
10 8 0 15 -4 15 -10z"/>
<path d="M4077 3743 c-14 -14 -6 -20 21 -16 l27 3 -25 -12 c-51 -25 -47 -58 6
-56 32 1 34 3 34 39 0 24 -5 39 -16 43 -20 8 -39 8 -47 -1z m38 -53 c-3 -5
-10 -10 -16 -10 -5 0 -9 5 -9 10 0 6 7 10 16 10 8 0 12 -4 9 -10z"/>
<path d="M4160 3704 c0 -32 4 -44 15 -44 10 0 15 10 15 30 0 20 5 30 15 30 30
0 15 27 -15 28 -29 1 -30 -1 -30 -44z"/>
<path d="M4242 3738 c-29 -29 -7 -78 35 -78 13 0 23 5 23 10 0 6 -9 10 -19 10
-11 0 -23 5 -26 10 -4 6 7 10 24 10 19 0 31 5 31 13 0 18 -21 37 -40 37 -9 0
-21 -5 -28 -12z m38 -18 c0 -5 -4 -10 -10 -10 -5 0 -10 5 -10 10 0 6 5 10 10
10 6 0 10 -4 10 -10z"/>
<path d="M4329 3734 c-11 -14 -9 -19 11 -35 l25 -19 -22 0 c-13 0 -23 -4 -23
-10 0 -16 46 -12 61 6 11 14 9 19 -11 35 -20 15 -22 19 -7 19 9 0 17 5 17 10
0 16 -36 12 -51 -6z"/>
<path d="M4532 3738 c-29 -29 -7 -78 35 -78 30 0 30 18 1 22 -15 2 -23 10 -23
23 0 13 8 21 23 23 12 2 22 8 22 13 0 13 -44 11 -58 -3z"/>
<path d="M4600 3705 c0 -33 4 -45 15 -45 11 0 15 12 15 45 0 33 -4 45 -15 45
-11 0 -15 -12 -15 -45z"/>
<path d="M3023 3305 c0 -22 2 -30 4 -17 2 12 2 30 0 40 -3 9 -5 -1 -4 -23z"/>
<path d="M3203 3305 c0 -22 2 -30 4 -17 2 12 2 30 0 40 -3 9 -5 -1 -4 -23z"/>
<path d="M3333 3305 c0 -22 2 -30 4 -17 2 12 2 30 0 40 -3 9 -5 -1 -4 -23z"/>
<path d="M3783 3305 c0 -22 2 -30 4 -17 2 12 2 30 0 40 -3 9 -5 -1 -4 -23z"/>
<path d="M3840 3331 c0 -5 -9 -11 -21 -14 -28 -7 -21 -41 9 -45 19 -3 22 1 22
32 0 20 -2 36 -5 36 -3 0 -5 -4 -5 -9z m0 -36 c0 -8 -7 -15 -15 -15 -8 0 -15
7 -15 15 0 8 7 15 15 15 8 0 15 -7 15 -15z"/>
<path d="M4083 3305 c0 -22 2 -30 4 -17 2 12 2 30 0 40 -3 9 -5 -1 -4 -23z"/>
<path d="M4132 3305 c0 -22 2 -34 5 -27 4 10 8 10 21 0 15 -11 15 -11 5 3 -10
12 -10 18 0 29 10 12 9 12 -5 1 -14 -10 -17 -9 -21 11 -2 13 -5 6 -5 -17z"/>
<path d="M4558 3333 c6 -2 9 -10 6 -15 -4 -7 -2 -8 5 -4 13 9 5 26 -12 25 -9
0 -8 -2 1 -6z"/>
<path d="M4260 3307 c0 -14 4 -28 8 -31 9 -5 8 41 -1 51 -4 3 -7 -5 -7 -20z"/>
<path d="M3055 3311 c-3 -6 0 -8 9 -5 9 4 16 -2 19 -18 5 -23 5 -23 4 1 -2 26
-21 39 -32 22z"/>
<path d="M3150 3314 c0 -5 7 -18 15 -28 8 -11 15 -16 15 -10 0 5 -7 18 -15 28
-8 11 -15 16 -15 10z"/>
<path d="M3225 3310 c3 -5 8 -10 11 -10 2 0 4 5 4 10 0 6 -5 10 -11 10 -5 0
-7 -4 -4 -10z"/>
<path d="M3262 3295 c0 -16 2 -22 5 -12 2 9 2 23 0 30 -3 6 -5 -1 -5 -18z"/>
<path d="M3284 3305 c-7 -17 3 -35 19 -34 9 0 9 2 0 6 -7 2 -13 11 -13 18 0 7
6 16 13 18 9 4 9 6 -1 6 -7 1 -15 -6 -18 -14z"/>
<path d="M3358 3293 c5 -21 7 -23 10 -9 2 10 0 22 -6 28 -6 6 -7 0 -4 -19z"/>
<path d="M3414 3305 c-7 -17 3 -35 19 -34 9 0 9 2 0 6 -7 2 -13 11 -13 18 0 7
6 16 13 18 9 4 9 6 -1 6 -7 1 -15 -6 -18 -14z"/>
<path d="M3545 3309 c-4 -6 -5 -12 -2 -15 2 -3 7 2 10 11 7 17 1 20 -8 4z"/>
<path d="M3591 3313 c-1 -6 2 -19 5 -27 6 -15 8 -15 20 1 7 10 13 23 13 28 0
6 -5 1 -11 -10 -11 -19 -11 -19 -19 0 -4 11 -8 15 -8 8z"/>
<path d="M3664 3305 c-4 -9 -2 -21 4 -27 15 -15 44 -1 40 19 -4 23 -36 29 -44
8z m36 -10 c0 -8 -7 -15 -15 -15 -8 0 -15 7 -15 15 0 8 7 15 15 15 8 0 15 -7
15 -15z"/>
<path d="M3724 3295 c1 -20 36 -36 36 -16 0 6 -6 8 -14 5 -9 -3 -16 2 -19 13
-3 15 -4 15 -3 -2z"/>
<path d="M3912 3295 c-17 -37 -14 -45 4 -12 9 16 14 31 11 33 -2 2 -9 -7 -15
-21z"/>
<path d="M3946 3311 c-4 -5 3 -7 14 -4 23 6 26 13 6 13 -8 0 -17 -4 -20 -9z"/>
<path d="M4030 3299 c0 -15 -5 -19 -15 -15 -8 3 -15 1 -15 -4 0 -6 9 -10 20
-10 15 0 20 7 20 25 0 14 -2 25 -5 25 -3 0 -5 -9 -5 -21z"/>
<path d="M4187 3314 c-14 -14 -7 -44 11 -44 14 0 15 2 2 10 -13 8 -12 10 3 10
10 0 17 5 15 12 -5 14 -22 21 -31 12z"/>
<path d="M4294 3305 c-4 -9 -2 -21 4 -27 15 -15 44 -1 40 19 -4 23 -36 29 -44
8z m36 -10 c0 -8 -7 -15 -15 -15 -8 0 -15 7 -15 15 0 8 7 15 15 15 8 0 15 -7
15 -15z"/>
<path d="M4381 3288 c0 -20 -7 -39 -13 -41 -10 -4 -10 -6 0 -6 17 -1 24 21 19
56 -3 24 -4 23 -6 -9z"/>
<path d="M4404 3305 c-4 -9 -2 -21 4 -27 15 -15 44 -1 40 19 -4 23 -36 29 -44
8z m36 -10 c0 -8 -7 -15 -15 -15 -8 0 -15 7 -15 15 0 8 7 15 15 15 8 0 15 -7
15 -15z"/>
<path d="M4462 3295 c0 -16 2 -22 5 -12 2 9 2 23 0 30 -3 6 -5 -1 -5 -18z"/>
<path d="M4490 3311 c0 -6 6 -8 14 -5 9 4 16 -3 19 -18 5 -22 5 -22 4 2 -2 24
-37 44 -37 21z"/>
<path d="M3462 3290 c0 -14 2 -19 5 -12 2 6 2 18 0 25 -3 6 -5 1 -5 -13z"/>
<path d="M3130 3291 c0 -5 5 -13 10 -16 6 -3 10 -2 10 4 0 5 -4 13 -10 16 -5
3 -10 2 -10 -4z"/>
<path d="M3524 3286 c4 -10 1 -26 -6 -35 -11 -14 -10 -14 6 0 15 14 16 20 6
35 -11 18 -11 18 -6 0z"/>
<path d="M3635 3289 c-4 -6 -5 -12 -2 -15 2 -3 7 2 10 11 7 17 1 20 -8 4z"/>
<path d="M3948 3278 c5 -5 16 -8 23 -6 8 3 3 7 -10 11 -17 4 -21 3 -13 -5z"/>
<path d="M60 3133 c0 -28 4 -33 23 -32 16 1 18 2 5 6 -10 2 -18 9 -18 14 0 5
8 9 18 10 13 0 14 2 2 6 -8 3 -18 11 -22 17 -4 6 -8 -4 -8 -21z"/>
<path d="M337 3152 c-2 -4 -1 -18 4 -32 7 -24 7 -24 8 -2 1 12 5 22 10 22 5 0
12 -10 14 -22 4 -21 4 -20 6 3 1 19 -5 28 -19 32 -11 3 -22 2 -23 -1z"/>
<path d="M140 3136 c0 -9 -4 -14 -10 -11 -5 3 -10 2 -10 -4 0 -5 4 -12 9 -16
11 -6 26 33 17 42 -3 4 -6 -1 -6 -11z"/>
<path d="M167 3144 c-14 -14 -7 -44 11 -44 14 0 15 2 2 10 -13 8 -12 10 3 10
10 0 17 5 15 12 -5 14 -22 21 -31 12z"/>
<path d="M211 3123 c2 -24 2 -25 6 -5 8 42 27 23 26 -25 -1 -23 8 -14 19 19
11 31 11 31 20 8 5 -12 11 -20 14 -17 3 3 0 15 -7 28 -11 21 -13 21 -24 6 -11
-15 -13 -16 -19 -2 -10 27 -36 18 -35 -12z"/>
<path d="M303 3137 c4 -10 7 -23 7 -28 0 -5 5 -9 10 -9 15 0 12 20 -7 38 -16
16 -16 16 -10 -1z"/>
<path d="M394 3136 c-8 -20 3 -36 24 -35 14 0 13 2 -3 9 -18 8 -18 9 -2 9 10
1 17 6 15 13 -7 19 -27 21 -34 4z"/>
<path d="M440 3125 c0 -14 2 -25 4 -25 2 0 6 11 8 25 3 14 1 25 -3 25 -5 0 -9
-11 -9 -25z"/>
<path d="M477 3144 c-16 -17 -7 -44 16 -43 21 0 21 1 2 9 -18 8 -18 9 -2 9 10
1 17 6 15 13 -5 14 -22 21 -31 12z"/>
<path d="M2622 2935 c0 -22 2 -32 5 -23 2 9 14 19 26 21 l22 4 -22 2 c-12 0
-24 9 -26 19 -3 9 -5 -1 -5 -23z"/>
<path d="M3623 2935 c0 -22 2 -30 4 -17 2 12 2 30 0 40 -3 9 -5 -1 -4 -23z"/>
<path d="M3680 2961 c0 -5 -9 -11 -20 -14 -20 -5 -27 -31 -11 -41 5 -4 7 3 4
14 -4 14 0 20 12 20 12 0 16 -6 12 -20 -3 -11 -1 -20 4 -20 5 0 9 16 9 35 0
19 -2 35 -5 35 -3 0 -5 -4 -5 -9z"/>
<path d="M3923 2935 c0 -22 2 -30 4 -17 2 12 2 30 0 40 -3 9 -5 -1 -4 -23z"/>
<path d="M3971 2936 c0 -22 0 -37 2 -35 1 2 11 15 22 29 14 17 15 21 3 12 -14
-11 -17 -10 -21 10 -3 14 -5 8 -6 -16z"/>
<path d="M4573 2935 c0 -22 2 -30 4 -17 2 12 2 30 0 40 -3 9 -5 -1 -4 -23z"/>
<path d="M4948 2962 c7 -5 10 -17 6 -28 -5 -16 -4 -16 5 -4 16 22 13 40 -6 40
-13 0 -15 -2 -5 -8z"/>
<path d="M3328 2955 c-7 -7 3 -55 11 -55 8 0 7 47 -1 55 -2 3 -7 3 -10 0z"/>
<path d="M4098 2955 c-7 -7 3 -55 11 -55 8 0 7 47 -1 55 -2 3 -7 3 -10 0z"/>
<path d="M4538 2955 c-7 -7 3 -55 11 -55 8 0 7 47 -1 55 -2 3 -7 3 -10 0z"/>
<path d="M2693 2934 c-3 -8 -1 -20 5 -26 13 -13 42 -3 41 14 0 10 -2 10 -6 1
-7 -18 -33 -16 -33 1 0 8 8 17 18 19 16 4 16 5 -1 6 -10 0 -20 -6 -24 -15z"/>
<path d="M2771 2945 c0 -5 6 -18 13 -28 14 -18 15 -17 21 3 4 12 4 24 1 27 -3
4 -6 -2 -6 -12 0 -18 -1 -18 -15 1 -8 10 -14 15 -14 9z"/>
<path d="M2852 2925 c0 -16 2 -22 5 -12 2 9 2 23 0 30 -3 6 -5 -1 -5 -18z"/>
<path d="M2878 2923 c5 -21 7 -23 10 -9 2 10 0 22 -6 28 -6 6 -7 0 -4 -19z"/>
<path d="M2908 2923 c5 -21 7 -23 10 -9 2 10 0 22 -6 28 -6 6 -7 0 -4 -19z"/>
<path d="M2948 2942 c11 -7 11 -10 -2 -15 -18 -7 -22 -27 -5 -27 5 0 7 5 4 10
-3 6 -2 10 4 10 5 0 12 -6 15 -12 3 -7 4 -2 3 11 -1 14 -9 26 -17 28 -12 4
-12 3 -2 -5z"/>
<path d="M2995 2941 c-3 -6 0 -8 9 -5 9 4 16 -2 19 -18 5 -23 5 -23 4 1 -2 26
-21 39 -32 22z"/>
<path d="M3044 2912 c1 -36 3 -40 14 -25 14 20 16 33 3 33 -5 0 -11 8 -14 18
-2 9 -3 -2 -3 -26z"/>
<path d="M3127 2944 c-14 -14 -7 -44 11 -44 14 0 15 2 2 10 -13 8 -12 10 3 10
10 0 17 5 15 12 -5 14 -22 21 -31 12z"/>
<path d="M3227 2944 c-14 -14 -7 -44 11 -44 14 0 15 2 2 10 -13 8 -12 10 3 10
10 0 17 5 15 12 -5 14 -22 21 -31 12z"/>
<path d="M3272 2925 c0 -16 2 -22 5 -12 2 9 2 23 0 30 -3 6 -5 -1 -5 -18z"/>
<path d="M3295 2940 c3 -5 8 -10 11 -10 2 0 4 5 4 10 0 6 -5 10 -11 10 -5 0
-7 -4 -4 -10z"/>
<path d="M3365 2941 c-3 -5 0 -13 6 -17 8 -4 7 -9 -2 -15 -11 -7 -10 -9 4 -9
19 0 23 15 6 26 -8 4 -7 9 2 15 10 6 10 9 2 9 -6 0 -14 -4 -18 -9z"/>
<path d="M3455 2940 c-3 -5 -1 -10 4 -10 6 0 11 5 11 10 0 6 -2 10 -4 10 -3 0
-8 -4 -11 -10z"/>
<path d="M3504 2935 c-4 -9 -2 -21 4 -27 15 -15 44 -1 40 19 -4 23 -36 29 -44
8z m36 -10 c0 -8 -7 -15 -15 -15 -8 0 -15 7 -15 15 0 8 7 15 15 15 8 0 15 -7
15 -15z"/>
<path d="M3560 2931 c0 -11 4 -22 9 -25 4 -3 6 6 3 19 -5 30 -12 33 -12 6z"/>
<path d="M3726 2937 c3 -10 9 -15 12 -12 3 3 0 11 -7 18 -10 9 -11 8 -5 -6z"/>
<path d="M3786 2942 c-2 -4 4 -8 14 -8 10 0 16 4 14 8 -3 4 -9 8 -14 8 -5 0
-11 -4 -14 -8z"/>
<path d="M3870 2929 c0 -15 -5 -19 -15 -15 -8 3 -15 1 -15 -4 0 -6 9 -10 20
-10 15 0 20 7 20 25 0 14 -2 25 -5 25 -3 0 -5 -9 -5 -21z"/>
<path d="M4027 2944 c-14 -14 -7 -44 11 -44 14 0 15 2 2 10 -13 8 -12 10 3 10
10 0 17 5 15 12 -5 14 -22 21 -31 12z"/>
<path d="M4134 2935 c-4 -9 -2 -21 4 -27 15 -15 44 -1 40 19 -4 23 -36 29 -44
8z m36 -10 c0 -8 -7 -15 -15 -15 -8 0 -15 7 -15 15 0 8 7 15 15 15 8 0 15 -7
15 -15z"/>
<path d="M4220 2935 c0 -8 6 -15 13 -15 8 0 7 -4 -3 -10 -9 -6 -10 -10 -3 -10
16 0 26 17 13 25 -6 4 -8 11 -5 16 4 5 1 9 -4 9 -6 0 -11 -7 -11 -15z"/>
<path d="M4267 2944 c-14 -14 -7 -44 11 -44 14 0 15 2 2 10 -13 8 -12 10 3 10
10 0 17 5 15 12 -5 14 -22 21 -31 12z"/>
<path d="M4314 2936 c-7 -18 3 -36 19 -36 7 0 6 4 -3 10 -13 8 -12 10 3 10 10
0 17 5 15 12 -7 19 -27 21 -34 4z"/>
<path d="M4394 2935 c-4 -9 -2 -21 4 -27 15 -15 44 -1 40 19 -4 23 -36 29 -44
8z m36 -10 c0 -8 -7 -15 -15 -15 -8 0 -15 7 -15 15 0 8 7 15 15 15 8 0 15 -7
15 -15z"/>
<path d="M4452 2925 c0 -16 2 -22 5 -12 2 9 2 23 0 30 -3 6 -5 -1 -5 -18z"/>
<path d="M4483 2926 c7 -14 13 -23 15 -21 7 6 -9 45 -18 45 -4 0 -3 -11 3 -24z"/>
<path d="M4598 2925 c2 -14 6 -25 8 -25 2 0 4 11 4 25 0 14 -4 25 -9 25 -4 0
-6 -11 -3 -25z"/>
<path d="M4654 2939 c-3 -6 -1 -15 6 -19 10 -6 9 -9 -1 -13 -10 -4 -9 -6 4 -6
19 -1 23 14 6 25 -8 4 -7 9 2 15 10 6 10 9 2 9 -6 0 -15 -5 -19 -11z"/>
<path d="M4723 2910 c-1 -25 1 -38 4 -29 2 10 13 19 24 22 23 6 23 38 1 43 -7
1 -8 0 -2 -3 15 -7 12 -33 -4 -33 -8 0 -17 10 -19 23 -2 12 -4 2 -4 -23z"/>
<path d="M4798 2942 c11 -7 11 -10 -2 -15 -23 -9 -20 -27 5 -27 15 0 20 5 17
22 -2 12 -10 23 -18 25 -12 4 -12 3 -2 -5z"/>
<path d="M4837 2943 c-10 -10 -8 -43 2 -43 5 0 7 10 3 22 -4 17 -2 20 11 15
10 -4 17 -2 17 3 0 11 -23 13 -33 3z"/>
<path d="M4897 2944 c-14 -14 -7 -44 11 -44 14 0 15 2 2 10 -13 8 -12 10 3 10
10 0 17 5 15 12 -5 14 -22 21 -31 12z"/>
<path d="M3430 2935 c0 -5 5 -17 10 -25 5 -8 10 -10 10 -5 0 6 -5 17 -10 25
-5 8 -10 11 -10 5z"/>
<path d="M3476 2925 c-9 -26 -7 -32 5 -12 6 10 9 21 6 23 -2 3 -7 -2 -11 -11z"/>
<path d="M2750 2921 c0 -5 5 -13 10 -16 6 -3 10 -2 10 4 0 5 -4 13 -10 16 -5
3 -10 2 -10 -4z"/>
<path d="M3746 2915 c-9 -26 -7 -32 5 -12 6 10 9 21 6 23 -2 3 -7 -2 -11 -11z"/>
<path d="M3795 2910 c-19 -8 -19 -9 3 -9 12 -1 22 4 22 9 0 6 -1 10 -2 9 -2 0
-12 -4 -23 -9z"/>
<path d="M3990 2910 c0 -5 5 -10 11 -10 5 0 7 5 4 10 -3 6 -8 10 -11 10 -2 0
-4 -4 -4 -10z"/>
<path d="M4850 2880 c-9 -6 -10 -10 -3 -10 6 0 15 5 18 10 8 12 4 12 -15 0z"/>
<path d="M77 2783 c-2 -5 -1 -19 4 -33 7 -23 7 -23 8 8 1 31 -3 40 -12 25z"/>
<path d="M3060 2275 l0 -65 35 0 c39 0 48 17 13 22 -30 4 -37 38 -9 38 12 0
21 5 21 10 0 6 -9 10 -21 10 -27 0 -19 24 9 28 35 5 25 22 -13 22 l-35 0 0
-65z"/>
<path d="M3632 2329 c2 -6 8 -10 13 -10 5 0 11 4 13 10 2 6 -4 11 -13 11 -9 0
-15 -5 -13 -11z"/>
<path d="M4110 2275 c0 -51 3 -65 15 -65 10 0 15 11 15 35 0 24 5 35 15 35 11
0 15 -11 15 -36 0 -21 4 -34 11 -32 6 2 10 7 10 11 -1 4 -1 23 -1 43 0 33 -2
36 -25 32 -21 -4 -25 -1 -25 18 0 15 -6 24 -15 24 -12 0 -15 -14 -15 -65z"/>
<path d="M4352 2329 c2 -6 8 -10 13 -10 5 0 11 4 13 10 2 6 -4 11 -13 11 -9 0
-15 -5 -13 -11z"/>
<path d="M4405 2309 c-14 -16 -16 -23 -7 -26 6 -3 12 -18 12 -34 0 -17 6 -32
15 -36 21 -7 32 4 17 19 -16 16 -15 45 1 51 8 4 9 8 1 14 -6 4 -13 14 -15 21
-3 10 -10 7 -24 -9z"/>
<path d="M3440 2303 c-10 -12 -11 -18 -2 -21 7 -2 12 -17 12 -33 0 -17 6 -32
15 -36 21 -7 32 4 17 19 -16 16 -15 45 0 50 9 3 8 9 -4 21 -20 20 -19 20 -38
0z"/>
<path d="M3146 2278 c25 -83 42 -89 66 -23 14 38 15 45 3 45 -8 0 -19 -15 -24
-32 l-9 -33 -7 33 c-4 18 -14 32 -22 32 -10 0 -12 -6 -7 -22z"/>
<path d="M3241 2278 c-16 -41 34 -87 62 -59 8 8 5 11 -10 11 -12 0 -25 5 -28
10 -4 6 7 10 24 10 19 0 31 5 31 13 0 39 -65 51 -79 15z m46 -4 c-3 -3 -12 -4
-19 -1 -8 3 -5 6 6 6 11 1 17 -2 13 -5z"/>
<path d="M3332 2258 c4 -53 28 -64 28 -14 0 25 4 36 15 36 10 0 15 -11 15 -35
0 -25 4 -35 16 -35 12 0 14 9 12 43 l-3 42 -43 2 -43 2 3 -41z"/>
<path d="M3508 2288 c-7 -19 2 -38 18 -38 8 0 14 -4 14 -10 0 -5 -9 -10 -21
-10 -11 0 -17 -4 -14 -10 9 -15 41 -12 56 6 11 14 10 19 -10 35 -21 17 -20 24
2 20 4 0 7 4 7 9 0 15 -47 12 -52 -2z"/>
<path d="M3632 2258 c4 -59 28 -63 28 -4 0 35 -4 46 -16 46 -12 0 -14 -9 -12
-42z"/>
<path d="M3680 2254 c0 -32 4 -44 15 -44 10 0 15 11 15 35 0 24 5 35 15 35 10
0 15 -11 15 -35 0 -24 5 -35 15 -35 10 0 15 10 15 33 0 45 -10 55 -52 55 l-38
0 0 -44z"/>
<path d="M3840 2279 c-21 -38 42 -96 65 -59 3 6 -3 10 -14 10 -11 0 -23 5 -26
10 -4 6 7 10 24 10 34 0 36 2 21 31 -14 26 -56 25 -70 -2z m47 -5 c-3 -3 -12
-4 -19 -1 -8 3 -5 6 6 6 11 1 17 -2 13 -5z"/>
<path d="M3934 2289 c-5 -9 -1 -11 14 -7 12 4 24 3 27 -2 3 -4 -7 -11 -21 -14
-19 -5 -25 -12 -22 -29 2 -17 10 -22 36 -23 33 -2 33 -1 30 40 -3 36 -6 41
-30 44 -14 2 -29 -2 -34 -9z m38 -51 c-6 -6 -15 -8 -19 -4 -4 4 -1 11 7 16 19
12 27 3 12 -12z"/>
<path d="M4028 2275 c-9 -21 -8 -28 7 -45 18 -20 55 -28 55 -11 0 5 -9 11 -20
14 -11 3 -20 13 -20 22 0 9 9 19 20 22 28 8 25 23 -5 23 -17 0 -29 -8 -37 -25z"/>
<path d="M4272 2288 c-31 -31 5 -89 46 -73 15 6 14 8 -5 16 -29 11 -31 49 -3
49 11 0 20 5 20 10 0 14 -43 13 -58 -2z"/>
<path d="M4350 2254 c0 -32 4 -44 13 -41 17 5 18 87 1 87 -10 0 -14 -14 -14
-46z"/>
<path d="M4460 2295 c0 -2 7 -23 17 -46 15 -39 15 -43 -1 -54 -12 -9 -14 -15
-6 -20 17 -11 36 13 59 73 17 42 18 52 7 52 -8 0 -18 -15 -22 -32 l-7 -33 -10
33 c-6 17 -16 32 -23 32 -8 0 -14 -2 -14 -5z"/>
<path d="M4505 1640 c-3 -6 1 -7 9 -4 18 7 21 14 7 14 -6 0 -13 -4 -16 -10z"/>
<path d="M4140 1291 c0 -10 19 -25 25 -20 1 2 -3 10 -11 17 -8 7 -14 8 -14 3z"/>
<path d="M1460 1094 c-167 -78 -274 -230 -287 -411 -5 -59 -3 -73 8 -73 8 0
115 9 239 20 124 11 227 20 230 20 11 0 -113 470 -124 470 -6 0 -36 -12 -66
-26z"/>
<path d="M572 1030 c0 -14 2 -19 5 -12 2 6 2 18 0 25 -3 6 -5 1 -5 -13z"/>
<path d="M672 1030 c0 -14 2 -19 5 -12 2 6 2 18 0 25 -3 6 -5 1 -5 -13z"/>
<path d="M744 1039 c-3 -6 -2 -15 3 -20 5 -5 9 -1 9 11 0 23 -2 24 -12 9z"/>
<path d="M792 1030 c0 -14 2 -19 5 -12 2 6 2 18 0 25 -3 6 -5 1 -5 -13z"/>
<path d="M851 1034 c0 -11 3 -14 6 -6 3 7 2 16 -1 19 -3 4 -6 -2 -5 -13z"/>
<path d="M886 1023 c-6 -14 -5 -15 5 -6 7 7 10 15 7 18 -3 3 -9 -2 -12 -12z"/>
<path d="M4695 1020 c-3 -6 1 -7 9 -4 18 7 21 14 7 14 -6 0 -13 -4 -16 -10z"/>
<path d="M4885 1020 c-3 -6 1 -7 9 -4 18 7 21 14 7 14 -6 0 -13 -4 -16 -10z"/>
<path d="M5075 1020 c-3 -6 1 -7 9 -4 18 7 21 14 7 14 -6 0 -13 -4 -16 -10z"/>
<path d="M5455 1020 c-3 -6 1 -7 9 -4 18 7 21 14 7 14 -6 0 -13 -4 -16 -10z"/>
<path d="M6025 1020 c-3 -6 1 -7 9 -4 18 7 21 14 7 14 -6 0 -13 -4 -16 -10z"/>
<path d="M851 994 c0 -11 3 -14 6 -6 3 7 2 16 -1 19 -3 4 -6 -2 -5 -13z"/>
<path d="M1405 618 c-126 -11 -231 -22 -233 -23 -8 -7 30 -130 55 -183 16 -32
55 -84 89 -118 92 -92 213 -144 341 -144 65 0 160 16 167 29 3 4 -17 67 -45
140 -27 74 -48 135 -46 137 2 3 14 -24 27 -58 12 -35 36 -98 52 -141 l30 -77
60 32 c76 40 156 120 196 196 30 57 62 163 62 210 l0 22 -243 0 c-213 0 -246
-2 -267 -17 -14 -10 -92 -76 -175 -148 -167 -145 -185 -160 -185 -152 0 2 79
73 175 157 146 126 191 169 173 159 -2 -1 -106 -11 -233 -21z m321 -145 c-4
-5 -56 134 -56 150 1 7 14 -24 30 -67 17 -44 28 -81 26 -83z"/>
<path d="M678 440 c-3 -17 -1 -33 4 -36 4 -3 8 11 8 30 0 44 -6 47 -12 6z"/>
<path d="M803 435 c0 -22 2 -30 4 -17 2 12 2 30 0 40 -3 9 -5 -1 -4 -23z"/>
<path d="M980 463 c5 -2 10 -15 10 -28 0 -13 -5 -26 -10 -28 -6 -3 -5 -4 2 -3
7 2 13 15 13 31 0 16 -6 29 -13 31 -7 1 -8 0 -2 -3z"/>
<path d="M838 403 c7 -3 16 -2 19 1 4 3 -2 6 -13 5 -11 0 -14 -3 -6 -6z"/>
<path d="M6405 400 c-3 -6 1 -7 9 -4 18 7 21 14 7 14 -6 0 -13 -4 -16 -10z"/>
<path d="M2423 325 c0 -22 2 -30 4 -17 2 12 2 30 0 40 -3 9 -5 -1 -4 -23z"/>
<path d="M2539 328 c-3 -22 -1 -34 4 -29 5 5 7 21 5 37 -3 27 -4 26 -9 -8z"/>
<path d="M2588 353 c7 -3 16 -2 19 1 4 3 -2 6 -13 5 -11 0 -14 -3 -6 -6z"/>
<path d="M2673 325 c0 -22 2 -30 4 -17 2 12 2 30 0 40 -3 9 -5 -1 -4 -23z"/>
<path d="M2703 345 c-3 -9 -3 -19 1 -22 3 -4 6 2 6 11 0 12 5 16 16 12 8 -3
12 -2 9 4 -9 15 -25 12 -32 -5z"/>
<path d="M2252 315 c0 -16 2 -22 5 -12 2 9 2 23 0 30 -3 6 -5 -1 -5 -18z"/>
<path d="M2275 330 c3 -5 8 -10 11 -10 2 0 4 5 4 10 0 6 -5 10 -11 10 -5 0 -7
-4 -4 -10z"/>
<path d="M2323 333 c20 -5 23 -42 5 -63 -11 -12 -10 -12 5 -1 9 7 17 26 17 42
0 24 -4 29 -22 28 -17 -1 -19 -2 -5 -6z"/>
<path d="M2402 315 c0 -16 2 -22 5 -12 2 9 2 23 0 30 -3 6 -5 -1 -5 -18z"/>
<path d="M2458 333 c7 -3 16 -2 19 1 4 3 -2 6 -13 5 -11 0 -14 -3 -6 -6z"/>
<path d="M2583 327 c21 -17 21 -24 2 -30 -12 -4 -11 -5 1 -3 27 2 28 23 2 36
-21 10 -21 10 -5 -3z"/>
<path d="M2190 319 c0 -5 9 -9 20 -9 11 0 20 -5 20 -12 0 -6 3 -9 6 -5 3 3 2
11 -3 19 -9 15 -43 20 -43 7z"/>
<path d="M2815 321 c4 -8 2 -17 -6 -22 -9 -6 -10 -9 -2 -9 19 0 27 21 13 33
-10 9 -11 9 -5 -2z"/>
<path d="M2447 314 c-9 -10 2 -24 19 -24 8 0 14 7 14 15 0 15 -21 21 -33 9z"/>
<path d="M2720 300 c-9 -6 -10 -10 -3 -10 6 0 15 5 18 10 8 12 4 12 -15 0z"/>
<path d="M4147 179 c7 -7 15 -10 18 -7 3 3 -2 9 -12 12 -14 6 -15 5 -6 -5z"/>
<path d="M1050 106 c0 -2 9 -6 20 -9 11 -3 18 -1 14 4 -5 9 -34 13 -34 5z"/>
<path d="M1353 75 c0 -22 2 -30 4 -17 2 12 2 30 0 40 -3 9 -5 -1 -4 -23z"/>
<path d="M1383 95 c-3 -9 -3 -19 1 -22 3 -4 6 2 6 11 0 12 5 16 16 12 8 -3 12
-2 9 4 -9 15 -25 12 -32 -5z"/>
<path d="M1435 99 c-11 -16 -1 -19 13 -3 7 8 8 14 3 14 -5 0 -13 -5 -16 -11z"/>
<path d="M1009 58 c-3 -22 -1 -34 4 -29 5 5 7 21 5 37 -3 27 -4 26 -9 -8z"/>
<path d="M1031 74 c0 -11 3 -14 6 -6 3 7 2 16 -1 19 -3 4 -6 -2 -5 -13z"/>
<path d="M1142 65 c0 -16 2 -22 5 -12 2 9 2 23 0 30 -3 6 -5 -1 -5 -18z"/>
<path d="M1164 75 c-8 -19 3 -35 24 -34 14 0 13 2 -3 9 l-20 9 20 1 20 1 -20
8 -20 8 20 5 c17 5 17 6 2 7 -10 0 -20 -6 -23 -14z"/>
<path d="M1222 65 c0 -16 2 -22 5 -12 2 9 2 23 0 30 -3 6 -5 -1 -5 -18z"/>
<path d="M1246 77 c3 -10 9 -15 12 -12 3 3 0 11 -7 18 -10 9 -11 8 -5 -6z"/>
<path d="M1266 55 c-9 -26 -7 -32 5 -12 6 10 9 21 6 23 -2 3 -7 -2 -11 -11z"/>
<path d="M1066 51 c-19 -7 -18 -8 4 -14 13 -3 26 -4 29 -2 2 3 -1 5 -8 5 -7 0
-9 5 -6 10 7 11 7 11 -19 1z"/>
<path d="M1110 50 c0 -5 5 -10 11 -10 5 0 7 5 4 10 -3 6 -8 10 -11 10 -2 0 -4
-4 -4 -10z"/>
<path d="M1395 50 c-16 -7 -17 -9 -3 -9 9 -1 20 4 23 9 7 11 7 11 -20 0z"/>
<path d="M1490 50 c-9 -6 -10 -10 -3 -10 6 0 15 5 18 10 8 12 4 12 -15 0z"/>
</g>
</svg>
