<?xml version="1.0" standalone="no"?>
<!DOCTYPE svg PUBLIC "-//W3C//DTD SVG 20010904//EN"
 "http://www.w3.org/TR/2001/REC-SVG-20010904/DTD/svg10.dtd">
<svg version="1.0" xmlns="http://www.w3.org/2000/svg"
 width="672.000000pt" height="311.000000pt" viewBox="0 0 672.000000 311.000000"
 preserveAspectRatio="xMidYMid meet">

<g transform="translate(0.000000,311.000000) scale(0.100000,-0.100000)"
fill="#000000" stroke="none">
<path d="M1710 3002 c0 -15 51 -82 71 -93 36 -19 16 -18 -71 1 -46 10 -86 18
-87 17 -6 -6 80 -97 90 -96 7 1 23 1 37 0 20 -1 22 -3 10 -11 -8 -5 -28 -10
-45 -11 -16 0 -39 -4 -50 -8 -17 -7 -11 -12 37 -35 35 -17 66 -25 78 -21 10 3
30 1 42 -6 25 -12 118 -99 118 -109 0 -4 -64 8 -142 27 -79 18 -146 33 -149
33 -3 0 -22 -11 -42 -24 l-36 -25 -3 37 -3 37 -84 3 c-49 2 -88 -1 -95 -8 -5
-5 -26 -10 -45 -10 -34 0 -39 5 -85 75 -27 41 -50 75 -53 75 -17 0 -86 -45
-108 -72 -15 -18 -41 -48 -57 -67 l-30 -33 -32 31 c-17 17 -38 31 -46 31 -24
0 -223 -69 -255 -88 -29 -18 -30 -18 -70 10 -48 34 -139 50 -206 38 -91 -17
-199 -71 -247 -123 l-24 -25 60 -104 c38 -64 66 -102 75 -100 10 1 32 -40 72
-130 31 -73 61 -137 66 -142 11 -13 168 38 213 69 37 25 83 34 104 21 16 -10
157 12 200 31 18 8 36 21 39 28 4 11 23 5 84 -26 l79 -39 40 20 c30 16 40 26
40 45 0 19 5 25 23 25 50 -1 112 -19 124 -36 16 -22 207 -58 234 -44 26 14 89
0 89 -19 0 -12 20 -23 68 -39 80 -26 94 -27 130 -8 24 13 34 36 87 200 32 102
62 186 66 186 4 0 19 -21 35 -47 l27 -47 -11 -115 c-16 -159 -37 -184 -177
-216 l-30 -7 24 -9 c14 -6 47 -13 75 -18 l51 -8 -50 -23 -50 -24 30 -7 c65
-15 118 -10 142 13 32 30 29 18 -7 -27 -17 -21 -29 -40 -26 -42 4 -5 107 36
123 49 6 5 14 17 16 26 3 9 3 -4 0 -30 -2 -27 0 -48 5 -48 18 0 72 67 72 90
l1 25 12 -23 13 -22 29 30 c21 22 27 34 20 44 -6 7 -18 24 -27 37 -17 24 -34
118 -45 241 -6 66 -5 66 45 150 28 45 66 99 84 118 19 19 54 64 80 100 36 51
57 71 97 89 48 23 51 27 51 62 0 28 -6 41 -24 52 -23 16 -24 15 -31 -16 l-7
-32 -8 33 c-4 19 -21 47 -36 64 l-29 30 -5 -39 -5 -38 -17 31 c-13 23 -31 36
-65 48 -65 22 -67 21 -33 -26 17 -22 28 -43 26 -45 -2 -3 -19 3 -36 12 -40 21
-112 46 -117 42 -6 -7 48 -97 65 -108 13 -8 7 -9 -26 -4 l-43 5 18 -27 c10
-16 23 -31 29 -35 13 -9 -46 -128 -90 -183 l-23 -29 -42 75 c-55 99 -74 164
-61 209 9 31 7 36 -18 57 -15 13 -35 28 -46 34 -17 10 -18 8 -12 -14 9 -38 -8
-41 -28 -6 -16 27 -88 69 -117 69 -5 0 0 -18 11 -40 26 -51 25 -55 -8 -31 -35
25 -142 72 -142 63z m-457 -239 l48 -76 62 7 c88 11 180 7 189 -7 4 -7 7 -23
7 -37 0 -23 -1 -24 -10 -5 -7 15 -8 10 -4 -20 2 -22 5 -48 5 -59 0 -15 3 -16
15 -6 8 7 21 10 28 7 14 -5 18 35 5 49 -16 15 -7 34 20 48 25 13 37 13 108 -4
43 -11 128 -30 189 -43 94 -20 110 -26 110 -43 0 -33 -58 -196 -65 -183 -11
16 -32 -54 -24 -76 6 -14 4 -16 -6 -10 -10 6 -12 4 -7 -9 4 -10 -2 -48 -13
-85 -18 -61 -22 -67 -56 -77 -31 -10 -46 -9 -95 8 -41 14 -59 25 -59 37 0 22
-95 44 -123 29 -12 -6 -43 -5 -90 2 -74 13 -107 25 -119 44 -4 6 -13 11 -20
12 -26 1 -123 16 -141 21 -13 3 -16 10 -11 25 4 15 2 19 -7 16 -9 -3 -15 -23
-17 -51 -2 -38 -8 -51 -29 -64 -24 -16 -28 -15 -119 30 -52 26 -96 47 -99 47
-3 0 -5 -13 -5 -29 0 -33 -23 -44 -117 -56 -46 -6 -53 -5 -53 10 0 12 -5 15
-17 10 -47 -19 -76 -23 -105 -14 -18 5 -34 9 -36 9 -1 0 0 -11 4 -24 6 -26
-15 -39 -116 -71 -30 -10 -59 -21 -64 -26 -11 -10 -22 10 -64 115 -18 43 -29
82 -26 87 6 10 -9 40 -22 42 -5 1 -9 12 -9 25 1 14 -5 22 -17 22 -9 0 -20 5
-23 10 -4 6 -10 8 -15 5 -5 -3 -14 4 -20 16 -8 15 -9 19 -1 15 17 -11 13 2
-16 55 -16 27 -34 49 -40 49 -44 0 38 73 126 113 47 21 87 31 143 35 99 6 151
-12 207 -74 23 -24 43 -44 45 -44 2 0 -1 13 -7 30 -15 40 -9 45 109 84 153 51
148 50 187 16 19 -16 37 -30 40 -30 2 0 30 30 62 68 48 56 104 102 125 101 3
0 27 -34 53 -76z m-995 -398 c-3 -3 -9 2 -12 12 -6 14 -5 15 5 6 7 -7 10 -15
7 -18z"/>
<path d="M1159 2768 c-8 -7 -38 -40 -67 -74 -38 -45 -50 -66 -45 -82 8 -34
-13 -27 -65 22 -39 37 -52 43 -77 39 -39 -6 -188 -53 -198 -63 -10 -9 3 -91
14 -85 4 3 10 1 13 -4 3 -4 -9 -11 -27 -14 -17 -3 -39 -8 -48 -12 -13 -5 -18
2 -23 30 -14 75 -86 125 -182 125 -83 0 -254 -72 -254 -107 0 -28 71 -134 88
-131 12 2 32 -32 77 -134 33 -75 63 -140 67 -144 10 -9 139 36 145 52 3 8 0
27 -5 44 -12 34 -7 38 19 14 30 -27 93 -29 134 -6 l35 21 0 -21 c0 -19 4 -20
56 -14 78 9 94 19 94 61 l0 35 104 -52 c61 -30 110 -49 120 -45 12 5 16 19 16
57 0 45 3 52 26 60 37 14 42 13 37 -13 -4 -22 0 -25 62 -35 36 -6 72 -9 79 -6
8 3 16 -2 19 -10 4 -9 13 -16 21 -16 8 0 16 -5 18 -10 4 -14 143 -39 159 -29
8 4 14 16 14 26 0 10 8 19 18 21 12 2 17 -3 17 -18 0 -22 5 -25 63 -35 27 -4
37 -11 37 -25 0 -13 13 -23 48 -34 27 -9 56 -14 65 -10 10 4 39 76 81 202 37
109 66 200 66 203 0 10 -138 42 -149 34 -6 -3 -11 -2 -11 3 0 11 -156 46 -175
38 -8 -3 -15 -22 -17 -46 -3 -39 -6 -43 -43 -56 -22 -7 -41 -14 -42 -14 -1 0
-4 19 -8 43 -3 23 -9 57 -12 75 l-5 32 -64 0 c-34 0 -66 -4 -69 -10 -3 -5 -31
-10 -62 -10 -46 0 -56 -3 -60 -20 -6 -24 -2 -24 -53 -1 l-43 19 42 21 c22 12
41 24 41 27 0 10 -61 94 -69 94 -4 0 -14 -6 -22 -12z m41 -53 c16 -19 7 -31
-40 -55 -62 -32 -66 -24 -19 33 34 41 41 44 59 22z m-335 -132 l7 -48 17 25
c9 13 25 35 36 48 l20 23 34 -35 33 -34 -46 -50 c-25 -27 -46 -52 -46 -55 0
-3 16 -11 35 -17 20 -6 51 -27 71 -45 19 -19 49 -37 65 -40 24 -5 29 -12 29
-36 0 -16 -5 -29 -10 -29 -6 0 -60 25 -120 55 l-109 55 -3 -63 c-3 -59 -4 -62
-29 -65 -20 -2 -28 2 -32 19 -3 12 -2 30 4 40 14 26 11 97 -5 127 -8 15 -18
48 -21 75 -4 31 -11 47 -21 47 -29 0 -13 19 29 33 23 9 45 16 48 16 4 1 10
-20 14 -46z m639 -25 c8 -57 6 -74 -9 -108 -24 -54 -15 -106 25 -142 39 -36
38 -42 -7 -33 -46 8 -50 13 -59 89 l-7 61 -14 -33 c-15 -37 -25 -36 -43 8 -17
42 -27 38 -33 -15 -2 -26 -7 -48 -9 -51 -3 -2 -19 -1 -36 2 -28 6 -32 11 -32
38 0 18 5 37 11 43 6 6 13 42 14 80 1 37 6 81 10 96 7 25 11 28 44 25 34 -3
36 -5 47 -53 l11 -50 8 50 c10 64 12 67 43 63 25 -3 28 -8 36 -70z m-995 56
c50 -10 91 -55 91 -100 0 -43 -38 -114 -73 -137 l-25 -16 20 -72 c19 -70 20
-73 2 -86 -38 -27 -48 -16 -113 132 -54 122 -68 145 -86 145 -14 0 -28 13 -43
39 l-22 39 38 18 c83 40 146 51 211 38z m701 -29 c17 -9 30 -20 30 -26 0 -5
-21 -32 -46 -59 -45 -48 -43 -67 4 -34 22 15 25 15 47 -6 29 -28 25 -36 -29
-61 -63 -29 -119 -25 -158 10 -28 25 -33 36 -33 74 0 89 102 145 185 102z
m581 -17 c4 -6 12 -44 19 -85 14 -81 20 -79 39 10 11 52 15 57 39 57 58 0 58
-6 0 -181 -56 -167 -69 -187 -103 -159 -11 9 -15 37 -16 104 -1 86 -2 88 -10
41 -18 -97 -17 -97 -47 -93 -37 4 -39 28 -5 79 34 52 38 116 9 148 -12 13 -16
28 -12 45 4 16 1 26 -10 30 -8 3 -12 11 -8 17 8 13 96 2 105 -13z m-110 -87
c34 -35 37 -72 9 -118 -23 -39 -52 -55 -97 -55 -48 0 -83 34 -83 82 0 42 20
74 64 101 43 27 73 24 107 -10z m-681 -6 c0 -8 -7 -15 -15 -15 -16 0 -20 12
-8 23 11 12 23 8 23 -8z m-222 -15 c33 -31 36 -62 13 -114 -15 -36 -29 -50
-57 -62 -46 -19 -98 -11 -119 19 -17 25 -20 89 -4 118 29 54 126 77 167 39z"/>
<path d="M471 2521 c-12 -8 -12 -17 -1 -58 18 -66 23 -69 54 -33 31 38 32 54
6 80 -22 22 -37 25 -59 11z m44 -68 c-7 -17 -8 -17 -15 2 -5 11 -9 27 -9 35
-1 12 2 11 15 -2 11 -11 14 -23 9 -35z"/>
<path d="M1096 2534 c-19 -19 -21 -58 -3 -72 10 -9 22 -1 50 32 20 24 33 46
30 50 -12 12 -62 6 -77 -10z m44 -12 c0 -5 -9 -17 -20 -27 -19 -18 -20 -17
-20 2 0 11 3 23 7 26 9 10 33 9 33 -1z"/>
<path d="M1580 2470 c-23 -23 -24 -33 -10 -61 20 -37 100 -16 100 27 0 11 -4
12 -19 3 -29 -19 -54 -4 -47 26 8 30 2 31 -24 5z"/>
<path d="M675 2440 c-11 -13 -15 -27 -11 -44 11 -43 74 -46 96 -5 14 24 1 49
-12 25 -11 -20 -32 -21 -48 -1 -10 12 -10 18 0 30 19 22 -4 18 -25 -5z"/>
<path d="M1260 2660 c0 -5 7 -7 15 -4 8 4 15 8 15 10 0 2 -7 4 -15 4 -8 0 -15
-4 -15 -10z"/>
<path d="M1235 2640 c-3 -5 -1 -10 4 -10 6 0 11 5 11 10 0 6 -2 10 -4 10 -3 0
-8 -4 -11 -10z"/>
<path d="M3153 2465 c0 -33 2 -48 4 -32 4 22 9 27 33 27 24 0 29 -5 33 -27 2
-16 4 -1 4 32 0 33 -2 50 -4 38 -3 -18 -11 -23 -33 -23 -22 0 -30 5 -33 23 -2
12 -4 -5 -4 -38z"/>
<path d="M3767 2490 c-8 -19 -18 -46 -21 -60 -6 -21 -5 -22 4 -7 14 22 56 22
64 1 4 -9 9 -15 12 -12 2 3 -6 30 -19 59 l-25 54 -15 -35z m33 -27 c0 -7 -7
-13 -15 -13 -15 0 -21 31 -8 43 8 8 23 -12 23 -30z"/>
<path d="M3851 2463 c1 -32 4 -46 6 -30 4 22 9 27 33 27 31 0 47 25 29 46 -6
8 -24 14 -40 14 -29 0 -29 0 -28 -57z m62 33 c7 -19 -1 -26 -30 -26 -16 0 -23
6 -23 20 0 14 7 20 24 20 13 0 26 -6 29 -14z"/>
<path d="M3953 2465 c0 -33 2 -45 4 -27 2 18 2 45 0 60 -2 15 -4 0 -4 -33z"/>
<path d="M4191 2463 c1 -32 4 -46 6 -30 4 22 9 27 33 27 31 0 47 25 29 46 -6
8 -24 14 -40 14 -29 0 -29 0 -28 -57z m64 27 c0 -9 -11 -16 -27 -18 -23 -3
-28 1 -28 18 0 17 5 21 28 18 16 -2 27 -9 27 -18z"/>
<path d="M4470 2509 c0 -5 5 -7 10 -4 6 3 10 8 10 11 0 2 -4 4 -10 4 -5 0 -10
-5 -10 -11z"/>
<path d="M4593 2465 c0 -33 2 -45 4 -27 2 18 2 45 0 60 -2 15 -4 0 -4 -33z"/>
<path d="M4419 2502 c-2 -7 -14 -14 -27 -15 -19 -1 -22 -7 -21 -42 l2 -40 6
35 c8 47 38 54 43 9 2 -18 9 -34 16 -35 7 -1 8 0 2 3 -5 2 -10 18 -10 35 0 27
3 30 25 26 14 -3 28 -1 31 3 3 5 -8 9 -25 9 -16 0 -31 6 -33 13 -4 9 -6 9 -9
-1z"/>
<path d="M5375 2491 c-3 -5 -2 -12 3 -15 5 -3 9 1 9 9 0 17 -3 19 -12 6z"/>
<path d="M5911 2484 c0 -11 3 -14 6 -6 3 7 2 16 -1 19 -3 4 -6 -2 -5 -13z"/>
<path d="M3262 2481 c-8 -5 -12 -21 -10 -37 2 -23 9 -30 30 -32 22 -3 29 2 34
22 10 41 -21 68 -54 47z m37 -15 c14 -17 4 -46 -15 -46 -18 0 -28 24 -20 45 7
19 20 19 35 1z"/>
<path d="M3330 2449 c0 -47 17 -52 22 -7 4 46 28 49 28 4 0 -20 5 -36 10 -36
6 0 10 16 10 36 0 46 22 41 32 -7 6 -34 6 -34 5 6 l-2 40 -52 1 -53 2 0 -39z"/>
<path d="M3464 2476 c-12 -32 0 -61 29 -64 15 -2 27 1 27 6 0 6 -8 8 -19 5
-10 -3 -22 0 -25 6 -5 7 4 11 23 11 19 0 31 5 31 13 0 32 -55 51 -66 23z m41
-6 c3 -5 -3 -10 -15 -10 -12 0 -18 5 -15 10 3 6 10 10 15 10 5 0 12 -4 15 -10z"/>
<path d="M4292 2478 c-28 -28 -1 -75 38 -63 33 11 21 75 -15 75 -6 0 -16 -5
-23 -12z m46 -26 c2 -13 -3 -25 -13 -28 -23 -9 -38 10 -30 36 9 27 39 22 43
-8z"/>
<path d="M4512 2478 c-19 -19 -14 -56 8 -63 24 -8 50 10 50 34 0 19 -19 41
-35 41 -6 0 -16 -5 -23 -12z m43 -28 c0 -16 -6 -26 -18 -28 -19 -4 -32 20 -23
44 9 25 41 13 41 -16z"/>
<path d="M4623 2450 c0 -25 2 -35 4 -22 2 12 2 32 0 45 -2 12 -4 2 -4 -23z"/>
<path d="M4660 2475 c-26 -31 13 -82 44 -56 19 16 21 42 4 59 -16 16 -33 15
-48 -3z m45 -25 c0 -29 -32 -41 -41 -16 -9 24 4 48 23 44 12 -2 18 -12 18 -28z"/>
<path d="M5552 2455 c0 -16 2 -22 5 -12 2 9 2 23 0 30 -3 6 -5 -1 -5 -18z"/>
<path d="M5803 2445 c0 -22 2 -30 4 -17 2 12 2 30 0 40 -3 9 -5 -1 -4 -23z"/>
<path d="M5580 2456 c0 -8 4 -17 9 -20 5 -4 7 3 4 14 -6 23 -13 26 -13 6z"/>
<path d="M5752 2450 c0 -14 2 -19 5 -12 2 6 2 18 0 25 -3 6 -5 1 -5 -13z"/>
<path d="M5887 2451 c-4 -17 -3 -21 5 -13 5 5 8 16 6 23 -3 8 -7 3 -11 -10z"/>
<path d="M5960 2456 c0 -8 4 -17 9 -20 5 -4 7 3 4 14 -6 23 -13 26 -13 6z"/>
<path d="M6192 2450 c0 -14 2 -19 5 -12 2 6 2 18 0 25 -3 6 -5 1 -5 -13z"/>
<path d="M5495 2451 c-3 -5 -2 -12 3 -15 5 -3 9 1 9 9 0 17 -3 19 -12 6z"/>
<path d="M5911 2444 c0 -11 3 -14 6 -6 3 7 2 16 -1 19 -3 4 -6 -2 -5 -13z"/>
<path d="M5378 2438 c5 -5 16 -8 23 -6 8 3 3 7 -10 11 -17 4 -21 3 -13 -5z"/>
<path d="M1678 1713 c925 -2 2439 -2 3365 0 925 1 168 2 -1683 2 -1851 0
-2608 -1 -1682 -2z"/>
<path d="M1730 1620 c-37 -37 -13 -120 36 -120 27 0 54 20 54 40 0 23 -15 27
-24 5 -8 -23 -53 -19 -61 5 -10 32 4 60 30 60 13 0 27 -4 30 -10 8 -13 25 -13
25 -1 0 16 -31 41 -51 41 -10 0 -28 -9 -39 -20z"/>
<path d="M1840 1570 c0 -40 4 -70 10 -70 6 0 10 30 10 70 0 40 -4 70 -10 70
-6 0 -10 -30 -10 -70z"/>
<path d="M1880 1625 c0 -8 5 -15 10 -15 6 0 10 7 10 15 0 8 -4 15 -10 15 -5 0
-10 -7 -10 -15z"/>
<path d="M2000 1570 c0 -40 4 -70 10 -70 6 0 10 9 10 20 0 26 14 25 33 -2 8
-13 18 -20 22 -16 4 4 0 19 -9 34 -17 24 -17 27 0 45 22 24 -1 27 -28 2 -17
-15 -18 -14 -18 20 0 21 -4 37 -10 37 -6 0 -10 -30 -10 -70z"/>
<path d="M2430 1570 c0 -73 17 -98 22 -33 2 27 8 39 21 41 14 3 17 -4 17 -37
0 -23 5 -41 11 -41 6 0 9 19 7 48 -3 44 -5 47 -30 47 -23 -1 -28 4 -28 22 0
13 -4 23 -10 23 -6 0 -10 -30 -10 -70z"/>
<path d="M3410 1620 c0 -13 -7 -20 -18 -20 -24 0 -42 -19 -42 -44 0 -34 16
-49 54 -52 l36 -3 0 69 c0 56 -3 70 -15 70 -8 0 -15 -9 -15 -20z m0 -65 c0
-25 -23 -35 -35 -15 -10 16 2 40 20 40 9 0 15 -9 15 -25z"/>
<path d="M3590 1570 c0 -73 17 -98 22 -32 2 25 8 37 18 37 10 0 16 -12 18 -37
5 -56 24 -46 20 10 -3 43 -5 47 -30 50 -20 2 -28 9 -28 23 0 10 -4 19 -10 19
-6 0 -10 -30 -10 -70z"/>
<path d="M3870 1570 c0 -40 4 -70 10 -70 6 0 10 9 10 20 0 26 14 25 33 -2 8
-13 18 -20 22 -16 4 4 0 19 -9 34 -17 24 -17 27 0 45 22 24 -1 27 -28 2 -17
-15 -18 -14 -18 20 0 21 -4 37 -10 37 -6 0 -10 -30 -10 -70z"/>
<path d="M4010 1570 c0 -40 4 -70 10 -70 6 0 10 11 10 25 0 19 5 25 21 25 33
0 59 19 59 43 0 33 -19 47 -62 47 l-38 0 0 -70z m80 25 c0 -10 -10 -15 -30
-15 -20 0 -30 5 -30 15 0 10 10 15 30 15 20 0 30 -5 30 -15z"/>
<path d="M4220 1570 c0 -40 4 -70 10 -70 6 0 10 9 10 20 0 26 14 25 33 -2 8
-13 18 -20 22 -16 4 4 0 19 -9 34 -17 24 -17 27 0 45 22 24 -1 27 -28 2 -17
-15 -18 -14 -18 20 0 21 -4 37 -10 37 -6 0 -10 -30 -10 -70z"/>
<path d="M4850 1620 c0 -13 -7 -20 -18 -20 -24 0 -42 -19 -42 -44 0 -34 16
-49 54 -52 l36 -3 0 69 c0 56 -3 70 -15 70 -8 0 -15 -9 -15 -20z m0 -65 c0
-25 -23 -35 -35 -15 -10 16 2 40 20 40 9 0 15 -9 15 -25z"/>
<path d="M5140 1625 c0 -8 5 -15 10 -15 6 0 10 7 10 15 0 8 -4 15 -10 15 -5 0
-10 -7 -10 -15z"/>
<path d="M5170 1570 c0 -56 3 -70 15 -70 12 0 15 14 15 70 0 56 -3 70 -15 70
-12 0 -15 -14 -15 -70z"/>
<path d="M2390 1616 c0 -8 -6 -17 -12 -19 -10 -4 -10 -8 -1 -14 6 -4 13 -24
15 -42 2 -19 8 -36 13 -38 8 -2 11 44 6 115 -1 17 -21 15 -21 -2z"/>
<path d="M4991 1612 c-6 -10 -8 -27 -6 -38 2 -10 6 -31 10 -46 3 -16 12 -28
20 -28 15 0 14 19 0 67 -2 6 1 14 8 17 9 5 9 7 0 12 -7 3 -9 12 -6 20 8 21
-15 17 -26 -4z"/>
<path d="M1880 1550 c0 -27 5 -50 10 -50 6 0 10 23 10 50 0 28 -4 50 -10 50
-5 0 -10 -22 -10 -50z"/>
<path d="M1922 1588 c-27 -27 0 -93 36 -86 19 4 39 35 29 45 -5 4 -12 1 -17
-6 -10 -17 -40 -7 -40 14 0 21 30 31 40 14 11 -17 24 -5 17 16 -7 18 -48 20
-65 3z"/>
<path d="M2138 1575 c-9 -19 -8 -29 6 -50 18 -28 28 -30 57 -15 22 12 26 59 7
78 -21 21 -57 14 -70 -13z m60 -23 c3 -17 -2 -22 -17 -22 -16 0 -21 6 -21 26
0 33 33 30 38 -4z"/>
<path d="M2240 1550 c0 -27 5 -50 10 -50 6 0 10 18 10 40 0 29 4 40 15 40 11
0 15 -11 15 -40 0 -29 4 -40 15 -40 11 0 15 11 15 38 0 45 -14 62 -52 62 -27
0 -28 -2 -28 -50z"/>
<path d="M2528 1575 c-9 -19 -8 -29 6 -50 28 -43 76 -27 76 25 0 52 -61 71
-82 25z m62 -3 c0 -4 -9 -8 -20 -8 -11 0 -20 4 -20 8 0 4 9 8 20 8 11 0 20 -4
20 -8z m-7 -39 c-7 -2 -19 -2 -25 0 -7 3 -2 5 12 5 14 0 19 -2 13 -5z"/>
<path d="M2680 1548 c0 -26 5 -48 10 -48 6 0 10 18 10 40 0 29 4 40 15 40 11
0 15 -11 15 -40 0 -29 4 -40 15 -40 11 0 15 11 15 39 0 44 -16 62 -54 59 -24
-2 -26 -6 -26 -50z"/>
<path d="M2776 1588 c-3 -7 -4 -29 -3 -48 2 -34 4 -35 42 -37 l41 -2 -6 47
c-5 44 -7 47 -38 50 -20 2 -34 -2 -36 -10z m54 -18 c0 -5 -9 -10 -20 -10 -11
0 -20 5 -20 10 0 6 9 10 20 10 11 0 20 -4 20 -10z m-7 -37 c-7 -2 -19 -2 -25
0 -7 3 -2 5 12 5 14 0 19 -2 13 -5z"/>
<path d="M2870 1550 c0 -58 17 -68 22 -13 4 52 28 56 28 4 0 -23 5 -41 10 -41
6 0 10 12 10 28 0 15 4 33 9 41 14 22 31 3 31 -35 0 -19 5 -34 11 -34 6 0 9
19 7 48 l-3 47 -62 2 -63 3 0 -50z"/>
<path d="M3022 1588 c-25 -25 -4 -88 29 -88 26 0 49 23 49 48 0 33 -16 52 -45
52 -12 0 -26 -5 -33 -12z m51 -15 c3 -5 -5 -8 -18 -8 -13 0 -21 3 -18 8 2 4
10 7 18 7 8 0 16 -3 18 -7z m0 -40 c-7 -2 -19 -2 -25 0 -7 3 -2 5 12 5 14 0
19 -2 13 -5z"/>
<path d="M3166 1588 c-3 -7 -4 -29 -3 -48 2 -34 4 -35 42 -37 l41 -2 -6 47
c-5 44 -7 47 -38 50 -20 2 -34 -2 -36 -10z m54 -18 c0 -5 -9 -10 -20 -10 -11
0 -20 5 -20 10 0 6 9 10 20 10 11 0 20 -4 20 -10z m-7 -37 c-7 -2 -19 -2 -25
0 -7 3 -2 5 12 5 14 0 19 -2 13 -5z"/>
<path d="M3260 1550 c0 -27 5 -50 10 -50 6 0 10 18 10 41 0 33 3 40 18 37 12
-2 18 -14 20 -41 4 -46 22 -49 22 -3 0 54 -8 66 -46 66 l-34 0 0 -50z"/>
<path d="M3512 1588 c-7 -7 -12 -25 -12 -40 0 -35 40 -59 65 -38 17 14 20 40
5 40 -5 0 -10 -4 -10 -10 0 -5 -9 -10 -20 -10 -13 0 -20 7 -20 20 0 25 29 38
40 19 12 -18 22 -7 14 15 -7 19 -45 21 -62 4z"/>
<path d="M3688 1574 c-13 -28 -5 -49 25 -68 37 -24 76 44 46 80 -19 23 -58 17
-71 -12z m56 -3 c4 -5 -3 -7 -14 -4 -23 6 -26 13 -6 13 8 0 17 -4 20 -9z m-1
-38 c-7 -2 -19 -2 -25 0 -7 3 -2 5 12 5 14 0 19 -2 13 -5z"/>
<path d="M3792 1588 c-27 -27 0 -93 36 -86 19 4 39 35 28 45 -5 4 -11 2 -13
-4 -8 -22 -43 -15 -43 7 0 25 29 38 40 19 11 -17 24 -5 17 16 -7 18 -48 20
-65 3z"/>
<path d="M4132 1588 c-34 -34 2 -98 48 -83 24 7 37 51 23 74 -13 20 -54 26
-71 9z m53 -33 c0 -13 -8 -21 -22 -23 -17 -3 -23 2 -23 16 0 10 3 22 7 26 13
13 38 1 38 -19z"/>
<path d="M4308 1575 c-9 -19 -8 -29 6 -50 28 -43 76 -27 76 25 0 52 -61 71
-82 25z m62 -3 c0 -4 -9 -8 -20 -8 -11 0 -20 4 -20 8 0 4 9 8 20 8 11 0 20 -4
20 -8z m-7 -39 c-7 -2 -19 -2 -25 0 -7 3 -2 5 12 5 14 0 19 -2 13 -5z"/>
<path d="M4410 1550 c0 -28 5 -50 10 -50 6 0 10 18 10 40 0 29 4 40 15 40 11
0 15 -11 15 -40 0 -50 18 -53 22 -3 4 52 28 56 28 4 0 -30 4 -41 15 -41 11 0
15 11 15 38 0 20 -4 42 -8 48 -4 7 -33 12 -64 13 l-58 0 0 -49z"/>
<path d="M4563 1594 c-7 -3 -13 -21 -13 -40 0 -27 5 -37 25 -46 22 -10 29 -9
47 10 41 41 -5 99 -59 76z m47 -39 c0 -18 -5 -25 -20 -25 -20 0 -28 28 -13 43
15 16 33 6 33 -18z"/>
<path d="M4650 1551 c0 -59 17 -69 22 -13 2 25 8 37 18 37 10 0 16 -12 18 -37
5 -56 24 -46 20 10 -3 47 -3 47 -40 50 l-38 3 0 -50z"/>
<path d="M4902 1588 c-20 -20 -14 -66 9 -79 29 -15 69 3 69 31 0 51 -47 79
-78 48z m48 -12 c0 -2 -9 -6 -20 -9 -11 -3 -18 -1 -14 4 5 9 34 13 34 5z m3
-43 c-7 -2 -21 -2 -30 0 -10 3 -4 5 12 5 17 0 24 -2 18 -5z"/>
<path d="M5044 1585 c-4 -9 -4 -19 0 -22 3 -3 1 -12 -5 -20 -18 -21 6 -41 47
-40 l35 1 -3 45 c-3 44 -5 46 -36 49 -22 2 -34 -2 -38 -13z m46 -15 c0 -5 -7
-10 -15 -10 -8 0 -15 5 -15 10 0 6 7 10 15 10 8 0 15 -4 15 -10z m3 -37 c-7
-2 -19 -2 -25 0 -7 3 -2 5 12 5 14 0 19 -2 13 -5z"/>
<path d="M5140 1550 c0 -27 5 -50 10 -50 6 0 10 23 10 50 0 28 -4 50 -10 50
-5 0 -10 -22 -10 -50z"/>
<path d="M5214 1585 c-7 -18 10 -42 34 -48 9 -2 4 -3 -11 -1 -31 4 -33 -12 -4
-30 37 -23 74 45 45 82 -14 17 -57 15 -64 -3z m51 -15 c8 -13 -5 -13 -25 0
-13 8 -13 10 2 10 9 0 20 -4 23 -10z"/>
<path d="M165 1290 c-23 -11 -48 -33 -58 -49 -24 -41 -22 -107 6 -148 43 -64
31 -63 602 -63 573 0 564 -1 605 65 25 40 26 107 3 146 -10 16 -36 38 -58 49
-40 19 -64 20 -551 20 -489 0 -511 -1 -549 -20z"/>
<path d="M1541 1292 c-52 -26 -76 -65 -76 -122 0 -57 24 -96 76 -122 31 -16
78 -18 549 -18 471 0 518 2 549 18 52 26 76 65 76 122 0 57 -24 96 -76 122
-31 16 -78 18 -549 18 -471 0 -518 -2 -549 -18z"/>
<path d="M2915 1290 c-23 -11 -48 -33 -58 -49 -24 -41 -22 -107 6 -148 43 -64
31 -63 602 -63 573 0 564 -1 605 65 25 40 26 107 3 146 -10 16 -36 38 -58 49
-40 19 -64 20 -551 20 -489 0 -511 -1 -549 -20z"/>
<path d="M4291 1292 c-52 -26 -76 -65 -76 -122 0 -57 24 -96 76 -122 31 -16
78 -18 549 -18 471 0 518 2 549 18 52 26 76 65 76 122 0 57 -24 96 -76 122
-31 16 -78 18 -549 18 -471 0 -518 -2 -549 -18z"/>
<path d="M5665 1290 c-23 -11 -48 -33 -58 -49 -24 -41 -22 -107 6 -148 43 -64
32 -63 596 -63 l511 0 0 140 0 140 -507 0 c-488 0 -510 -1 -548 -20z"/>
<path d="M165 900 c-51 -25 -75 -65 -75 -125 0 -42 5 -52 39 -86 l39 -39 547
0 547 0 39 39 c34 34 39 44 39 86 0 60 -24 100 -75 125 -40 19 -64 20 -551 20
-489 0 -511 -1 -549 -20z"/>
<path d="M1556 910 c-52 -16 -96 -75 -96 -131 0 -36 32 -90 64 -110 29 -18 60
-19 566 -19 506 0 537 1 566 19 82 50 81 173 -3 228 -25 17 -69 18 -548 20
-286 1 -533 -2 -549 -7z"/>
<path d="M2915 900 c-51 -25 -75 -65 -75 -125 0 -42 5 -52 39 -86 l39 -39 547
0 547 0 39 39 c34 34 39 44 39 86 0 60 -24 100 -75 125 -40 19 -64 20 -551 20
-489 0 -511 -1 -549 -20z"/>
<path d="M4306 910 c-52 -16 -96 -75 -96 -131 0 -36 32 -90 64 -110 29 -18 60
-19 566 -19 506 0 537 1 566 19 82 50 81 173 -3 228 -25 17 -69 18 -548 20
-286 1 -533 -2 -549 -7z"/>
<path d="M5665 900 c-51 -25 -75 -65 -75 -125 0 -42 5 -52 39 -86 l39 -39 526
0 526 0 0 135 0 135 -507 0 c-488 0 -510 -1 -548 -20z"/>
<path d="M163 515 c-69 -30 -95 -130 -50 -196 41 -61 22 -59 614 -56 l543 2
31 32 c43 42 51 120 19 171 -39 62 -36 62 -607 62 -422 -1 -524 -3 -550 -15z"/>
<path d="M1529 507 c-89 -59 -87 -177 3 -231 23 -14 90 -16 558 -16 517 0 534
1 565 20 86 53 82 176 -8 230 -31 19 -54 20 -558 20 l-526 0 -34 -23z"/>
<path d="M2913 515 c-69 -30 -95 -130 -50 -196 41 -61 22 -59 614 -56 l543 2
31 32 c43 42 51 120 19 171 -39 62 -36 62 -607 62 -422 -1 -524 -3 -550 -15z"/>
<path d="M4279 507 c-89 -59 -87 -177 3 -231 23 -14 90 -16 558 -16 517 0 534
1 565 20 86 53 82 176 -8 230 -31 19 -54 20 -558 20 l-526 0 -34 -23z"/>
<path d="M5663 515 c-94 -40 -95 -195 -3 -242 19 -10 149 -13 543 -13 l517 0
0 135 0 135 -512 0 c-418 -1 -519 -3 -545 -15z"/>
<path d="M161 123 c-37 -19 -71 -66 -71 -100 l0 -23 625 0 625 0 0 23 c0 35
-34 82 -73 100 -31 15 -90 17 -554 17 -463 0 -522 -2 -552 -17z"/>
<path d="M1532 120 c-35 -21 -72 -74 -72 -102 0 -17 37 -18 630 -18 593 0 630
1 630 18 0 28 -37 81 -72 102 -32 19 -52 20 -558 20 -506 0 -526 -1 -558 -20z"/>
<path d="M2911 123 c-37 -19 -71 -66 -71 -100 l0 -23 625 0 625 0 0 23 c0 35
-34 82 -73 100 -31 15 -90 17 -554 17 -463 0 -522 -2 -552 -17z"/>
<path d="M4282 120 c-35 -21 -72 -74 -72 -102 0 -17 37 -18 630 -18 593 0 630
1 630 18 0 28 -37 81 -72 102 -32 19 -52 20 -558 20 -506 0 -526 -1 -558 -20z"/>
<path d="M5661 123 c-37 -19 -71 -66 -71 -100 l0 -23 565 0 565 0 0 70 0 70
-512 0 c-458 0 -517 -2 -547 -17z"/>
</g>
</svg>
